{
.appVersion = "3133";
.formatVersion = 3;
axes = (
{
name = weight;
tag = wght;
},
{
name = width;
tag = wdth;
},
{
name = slant;
tag = slnt;
}
);
classes = (
{
automatic = 1;

glyphs = (
{
glyphname = A;
lastChange = "2024-05-08 17:39:42 +0000";
layers = (
{
layerId = "70AA2382-B93B-4577-8C7E-04CBB56D22D0";
shapes = (
{
closed = 1;
nodes = (
(333,0,l),
(333,829,l),
(640,1380,l),
(600,1380,l),
(907,833,l),
(907,0,l),
(1033,0,l),
(1033,861,l),
(693,1460,l),
(547,1460,l),
(207,861,l),
(207,0,l)
);
},
{
closed = 1;
nodes = (
(949,449,l),
(949,552,l),
(286,552,l),
(286,449,l)
);
}
);
width = 1240;
},
{
layerId = "B4DB2FCE-8F13-48AA-B57C-2BFA4BDFBB5B";
shapes = (
{
closed = 1;
nodes = (
(459,0,l),
(459,819,l),
(661,1261,l),
(579,1261,l),
(781,819,l),
(781,0,l),
(1108,0,l),
(1108,933,l),
(823,1460,l),
(417,1460,l),
(132,933,l),
(132,0,l)
);
},
{
closed = 1;
nodes = (
(930,303,l),
(930,537,l),
(339,537,l),
(339,303,l)
);
}
);
width = 1240;
},
{
layerId = "44BD81D2-59FE-4749-9CEB-CE9A9BBF7E1D";
shapes = (
{
closed = 1;
nodes = (
(360,0,l),
(360,821,l),
(798,1380,l),
(758,1380,l),
(1196,825,l),
(1196,0,l),
(1322,0,l),
(1322,861,l),
(851,1460,l),
(705,1460,l),
(234,861,l),
(234,0,l)
);
},
{
closed = 1;
nodes = (
(1238,449,l),
(1238,552,l),
(313,552,l),
(313,449,l)
);
}
);
width = 1555;
},
{
layerId = "C51B4FD0-B2BF-40BC-847B-12841EA1BD5E";
shapes = (
{
closed = 1;
nodes = (
(485,0,l),
(485,811,l),
(818,1261,l),
(736,1261,l),
(1069,811,l),
(1069,0,l),
(1396,0,l),
(1396,933,l),
(980,1460,l),
(574,1460,l),
(158,933,l),
(158,0,l)
);
},
{
closed = 1;
nodes = (
(1218,303,l),
(1218,537,l),
(365,537,l),
(365,303,l)
);
}
);
width = 1555;
},
{
layerId = "D91E39D8-7CC3-444E-9A45-AC8D9F6D33DB";
shapes = (
{
closed = 1;
nodes = (
(240,0,l),
(399,819,l),
(813,1370,l),
(776,1385,l),
(979,848,l),
(814,0,l),
(936,0,l),
(1103,861,l),
(880,1460,l),
(734,1460,l),
(277,861,l),
(110,0,l)
);
},
{
closed = 1;
nodes = (
(939,449,l),
(959,552,l),
(296,552,l),
(276,449,l)
);
}
);
width = 1240;
},
{
layerId = "7F8FBB26-3B45-4F09-894A-43C94E46FA86";
shapes = (
{
closed = 1;
nodes = (
(354,0,l),
(513,819,l),
(801,1261,l),
(739,1261,l),
(841,849,l),
(676,0,l),
(1003,0,l),
(1184,933,l),
(1002,1460,l),
(596,1460,l),
(208,933,l),
(27,0,l)
);
},
{
closed = 1;
nodes = (
(884,303,l),
(929,537,l),
(338,537,l),
(293,303,l)
);
}
);
width = 1240;
},
{
layerId = "32C81056-0B67-48FF-9423-60F4119D1D79";
shapes = (
{
closed = 1;
nodes = (
(269,0,l),
(429,821,l),
(975,1380,l),
(935,1380,l),
(1265,825,l),
(1105,0,l),
(1225,0,l),
(1392,861,l),
(1038,1460,l),
(892,1460,l),
(304,861,l),
(137,0,l)
);
},
{
closed = 1;
nodes = (
(1228,449,l),
(1248,552,l),
(323,552,l),
(303,449,l)
);
}
);
width = 1555;
},
{
layerId = "AD62C6D0-0611-42BF-ABA7-5ADD2541426F";
shapes = (
{
closed = 1;
nodes = (
(380,0,l),
(534,791,l),
(978,1261,l),
(886,1261,l),
(1124,821,l),
(964,0,l),
(1291,0,l),
(1472,933,l),
(1159,1460,l),
(753,1460,l),
(234,933,l),
(53,0,l)
);
},
{
closed = 1;
nodes = (
(1172,303,l),
(1217,537,l),
(364,537,l),
(319,303,l)
);
}
);
width = 1555;
}
);
unicode = 65;
},
{
glyphname = Aacute;
lastChange = "2024-05-08 17:39:42 +0000";
layers = (
{
layerId = "B4DB2FCE-8F13-48AA-B57C-2BFA4BDFBB5B";
shapes = (
{
closed = 1;
nodes = (
(459,0,l),
(459,819,l),
(661,1261,l),
(579,1261,l),
(781,819,l),
(781,0,l),
(1108,0,l),
(1108,933,l),
(823,1460,l),
(417,1460,l),
(132,933,l),
(132,0,l)
);
},
{
closed = 1;
nodes = (
(930,303,l),
(930,537,l),
(339,537,l),
(339,303,l)
);
},
{
closed = 1;
nodes = (
(495,1619.05,l),
(678,1877.386,l),
(1003,1877.386,l),
(754,1619.05,l)
);
}
);
width = 1240;
},
{
layerId = "44BD81D2-59FE-4749-9CEB-CE9A9BBF7E1D";
shapes = (
{
closed = 1;
nodes = (
(360,0,l),
(360,821,l),
(798,1380,l),
(758,1380,l),
(1196,825,l),
(1196,0,l),
(1322,0,l),
(1322,861,l),
(851,1460,l),
(705,1460,l),
(234,861,l),
(234,0,l)
);
},
{
closed = 1;
nodes = (
(1238,449,l),
(1238,552,l),
(313,552,l),
(313,449,l)
);
},
{
closed = 1;
nodes = (
(708,1652.076,l),
(980,1883.57,l),
(1133,1883.57,l),
(827,1652.076,l)
);
}
);
width = 1555;
},
{
layerId = "C51B4FD0-B2BF-40BC-847B-12841EA1BD5E";
shapes = (
{
closed = 1;
nodes = (
(485,0,l),
(485,811,l),
(818,1261,l),
(736,1261,l),
(1069,811,l),
(1069,0,l),
(1396,0,l),
(1396,933,l),
(980,1460,l),
(574,1460,l),
(158,933,l),
(158,0,l)
);
},
{
closed = 1;
nodes = (
(1218,303,l),
(1218,537,l),
(365,537,l),
(365,303,l)
);
},
{
closed = 1;
nodes = (
(641,1619,l),
(858,1918,l),
(1211,1918,l),
(920,1619,l)
);
}
);
width = 1555;
},
{
layerId = "70AA2382-B93B-4577-8C7E-04CBB56D22D0";
shapes = (
{
closed = 1;
nodes = (
(333,0,l),
(333,829,l),
(640,1380,l),
(600,1380,l),
(907,833,l),
(907,0,l),
(1033,0,l),
(1033,861,l),
(693,1460,l),
(547,1460,l),
(207,861,l),
(207,0,l)
);
},
{
closed = 1;
nodes = (
(949,449,l),
(949,552,l),
(286,552,l),
(286,449,l)
);
},
{
closed = 1;
nodes = (
(556,1650.191,l),
(778,1883.236,l),
(918,1883.236,l),
(665,1650.191,l)
);
}
);
width = 1240;
},
{
layerId = "32C81056-0B67-48FF-9423-60F4119D1D79";
shapes = (
{
closed = 1;
nodes = (
(269,0,l),
(429,821,l),
(975,1380,l),
(935,1380,l),
(1265,825,l),
(1105,0,l),
(1225,0,l),
(1392,861,l),
(1038,1460,l),
(892,1460,l),
(304,861,l),
(137,0,l)
);
},
{
closed = 1;
nodes = (
(1228,449,l),
(1248,552,l),
(323,552,l),
(303,449,l)
);
},
{
closed = 1;
nodes = (
(932,1652,l),
(1249,1884,l),
(1402,1884,l),
(1051,1652,l)
);
}
);
width = 1555;
},
{
layerId = "7F8FBB26-3B45-4F09-894A-43C94E46FA86";
shapes = (
{
closed = 1;
nodes = (
(354,0,l),
(513,819,l),
(801,1261,l),
(739,1261,l),
(841,849,l),
(676,0,l),
(1003,0,l),
(1184,933,l),
(1002,1460,l),
(596,1460,l),
(208,933,l),
(27,0,l)
);
},
{
closed = 1;
nodes = (
(884,303,l),
(929,537,l),
(338,537,l),
(293,303,l)
);
},
{
closed = 1;
nodes = (
(705,1619,l),
(938,1877,l),
(1263,1877,l),
(964,1619,l)
);
}
);
width = 1240;
},
{
layerId = "AD62C6D0-0611-42BF-ABA7-5ADD2541426F";
shapes = (
{
closed = 1;
nodes = (
(380,0,l),
(534,791,l),
(978,1261,l),
(886,1261,l),
(1124,821,l),
(964,0,l),
(1291,0,l),
(1472,933,l),
(1159,1460,l),
(753,1460,l),
(234,933,l),
(53,0,l)
);
},
{
closed = 1;
nodes = (
(1172,303,l),
(1217,537,l),
(364,537,l),
(319,303,l)
);
},
{
closed = 1;
nodes = (
(851,1619,l),
(1126,1918,l),
(1479,1918,l),
(1130,1619,l)
);
}
);
width = 1555;
},
{
layerId = "D91E39D8-7CC3-444E-9A45-AC8D9F6D33DB";
shapes = (
{
closed = 1;
nodes = (
(240,0,l),
(399,819,l),
(813,1370,l),
(776,1385,l),
(979,848,l),
(814,0,l),
(936,0,l),
(1103,861,l),
(880,1460,l),
(734,1460,l),
(277,861,l),
(110,0,l)
);
},
{
closed = 1;
nodes = (
(939,449,l),
(959,552,l),
(296,552,l),
(276,449,l)
);
},
{
closed = 1;
nodes = (
(780,1650,l),
(1047,1883,l),
(1187,1883,l),
(889,1650,l)
);
}
);
width = 1240;
}
);
unicode = 193;
},
{
glyphname = Abreve;
lastChange = "2024-05-08 17:39:42 +0000";
layers = (
{
layerId = "B4DB2FCE-8F13-48AA-B57C-2BFA4BDFBB5B";
shapes = (
{
closed = 1;
nodes = (
(459,0,l),
(459,819,l),
(661,1261,l),
(579,1261,l),
(781,819,l),
(781,0,l),
(1108,0,l),
(1108,933,l),
(823,1460,l),
(417,1460,l),
(132,933,l),
(132,0,l)
);
},
{
closed = 1;
nodes = (
(930,303,l),
(930,537,l),
(339,537,l),
(339,303,l)
);
},
{
closed = 1;
nodes = (
(787,1600,l),
(980,1753,l),
(980,1878,l),
(782,1878,l),
(782,1820,l),
(707,1763,l),
(533,1763,l),
(458,1820,l),
(458,1878,l),
(260,1878,l),
(260,1752,l),
(453,1600,l)
);
}
);
width = 1240;
},
{
layerId = "44BD81D2-59FE-4749-9CEB-CE9A9BBF7E1D";
shapes = (
{
closed = 1;
nodes = (
(360,0,l),
(360,821,l),
(798,1380,l),
(758,1380,l),
(1196,825,l),
(1196,0,l),
(1322,0,l),
(1322,861,l),
(851,1460,l),
(705,1460,l),
(234,861,l),
(234,0,l)
);
},
{
closed = 1;
nodes = (
(1238,449,l),
(1238,552,l),
(313,552,l),
(313,449,l)
);
},
{
closed = 1;
nodes = (
(941,1643,l),
(1091,1760,l),
(1091,1883,l),
(1001,1883,l),
(1001,1797,l),
(901,1731,l),
(647,1731,l),
(547,1797,l),
(547,1883,l),
(457,1883,l),
(457,1759,l),
(607,1643,l)
);
}
);
width = 1555;
},
{
layerId = "C51B4FD0-B2BF-40BC-847B-12841EA1BD5E";
shapes = (
{
closed = 1;
nodes = (
(485,0,l),
(485,811,l),
(818,1261,l),
(736,1261,l),
(1069,811,l),
(1069,0,l),
(1396,0,l),
(1396,933,l),
(980,1460,l),
(574,1460,l),
(158,933,l),
(158,0,l)
);
},
{
closed = 1;
nodes = (
(1218,303,l),
(1218,537,l),
(365,537,l),
(365,303,l)
);
},
{
closed = 1;
nodes = (
(974,1610,l),
(1177,1773,l),
(1177,1908,l),
(979,1908,l),
(979,1840,l),
(894,1773,l),
(660,1773,l),
(575,1840,l),
(575,1908,l),
(377,1908,l),
(377,1772,l),
(580,1610,l)
);
}
);
width = 1555;
},
{
layerId = "70AA2382-B93B-4577-8C7E-04CBB56D22D0";
shapes = (
{
closed = 1;
nodes = (
(333,0,l),
(333,829,l),
(640,1380,l),
(600,1380,l),
(907,833,l),
(907,0,l),
(1033,0,l),
(1033,861,l),
(693,1460,l),
(547,1460,l),
(207,861,l),
(207,0,l)
);
},
{
closed = 1;
nodes = (
(949,449,l),
(949,552,l),
(286,552,l),
(286,449,l)
);
},
{
closed = 1;
nodes = (
(767,1643,l),
(887,1760,l),
(887,1883,l),
(797,1883,l),
(797,1797,l),
(727,1731,l),
(513,1731,l),
(443,1797,l),
(443,1883,l),
(353,1883,l),
(353,1759,l),
(473,1643,l)
);
}
);
width = 1240;
},
{
layerId = "32C81056-0B67-48FF-9423-60F4119D1D79";
shapes = (
{
closed = 1;
nodes = (
(269,0,l),
(429,821,l),
(975,1380,l),
(935,1380,l),
(1265,825,l),
(1105,0,l),
(1225,0,l),
(1392,861,l),
(1038,1460,l),
(892,1460,l),
(304,861,l),
(137,0,l)
);
},
{
closed = 1;
nodes = (
(1228,449,l),
(1248,552,l),
(323,552,l),
(303,449,l)
);
},
{
closed = 1;
nodes = (
(1163,1643,l),
(1336,1760,l),
(1360,1883,l),
(1270,1883,l),
(1253,1797,l),
(1140,1731,l),
(886,1731,l),
(799,1797,l),
(816,1883,l),
(726,1883,l),
(702,1759,l),
(829,1643,l)
);
}
);
width = 1555;
},
{
layerId = "7F8FBB26-3B45-4F09-894A-43C94E46FA86";
shapes = (
{
closed = 1;
nodes = (
(354,0,l),
(513,819,l),
(801,1261,l),
(739,1261,l),
(841,849,l),
(676,0,l),
(1003,0,l),
(1184,933,l),
(1002,1460,l),
(596,1460,l),
(208,933,l),
(27,0,l)
);
},
{
closed = 1;
nodes = (
(884,303,l),
(929,537,l),
(338,537,l),
(293,303,l)
);
},
{
closed = 1;
nodes = (
(993,1600,l),
(1216,1753,l),
(1240,1878,l),
(1042,1878,l),
(1031,1820,l),
(945,1763,l),
(771,1763,l),
(707,1820,l),
(718,1878,l),
(520,1878,l),
(496,1752,l),
(659,1600,l)
);
}
);
width = 1240;
},
{
layerId = "AD62C6D0-0611-42BF-ABA7-5ADD2541426F";
shapes = (
{
closed = 1;
nodes = (
(380,0,l),
(534,791,l),
(978,1261,l),
(886,1261,l),
(1124,821,l),
(964,0,l),
(1291,0,l),
(1472,933,l),
(1159,1460,l),
(753,1460,l),
(234,933,l),
(53,0,l)
);
},
{
closed = 1;
nodes = (
(1172,303,l),
(1217,537,l),
(364,537,l),
(319,303,l)
);
},
{
closed = 1;
nodes = (
(1182,1610,l),
(1417,1773,l),
(1443,1908,l),
(1245,1908,l),
(1232,1840,l),
(1134,1773,l),
(900,1773,l),
(828,1840,l),
(841,1908,l),
(643,1908,l),
(616,1772,l),
(788,1610,l)
);
}
);
width = 1555;
},
{
layerId = "D91E39D8-7CC3-444E-9A45-AC8D9F6D33DB";
shapes = (
{
closed = 1;
nodes = (
(240,0,l),
(399,819,l),
(813,1370,l),
(776,1385,l),
(979,848,l),
(814,0,l),
(936,0,l),
(1103,861,l),
(880,1460,l),
(734,1460,l),
(277,861,l),
(110,0,l)
);
},
{
closed = 1;
nodes = (
(939,449,l),
(959,552,l),
(296,552,l),
(276,449,l)
);
},
{
closed = 1;
nodes = (
(989,1643,l),
(1132,1760,l),
(1156,1883,l),
(1066,1883,l),
(1049,1797,l),
(966,1731,l),
(752,1731,l),
(695,1797,l),
(712,1883,l),
(622,1883,l),
(598,1759,l),
(695,1643,l)
);
}
);
width = 1240;
}
);
unicode = 258;
},
{
glyphname = Acircumflex;
lastChange = "2024-05-08 17:39:42 +0000";
layers = (
{
layerId = "B4DB2FCE-8F13-48AA-B57C-2BFA4BDFBB5B";
shapes = (
{
closed = 1;
nodes = (
(459,0,l),
(459,819,l),
(661,1261,l),
(579,1261,l),
(781,819,l),
(781,0,l),
(1108,0,l),
(1108,933,l),
(823,1460,l),
(417,1460,l),
(132,933,l),
(132,0,l)
);
},
{
closed = 1;
nodes = (
(930,303,l),
(930,537,l),
(339,537,l),
(339,303,l)
);
},
{
closed = 1;
nodes = (
(483,1620,l),
(644,1824,l),
(596,1824,l),
(757,1620,l),
(1041,1620,l),
(813,1878,l),
(427,1878,l),
(199,1620,l)
);
}
);
width = 1240;
},
{
layerId = "44BD81D2-59FE-4749-9CEB-CE9A9BBF7E1D";
shapes = (
{
closed = 1;
nodes = (
(360,0,l),
(360,821,l),
(798,1380,l),
(758,1380,l),
(1196,825,l),
(1196,0,l),
(1322,0,l),
(1322,861,l),
(851,1460,l),
(705,1460,l),
(234,861,l),
(234,0,l)
);
},
{
closed = 1;
nodes = (
(1238,449,l),
(1238,552,l),
(313,552,l),
(313,449,l)
);
},
{
closed = 1;
nodes = (
(533,1650,l),
(808,1859,l),
(746,1859,l),
(1022,1650,l),
(1169,1650,l),
(855,1883,l),
(699,1883,l),
(386,1650,l)
);
}
);
width = 1555;
},
{
layerId = "C51B4FD0-B2BF-40BC-847B-12841EA1BD5E";
shapes = (
{
closed = 1;
nodes = (
(485,0,l),
(485,811,l),
(818,1261,l),
(736,1261,l),
(1069,811,l),
(1069,0,l),
(1396,0,l),
(1396,933,l),
(980,1460,l),
(574,1460,l),
(158,933,l),
(158,0,l)
);
},
{
closed = 1;
nodes = (
(1218,303,l),
(1218,537,l),
(365,537,l),
(365,303,l)
);
},
{
closed = 1;
nodes = (
(610,1620,l),
(810,1866,l),
(742,1866,l),
(943,1620,l),
(1257,1620,l),
(969,1908,l),
(583,1908,l),
(296,1620,l)
);
}
);
width = 1555;
},
{
layerId = "70AA2382-B93B-4577-8C7E-04CBB56D22D0";
shapes = (
{
closed = 1;
nodes = (
(333,0,l),
(333,829,l),
(640,1380,l),
(600,1380,l),
(907,833,l),
(907,0,l),
(1033,0,l),
(1033,861,l),
(693,1460,l),
(547,1460,l),
(207,861,l),
(207,0,l)
);
},
{
closed = 1;
nodes = (
(949,449,l),
(949,552,l),
(286,552,l),
(286,449,l)
);
},
{
closed = 1;
nodes = (
(429,1650,l),
(648,1854,l),
(592,1854,l),
(811,1650,l),
(942,1650,l),
(678,1883,l),
(562,1883,l),
(298,1650,l)
);
}
);
width = 1240;
},
{
layerId = "32C81056-0B67-48FF-9423-60F4119D1D79";
shapes = (
{
closed = 1;
nodes = (
(269,0,l),
(429,821,l),
(975,1380,l),
(935,1380,l),
(1265,825,l),
(1105,0,l),
(1225,0,l),
(1392,861,l),
(1038,1460,l),
(892,1460,l),
(304,861,l),
(137,0,l)
);
},
{
closed = 1;
nodes = (
(1228,449,l),
(1248,552,l),
(323,552,l),
(303,449,l)
);
},
{
closed = 1;
nodes = (
(757,1650,l),
(1072,1859,l),
(1010,1859,l),
(1246,1650,l),
(1393,1650,l),
(1124,1883,l),
(968,1883,l),
(610,1650,l)
);
}
);
width = 1555;
},
{
layerId = "7F8FBB26-3B45-4F09-894A-43C94E46FA86";
shapes = (
{
closed = 1;
nodes = (
(354,0,l),
(513,819,l),
(801,1261,l),
(739,1261,l),
(841,849,l),
(676,0,l),
(1003,0,l),
(1184,933,l),
(1002,1460,l),
(596,1460,l),
(208,933,l),
(27,0,l)
);
},
{
closed = 1;
nodes = (
(884,303,l),
(929,537,l),
(338,537,l),
(293,303,l)
);
},
{
closed = 1;
nodes = (
(693,1620,l),
(894,1824,l),
(846,1824,l),
(967,1620,l),
(1251,1620,l),
(1073,1878,l),
(687,1878,l),
(409,1620,l)
);
}
);
width = 1240;
},
{
layerId = "AD62C6D0-0611-42BF-ABA7-5ADD2541426F";
shapes = (
{
closed = 1;
nodes = (
(380,0,l),
(534,791,l),
(978,1261,l),
(886,1261,l),
(1124,821,l),
(964,0,l),
(1291,0,l),
(1472,933,l),
(1159,1460,l),
(753,1460,l),
(234,933,l),
(53,0,l)
);
},
{
closed = 1;
nodes = (
(1172,303,l),
(1217,537,l),
(364,537,l),
(319,303,l)
);
},
{
closed = 1;
nodes = (
(820,1620,l),
(1068,1866,l),
(1000,1866,l),
(1153,1620,l),
(1467,1620,l),
(1235,1908,l),
(849,1908,l),
(506,1620,l)
);
}
);
width = 1555;
},
{
layerId = "D91E39D8-7CC3-444E-9A45-AC8D9F6D33DB";
shapes = (
{
closed = 1;
nodes = (
(240,0,l),
(399,819,l),
(813,1370,l),
(776,1385,l),
(979,848,l),
(814,0,l),
(936,0,l),
(1103,861,l),
(880,1460,l),
(734,1460,l),
(277,861,l),
(110,0,l)
);
},
{
closed = 1;
nodes = (
(939,449,l),
(959,552,l),
(296,552,l),
(276,449,l)
);
},
{
closed = 1;
nodes = (
(653,1650,l),
(911,1854,l),
(855,1854,l),
(1035,1650,l),
(1166,1650,l),
(947,1883,l),
(831,1883,l),
(522,1650,l)
);
}
);
width = 1240;
}
);
unicode = 194;
},
{
glyphname = Adieresis;
lastChange = "2024-05-08 17:39:42 +0000";
layers = (
{
layerId = "B4DB2FCE-8F13-48AA-B57C-2BFA4BDFBB5B";
shapes = (
{
closed = 1;
nodes = (
(459,0,l),
(459,819,l),
(661,1261,l),
(579,1261,l),
(781,819,l),
(781,0,l),
(1108,0,l),
(1108,933,l),
(823,1460,l),
(417,1460,l),
(132,933,l),
(132,0,l)
);
},
{
closed = 1;
nodes = (
(930,303,l),
(930,537,l),
(339,537,l),
(339,303,l)
);
},
{
closed = 1;
nodes = (
(510.592,1786.8,l),
(339.68,1954,l),
(167.984,1786.8,l),
(339.68,1618.8,l)
);
},
{
closed = 1;
nodes = (
(1071.592,1786.8,l),
(900.68,1954,l),
(728.984,1786.8,l),
(900.68,1618.8,l)
);
}
);
width = 1240;
},
{
layerId = "44BD81D2-59FE-4749-9CEB-CE9A9BBF7E1D";
shapes = (
{
closed = 1;
nodes = (
(360,0,l),
(360,821,l),
(798,1380,l),
(758,1380,l),
(1196,825,l),
(1196,0,l),
(1322,0,l),
(1322,861,l),
(851,1460,l),
(705,1460,l),
(234,861,l),
(234,0,l)
);
},
{
closed = 1;
nodes = (
(1238,449,l),
(1238,552,l),
(313,552,l),
(313,449,l)
);
},
{
closed = 1;
nodes = (
(609,1756,l),
(472,1886,l),
(335,1756,l),
(472,1626,l)
);
},
{
closed = 1;
nodes = (
(1221,1756,l),
(1084,1886,l),
(947,1756,l),
(1084,1626,l)
);
}
);
width = 1555;
},
{
layerId = "C51B4FD0-B2BF-40BC-847B-12841EA1BD5E";
shapes = (
{
closed = 1;
nodes = (
(485,0,l),
(485,811,l),
(818,1261,l),
(736,1261,l),
(1069,811,l),
(1069,0,l),
(1396,0,l),
(1396,933,l),
(980,1460,l),
(574,1460,l),
(158,933,l),
(158,0,l)
);
},
{
closed = 1;
nodes = (
(1218,303,l),
(1218,537,l),
(365,537,l),
(365,303,l)
);
},
{
closed = 1;
nodes = (
(616,1797,l),
(445,1964,l),
(273,1797,l),
(445,1629,l)
);
},
{
closed = 1;
nodes = (
(1289,1797,l),
(1118,1964,l),
(946,1797,l),
(1118,1629,l)
);
}
);
width = 1555;
},
{
layerId = "70AA2382-B93B-4577-8C7E-04CBB56D22D0";
shapes = (
{
closed = 1;
nodes = (
(333,0,l),
(333,829,l),
(640,1380,l),
(600,1380,l),
(907,833,l),
(907,0,l),
(1033,0,l),
(1033,861,l),
(693,1460,l),
(547,1460,l),
(207,861,l),
(207,0,l)
);
},
{
closed = 1;
nodes = (
(949,449,l),
(949,552,l),
(286,552,l),
(286,449,l)
);
},
{
closed = 1;
nodes = (
(507.86,1756,l),
(373.6,1886,l),
(239.34,1756,l),
(373.6,1626,l)
);
},
{
closed = 1;
nodes = (
(1000.86,1756,l),
(866.6,1886,l),
(732.34,1756,l),
(866.6,1626,l)
);
}
);
width = 1240;
},
{
layerId = "32C81056-0B67-48FF-9423-60F4119D1D79";
shapes = (
{
closed = 1;
nodes = (
(269,0,l),
(429,821,l),
(975,1380,l),
(935,1380,l),
(1265,825,l),
(1105,0,l),
(1225,0,l),
(1392,861,l),
(1038,1460,l),
(892,1460,l),
(304,861,l),
(137,0,l)
);
},
{
closed = 1;
nodes = (
(1228,449,l),
(1248,552,l),
(323,552,l),
(303,449,l)
);
},
{
closed = 1;
nodes = (
(853,1756,l),
(742,1886,l),
(579,1756,l),
(691,1626,l)
);
},
{
closed = 1;
nodes = (
(1465,1756,l),
(1354,1886,l),
(1191,1756,l),
(1303,1626,l)
);
}
);
width = 1555;
},
{
layerId = "7F8FBB26-3B45-4F09-894A-43C94E46FA86";
shapes = (
{
closed = 1;
nodes = (
(354,0,l),
(513,819,l),
(801,1261,l),
(739,1261,l),
(841,849,l),
(676,0,l),
(1003,0,l),
(1184,933,l),
(1002,1460,l),
(596,1460,l),
(208,933,l),
(27,0,l)
);
},
{
closed = 1;
nodes = (
(884,303,l),
(929,537,l),
(338,537,l),
(293,303,l)
);
},
{
closed = 1;
nodes = (
(753,1787,l),
(614,1954,l),
(410,1787,l),
(549,1619,l)
);
},
{
closed = 1;
nodes = (
(1314,1787,l),
(1175,1954,l),
(971,1787,l),
(1110,1619,l)
);
}
);
width = 1240;
},
{
layerId = "AD62C6D0-0611-42BF-ABA7-5ADD2541426F";
shapes = (
{
closed = 1;
nodes = (
(380,0,l),
(534,791,l),
(978,1261,l),
(886,1261,l),
(1124,821,l),
(964,0,l),
(1291,0,l),
(1472,933,l),
(1159,1460,l),
(753,1460,l),
(234,933,l),
(53,0,l)
);
},
{
closed = 1;
nodes = (
(1172,303,l),
(1217,537,l),
(364,537,l),
(319,303,l)
);
},
{
closed = 1;
nodes = (
(860,1797,l),
(722,1964,l),
(517,1797,l),
(656,1629,l)
);
},
{
closed = 1;
nodes = (
(1533,1797,l),
(1395,1964,l),
(1190,1797,l),
(1329,1629,l)
);
}
);
width = 1555;
},
{
layerId = "D91E39D8-7CC3-444E-9A45-AC8D9F6D33DB";
shapes = (
{
closed = 1;
nodes = (
(240,0,l),
(399,819,l),
(813,1370,l),
(776,1385,l),
(979,848,l),
(814,0,l),
(936,0,l),
(1103,861,l),
(880,1460,l),
(734,1460,l),
(277,861,l),
(110,0,l)
);
},
{
closed = 1;
nodes = (
(939,449,l),
(959,552,l),
(296,552,l),
(276,449,l)
);
},
{
closed = 1;
nodes = (
(752,1756,l),
(643,1886,l),
(484,1756,l),
(593,1626,l)
);
},
{
closed = 1;
nodes = (
(1245,1756,l),
(1136,1886,l),
(977,1756,l),
(1086,1626,l)
);
}
);
width = 1240;
}
);
unicode = 196;
},
{
glyphname = Adotbelow;
lastChange = "2024-05-08 17:39:42 +0000";
layers = (
{
layerId = "B4DB2FCE-8F13-48AA-B57C-2BFA4BDFBB5B";
shapes = (
{
closed = 1;
nodes = (
(459,0,l),
(459,819,l),
(661,1261,l),
(579,1261,l),
(781,819,l),
(781,0,l),
(1108,0,l),
(1108,933,l),
(823,1460,l),
(417,1460,l),
(132,933,l),
(132,0,l)
);
},
{
closed = 1;
nodes = (
(930,303,l),
(930,537,l),
(339,537,l),
(339,303,l)
);
},
{
closed = 1;
nodes = (
(838,-318,l),
(620,-109,l),
(401,-318,l),
(620,-528,l)
);
}
);
width = 1240;
},
{
layerId = "44BD81D2-59FE-4749-9CEB-CE9A9BBF7E1D";
shapes = (
{
closed = 1;
nodes = (
(360,0,l),
(360,821,l),
(798,1380,l),
(758,1380,l),
(1196,825,l),
(1196,0,l),
(1322,0,l),
(1322,861,l),
(851,1460,l),
(705,1460,l),
(234,861,l),
(234,0,l)
);
},
{
closed = 1;
nodes = (
(1238,449,l),
(1238,552,l),
(313,552,l),
(313,449,l)
);
},
{
closed = 1;
nodes = (
(915,-416,l),
(778,-286,l),
(641,-416,l),
(778,-546,l)
);
}
);
width = 1555;
},
{
layerId = "C51B4FD0-B2BF-40BC-847B-12841EA1BD5E";
shapes = (
{
closed = 1;
nodes = (
(485,0,l),
(485,811,l),
(818,1261,l),
(736,1261,l),
(1069,811,l),
(1069,0,l),
(1396,0,l),
(1396,933,l),
(980,1460,l),
(574,1460,l),
(158,933,l),
(158,0,l)
);
},
{
closed = 1;
nodes = (
(1218,303,l),
(1218,537,l),
(365,537,l),
(365,303,l)
);
},
{
closed = 1;
nodes = (
(995,-318,l),
(777,-109,l),
(558,-318,l),
(777,-528,l)
);
}
);
width = 1555;
},
{
layerId = "70AA2382-B93B-4577-8C7E-04CBB56D22D0";
shapes = (
{
closed = 1;
nodes = (
(333,0,l),
(333,829,l),
(640,1380,l),
(600,1380,l),
(907,833,l),
(907,0,l),
(1033,0,l),
(1033,861,l),
(693,1460,l),
(547,1460,l),
(207,861,l),
(207,0,l)
);
},
{
closed = 1;
nodes = (
(949,449,l),
(949,552,l),
(286,552,l),
(286,449,l)
);
},
{
closed = 1;
nodes = (
(757,-416,l),
(620,-286,l),
(483,-416,l),
(620,-546,l)
);
}
);
width = 1240;
},
{
layerId = "32C81056-0B67-48FF-9423-60F4119D1D79";
shapes = (
{
closed = 1;
nodes = (
(269,0,l),
(429,821,l),
(975,1380,l),
(935,1380,l),
(1265,825,l),
(1105,0,l),
(1225,0,l),
(1392,861,l),
(1038,1460,l),
(892,1460,l),
(304,861,l),
(137,0,l)
);
},
{
closed = 1;
nodes = (
(1228,449,l),
(1248,552,l),
(323,552,l),
(303,449,l)
);
},
{
closed = 1;
nodes = (
(737,-416,l),
(625,-286,l),
(463,-416,l),
(575,-546,l)
);
}
);
width = 1555;
},
{
layerId = "7F8FBB26-3B45-4F09-894A-43C94E46FA86";
shapes = (
{
closed = 1;
nodes = (
(354,0,l),
(513,819,l),
(801,1261,l),
(739,1261,l),
(841,849,l),
(676,0,l),
(1003,0,l),
(1184,933,l),
(1002,1460,l),
(596,1460,l),
(208,933,l),
(27,0,l)
);
},
{
closed = 1;
nodes = (
(884,303,l),
(929,537,l),
(338,537,l),
(293,303,l)
);
},
{
closed = 1;
nodes = (
(671,-318,l),
(494,-109,l),
(234,-318,l),
(412,-528,l)
);
}
);
width = 1240;
},
{
layerId = "AD62C6D0-0611-42BF-ABA7-5ADD2541426F";
shapes = (
{
closed = 1;
nodes = (
(380,0,l),
(534,791,l),
(978,1261,l),
(886,1261,l),
(1124,821,l),
(964,0,l),
(1291,0,l),
(1472,933,l),
(1159,1460,l),
(753,1460,l),
(234,933,l),
(53,0,l)
);
},
{
closed = 1;
nodes = (
(1172,303,l),
(1217,537,l),
(364,537,l),
(319,303,l)
);
},
{
closed = 1;
nodes = (
(828,-318,l),
(651,-109,l),
(391,-318,l),
(569,-528,l)
);
}
);
width = 1555;
},
{
layerId = "D91E39D8-7CC3-444E-9A45-AC8D9F6D33DB";
shapes = (
{
closed = 1;
nodes = (
(240,0,l),
(399,819,l),
(813,1370,l),
(776,1385,l),
(979,848,l),
(814,0,l),
(936,0,l),
(1103,861,l),
(880,1460,l),
(734,1460,l),
(277,861,l),
(110,0,l)
);
},
{
closed = 1;
nodes = (
(939,449,l),
(959,552,l),
(296,552,l),
(276,449,l)
);
},
{
closed = 1;
nodes = (
(579,-416,l),
(467,-286,l),
(305,-416,l),
(417,-546,l)
);
}
);
width = 1240;
}
);
unicode = 7840;
},
{
glyphname = Agrave;
lastChange = "2024-05-08 17:39:42 +0000";
layers = (
{
layerId = "B4DB2FCE-8F13-48AA-B57C-2BFA4BDFBB5B";
shapes = (
{
closed = 1;
nodes = (
(459,0,l),
(459,819,l),
(661,1261,l),
(579,1261,l),
(781,819,l),
(781,0,l),
(1108,0,l),
(1108,933,l),
(823,1460,l),
(417,1460,l),
(132,933,l),
(132,0,l)
);
},
{
closed = 1;
nodes = (
(930,303,l),
(930,537,l),
(339,537,l),
(339,303,l)
);
},
{
closed = 1;
nodes = (
(745,1619.05,l),
(562,1877.386,l),
(237,1877.386,l),
(486,1619.05,l)
);
}
);
width = 1240;
},
{
layerId = "44BD81D2-59FE-4749-9CEB-CE9A9BBF7E1D";
shapes = (
{
closed = 1;
nodes = (
(360,0,l),
(360,821,l),
(798,1380,l),
(758,1380,l),
(1196,825,l),
(1196,0,l),
(1322,0,l),
(1322,861,l),
(851,1460,l),
(705,1460,l),
(234,861,l),
(234,0,l)
);
},
{
closed = 1;
nodes = (
(1238,449,l),
(1238,552,l),
(313,552,l),
(313,449,l)
);
},
{
closed = 1;
nodes = (
(847,1652.076,l),
(575,1883.57,l),
(422,1883.57,l),
(728,1652.076,l)
);
}
);
width = 1555;
},
{
layerId = "C51B4FD0-B2BF-40BC-847B-12841EA1BD5E";
shapes = (
{
closed = 1;
nodes = (
(485,0,l),
(485,811,l),
(818,1261,l),
(736,1261,l),
(1069,811,l),
(1069,0,l),
(1396,0,l),
(1396,933,l),
(980,1460,l),
(574,1460,l),
(158,933,l),
(158,0,l)
);
},
{
closed = 1;
nodes = (
(1218,303,l),
(1218,537,l),
(365,537,l),
(365,303,l)
);
},
{
closed = 1;
nodes = (
(912,1619,l),
(695,1918,l),
(342,1918,l),
(633,1619,l)
);
}
);
width = 1555;
},
{
layerId = "70AA2382-B93B-4577-8C7E-04CBB56D22D0";
shapes = (
{
closed = 1;
nodes = (
(333,0,l),
(333,829,l),
(640,1380,l),
(600,1380,l),
(907,833,l),
(907,0,l),
(1033,0,l),
(1033,861,l),
(693,1460,l),
(547,1460,l),
(207,861,l),
(207,0,l)
);
},
{
closed = 1;
nodes = (
(949,449,l),
(949,552,l),
(286,552,l),
(286,449,l)
);
},
{
closed = 1;
nodes = (
(684,1650.191,l),
(462,1883.236,l),
(322,1883.236,l),
(575,1650.191,l)
);
}
);
width = 1240;
},
{
layerId = "32C81056-0B67-48FF-9423-60F4119D1D79";
shapes = (
{
closed = 1;
nodes = (
(269,0,l),
(429,821,l),
(975,1380,l),
(935,1380,l),
(1265,825,l),
(1105,0,l),
(1225,0,l),
(1392,861,l),
(1038,1460,l),
(892,1460,l),
(304,861,l),
(137,0,l)
);
},
{
closed = 1;
nodes = (
(1228,449,l),
(1248,552,l),
(323,552,l),
(303,449,l)
);
},
{
closed = 1;
nodes = (
(1071,1652,l),
(844,1884,l),
(691,1884,l),
(952,1652,l)
);
}
);
width = 1555;
},
{
layerId = "7F8FBB26-3B45-4F09-894A-43C94E46FA86";
shapes = (
{
closed = 1;
nodes = (
(354,0,l),
(513,819,l),
(801,1261,l),
(739,1261,l),
(841,849,l),
(676,0,l),
(1003,0,l),
(1184,933,l),
(1002,1460,l),
(596,1460,l),
(208,933,l),
(27,0,l)
);
},
{
closed = 1;
nodes = (
(884,303,l),
(929,537,l),
(338,537,l),
(293,303,l)
);
},
{
closed = 1;
nodes = (
(955,1619,l),
(822,1877,l),
(497,1877,l),
(696,1619,l)
);
}
);
width = 1240;
},
{
layerId = "AD62C6D0-0611-42BF-ABA7-5ADD2541426F";
shapes = (
{
closed = 1;
nodes = (
(380,0,l),
(534,791,l),
(978,1261,l),
(886,1261,l),
(1124,821,l),
(964,0,l),
(1291,0,l),
(1472,933,l),
(1159,1460,l),
(753,1460,l),
(234,933,l),
(53,0,l)
);
},
{
closed = 1;
nodes = (
(1172,303,l),
(1217,537,l),
(364,537,l),
(319,303,l)
);
},
{
closed = 1;
nodes = (
(1122,1619,l),
(963,1918,l),
(610,1918,l),
(843,1619,l)
);
}
);
width = 1555;
},
{
layerId = "D91E39D8-7CC3-444E-9A45-AC8D9F6D33DB";
shapes = (
{
closed = 1;
nodes = (
(240,0,l),
(399,819,l),
(813,1370,l),
(776,1385,l),
(979,848,l),
(814,0,l),
(936,0,l),
(1103,861,l),
(880,1460,l),
(734,1460,l),
(277,861,l),
(110,0,l)
);
},
{
closed = 1;
nodes = (
(939,449,l),
(959,552,l),
(296,552,l),
(276,449,l)
);
},
{
closed = 1;
nodes = (
(908,1650,l),
(731,1883,l),
(591,1883,l),
(799,1650,l)
);
}
);
width = 1240;
}
);
unicode = 192;
},
{
glyphname = Amacron;
lastChange = "2024-05-08 17:39:42 +0000";
layers = (
{
layerId = "B4DB2FCE-8F13-48AA-B57C-2BFA4BDFBB5B";
shapes = (
{
closed = 1;
nodes = (
(459,0,l),
(459,819,l),
(661,1261,l),
(579,1261,l),
(781,819,l),
(781,0,l),
(1108,0,l),
(1108,933,l),
(823,1460,l),
(417,1460,l),
(132,933,l),
(132,0,l)
);
},
{
closed = 1;
nodes = (
(930,303,l),
(930,537,l),
(339,537,l),
(339,303,l)
);
},
{
closed = 1;
nodes = (
(969,1691,l),
(969,1884,l),
(271,1884,l),
(271,1691,l)
);
}
);
width = 1240;
},
{
layerId = "44BD81D2-59FE-4749-9CEB-CE9A9BBF7E1D";
shapes = (
{
closed = 1;
nodes = (
(360,0,l),
(360,821,l),
(798,1380,l),
(758,1380,l),
(1196,825,l),
(1196,0,l),
(1322,0,l),
(1322,861,l),
(851,1460,l),
(705,1460,l),
(234,861,l),
(234,0,l)
);
},
{
closed = 1;
nodes = (
(1238,449,l),
(1238,552,l),
(313,552,l),
(313,449,l)
);
},
{
closed = 1;
nodes = (
(1192,1731,l),
(1192,1831,l),
(363,1831,l),
(363,1731,l)
);
}
);
width = 1555;
},
{
layerId = "C51B4FD0-B2BF-40BC-847B-12841EA1BD5E";
shapes = (
{
closed = 1;
nodes = (
(485,0,l),
(485,811,l),
(818,1261,l),
(736,1261,l),
(1069,811,l),
(1069,0,l),
(1396,0,l),
(1396,933,l),
(980,1460,l),
(574,1460,l),
(158,933,l),
(158,0,l)
);
},
{
closed = 1;
nodes = (
(1218,303,l),
(1218,537,l),
(365,537,l),
(365,303,l)
);
},
{
closed = 1;
nodes = (
(1207,1691,l),
(1207,1884,l),
(346,1884,l),
(346,1691,l)
);
}
);
width = 1555;
},
{
layerId = "70AA2382-B93B-4577-8C7E-04CBB56D22D0";
shapes = (
{
closed = 1;
nodes = (
(333,0,l),
(333,829,l),
(640,1380,l),
(600,1380,l),
(907,833,l),
(907,0,l),
(1033,0,l),
(1033,861,l),
(693,1460,l),
(547,1460,l),
(207,861,l),
(207,0,l)
);
},
{
closed = 1;
nodes = (
(949,449,l),
(949,552,l),
(286,552,l),
(286,449,l)
);
},
{
closed = 1;
nodes = (
(927,1731,l),
(927,1831,l),
(313,1831,l),
(313,1731,l)
);
}
);
width = 1240;
},
{
layerId = "32C81056-0B67-48FF-9423-60F4119D1D79";
shapes = (
{
closed = 1;
nodes = (
(269,0,l),
(429,821,l),
(975,1380,l),
(935,1380,l),
(1265,825,l),
(1105,0,l),
(1225,0,l),
(1392,861,l),
(1038,1460,l),
(892,1460,l),
(304,861,l),
(137,0,l)
);
},
{
closed = 1;
nodes = (
(1228,449,l),
(1248,552,l),
(323,552,l),
(303,449,l)
);
},
{
closed = 1;
nodes = (
(1431,1731,l),
(1451,1831,l),
(622,1831,l),
(602,1731,l)
);
}
);
width = 1555;
},
{
layerId = "7F8FBB26-3B45-4F09-894A-43C94E46FA86";
shapes = (
{
closed = 1;
nodes = (
(354,0,l),
(513,819,l),
(801,1261,l),
(739,1261,l),
(841,849,l),
(676,0,l),
(1003,0,l),
(1184,933,l),
(1002,1460,l),
(596,1460,l),
(208,933,l),
(27,0,l)
);
},
{
closed = 1;
nodes = (
(884,303,l),
(929,537,l),
(338,537,l),
(293,303,l)
);
},
{
closed = 1;
nodes = (
(1193,1691,l),
(1230,1884,l),
(532,1884,l),
(495,1691,l)
);
}
);
width = 1240;
},
{
layerId = "AD62C6D0-0611-42BF-ABA7-5ADD2541426F";
shapes = (
{
closed = 1;
nodes = (
(380,0,l),
(534,791,l),
(978,1261,l),
(886,1261,l),
(1124,821,l),
(964,0,l),
(1291,0,l),
(1472,933,l),
(1159,1460,l),
(753,1460,l),
(234,933,l),
(53,0,l)
);
},
{
closed = 1;
nodes = (
(1172,303,l),
(1217,537,l),
(364,537,l),
(319,303,l)
);
},
{
closed = 1;
nodes = (
(1431,1691,l),
(1468,1884,l),
(607,1884,l),
(570,1691,l)
);
}
);
width = 1555;
},
{
layerId = "D91E39D8-7CC3-444E-9A45-AC8D9F6D33DB";
shapes = (
{
closed = 1;
nodes = (
(240,0,l),
(399,819,l),
(813,1370,l),
(776,1385,l),
(979,848,l),
(814,0,l),
(936,0,l),
(1103,861,l),
(880,1460,l),
(734,1460,l),
(277,861,l),
(110,0,l)
);
},
{
closed = 1;
nodes = (
(939,449,l),
(959,552,l),
(296,552,l),
(276,449,l)
);
},
{
closed = 1;
nodes = (
(1166,1731,l),
(1186,1831,l),
(572,1831,l),
(552,1731,l)
);
}
);
width = 1240;
}
);
unicode = 256;
},
{
glyphname = Aogonek;
lastChange = "2024-05-08 17:39:42 +0000";
layers = (
{
layerId = "B4DB2FCE-8F13-48AA-B57C-2BFA4BDFBB5B";
shapes = (
{
closed = 1;
nodes = (
(459,0,l),
(459,819,l),
(661,1261,l),
(579,1261,l),
(781,819,l),
(781,0,l),
(1108,0,l),
(1108,933,l),
(823,1460,l),
(417,1460,l),
(132,933,l),
(132,0,l)
);
},
{
closed = 1;
nodes = (
(930,303,l),
(930,537,l),
(339,537,l),
(339,303,l)
);
},
{
closed = 1;
nodes = (
(722,-320,l),
(925,-443,l),
(1089,-443,l),
(1089,-240,l),
(997,-240,l),
(945,-210,l),
(945,-173,l),
(1108,0,l),
(991,44,l),
(722,-133,l)
);
}
);
width = 1240;
},
{
layerId = "44BD81D2-59FE-4749-9CEB-CE9A9BBF7E1D";
shapes = (
{
closed = 1;
nodes = (
(360,0,l),
(360,821,l),
(798,1380,l),
(758,1380,l),
(1196,825,l),
(1196,0,l),
(1322,0,l),
(1322,861,l),
(851,1460,l),
(705,1460,l),
(234,861,l),
(234,0,l)
);
},
{
closed = 1;
nodes = (
(1238,449,l),
(1238,552,l),
(313,552,l),
(313,449,l)
);
},
{
closed = 1;
nodes = (
(1052,-310,l),
(1200,-400,l),
(1322,-400,l),
(1322,-310,l),
(1231,-310,l),
(1154,-262,l),
(1154,-161,l),
(1322,0,l),
(1241,37,l),
(1052,-132,l)
);
}
);
width = 1555;
},
{
layerId = "C51B4FD0-B2BF-40BC-847B-12841EA1BD5E";
shapes = (
{
closed = 1;
nodes = (
(485,0,l),
(485,811,l),
(818,1261,l),
(736,1261,l),
(1069,811,l),
(1069,0,l),
(1396,0,l),
(1396,933,l),
(980,1460,l),
(574,1460,l),
(158,933,l),
(158,0,l)
);
},
{
closed = 1;
nodes = (
(1218,303,l),
(1218,537,l),
(365,537,l),
(365,303,l)
);
},
{
closed = 1;
nodes = (
(955,-320,l),
(1163,-443,l),
(1377,-443,l),
(1377,-240,l),
(1255,-240,l),
(1203,-210,l),
(1203,-173,l),
(1396,0,l),
(1279,44,l),
(955,-146,l)
);
}
);
width = 1555;
},
{
layerId = "70AA2382-B93B-4577-8C7E-04CBB56D22D0";
shapes = (
{
closed = 1;
nodes = (
(333,0,l),
(333,829,l),
(640,1380,l),
(600,1380,l),
(907,833,l),
(907,0,l),
(1033,0,l),
(1033,861,l),
(693,1460,l),
(547,1460,l),
(207,861,l),
(207,0,l)
);
},
{
closed = 1;
nodes = (
(949,449,l),
(949,552,l),
(286,552,l),
(286,449,l)
);
},
{
closed = 1;
nodes = (
(783,-310,l),
(921,-400,l),
(1033,-400,l),
(1033,-310,l),
(952,-310,l),
(885,-262,l),
(885,-151,l),
(1033,0,l),
(951,37,l),
(783,-122,l)
);
}
);
width = 1240;
},
{
layerId = "32C81056-0B67-48FF-9423-60F4119D1D79";
shapes = (
{
closed = 1;
nodes = (
(269,0,l),
(429,821,l),
(975,1380,l),
(935,1380,l),
(1265,825,l),
(1105,0,l),
(1225,0,l),
(1392,861,l),
(1038,1460,l),
(892,1460,l),
(304,861,l),
(137,0,l)
);
},
{
closed = 1;
nodes = (
(1228,449,l),
(1248,552,l),
(323,552,l),
(303,449,l)
);
},
{
closed = 1;
nodes = (
(895,-310,l),
(1025,-400,l),
(1147,-400,l),
(1165,-310,l),
(1074,-310,l),
(1006,-262,l),
(1026,-161,l),
(1225,0,l),
(1151,37,l),
(929,-132,l)
);
}
);
width = 1555;
},
{
layerId = "7F8FBB26-3B45-4F09-894A-43C94E46FA86";
shapes = (
{
closed = 1;
nodes = (
(354,0,l),
(513,819,l),
(801,1261,l),
(739,1261,l),
(841,849,l),
(676,0,l),
(1003,0,l),
(1184,933,l),
(1002,1460,l),
(596,1460,l),
(208,933,l),
(27,0,l)
);
},
{
closed = 1;
nodes = (
(884,303,l),
(929,537,l),
(338,537,l),
(293,303,l)
);
},
{
closed = 1;
nodes = (
(555,-320,l),
(734,-443,l),
(898,-443,l),
(937,-240,l),
(845,-240,l),
(799,-210,l),
(806,-173,l),
(1003,0,l),
(895,44,l),
(591,-133,l)
);
}
);
width = 1240;
},
{
layerId = "AD62C6D0-0611-42BF-ABA7-5ADD2541426F";
shapes = (
{
closed = 1;
nodes = (
(380,0,l),
(534,791,l),
(978,1261,l),
(886,1261,l),
(1124,821,l),
(964,0,l),
(1291,0,l),
(1472,933,l),
(1159,1460,l),
(753,1460,l),
(234,933,l),
(53,0,l)
);
},
{
closed = 1;
nodes = (
(1172,303,l),
(1217,537,l),
(364,537,l),
(319,303,l)
);
},
{
closed = 1;
nodes = (
(788,-320,l),
(972,-443,l),
(1186,-443,l),
(1225,-240,l),
(1103,-240,l),
(1057,-210,l),
(1064,-173,l),
(1291,0,l),
(1183,44,l),
(822,-146,l)
);
}
);
width = 1555;
},
{
layerId = "D91E39D8-7CC3-444E-9A45-AC8D9F6D33DB";
shapes = (
{
closed = 1;
nodes = (
(240,0,l),
(399,819,l),
(813,1370,l),
(776,1385,l),
(979,848,l),
(814,0,l),
(936,0,l),
(1103,861,l),
(880,1460,l),
(734,1460,l),
(277,861,l),
(110,0,l)
);
},
{
closed = 1;
nodes = (
(939,449,l),
(959,552,l),
(296,552,l),
(276,449,l)
);
},
{
closed = 1;
nodes = (
(626,-310,l),
(746,-400,l),
(858,-400,l),
(876,-310,l),
(795,-310,l),
(737,-262,l),
(759,-151,l),
(936,0,l),
(861,37,l),
(662,-122,l)
);
}
);
width = 1240;
}
);
unicode = 260;
},
{
glyphname = Aring;
lastChange = "2024-05-08 17:39:42 +0000";
layers = (
{
layerId = "B4DB2FCE-8F13-48AA-B57C-2BFA4BDFBB5B";
shapes = (
{
closed = 1;
nodes = (
(459,0,l),
(459,819,l),
(661,1261,l),
(579,1261,l),
(781,819,l),
(781,0,l),
(1108,0,l),
(1108,933,l),
(823,1460,l),
(417,1460,l),
(132,933,l),
(132,0,l)
);
},
{
closed = 1;
nodes = (
(930,303,l),
(930,537,l),
(339,537,l),
(339,303,l)
);
},
{
closed = 1;
nodes = (
(707,1438,l),
(867,1605,l),
(867,1775,l),
(707,1941,l),
(533,1941,l),
(373,1774,l),
(373,1604,l),
(533,1438,l)
);
},
{
closed = 1;
nodes = (
(498,1724,l),
(588,1820,l),
(652,1820,l),
(742,1724,l),
(742,1656,l),
(652,1559,l),
(588,1559,l),
(498,1656,l)
);
}
);
width = 1240;
},
{
layerId = "44BD81D2-59FE-4749-9CEB-CE9A9BBF7E1D";
shapes = (
{
closed = 1;
nodes = (
(360,0,l),
(360,821,l),
(798,1380,l),
(758,1380,l),
(1196,825,l),
(1196,0,l),
(1322,0,l),
(1322,861,l),
(851,1460,l),
(705,1460,l),
(234,861,l),
(234,0,l)
);
},
{
closed = 1;
nodes = (
(1238,449,l),
(1238,552,l),
(313,552,l),
(313,449,l)
);
},
{
closed = 1;
nodes = (
(865,1453,l),
(1005,1610,l),
(1005,1744,l),
(865,1900,l),
(691,1900,l),
(551,1743,l),
(551,1609,l),
(691,1453,l)
);
},
{
closed = 1;
nodes = (
(645,1706,l),
(738,1812,l),
(818,1812,l),
(911,1706,l),
(911,1647,l),
(818,1541,l),
(738,1541,l),
(645,1647,l)
);
}
);
width = 1555;
},
{
layerId = "C51B4FD0-B2BF-40BC-847B-12841EA1BD5E";
shapes = (
{
closed = 1;
nodes = (
(485,0,l),
(485,811,l),
(818,1261,l),
(736,1261,l),
(1069,811,l),
(1069,0,l),
(1396,0,l),
(1396,933,l),
(980,1460,l),
(574,1460,l),
(158,933,l),
(158,0,l)
);
},
{
closed = 1;
nodes = (
(1218,303,l),
(1218,537,l),
(365,537,l),
(365,303,l)
);
},
{
closed = 1;
nodes = (
(864,1436,l),
(1024,1603,l),
(1024,1773,l),
(864,1939,l),
(690,1939,l),
(530,1772,l),
(530,1602,l),
(690,1436,l)
);
},
{
closed = 1;
nodes = (
(655,1722,l),
(745,1818,l),
(809,1818,l),
(899,1722,l),
(899,1654,l),
(809,1557,l),
(745,1557,l),
(655,1654,l)
);
}
);
width = 1555;
},
{
layerId = "70AA2382-B93B-4577-8C7E-04CBB56D22D0";
shapes = (
{
closed = 1;
nodes = (
(333,0,l),
(333,829,l),
(640,1380,l),
(600,1380,l),
(907,833,l),
(907,0,l),
(1033,0,l),
(1033,861,l),
(693,1460,l),
(547,1460,l),
(207,861,l),
(207,0,l)
);
},
{
closed = 1;
nodes = (
(949,449,l),
(949,552,l),
(286,552,l),
(286,449,l)
);
},
{
closed = 1;
nodes = (
(707,1443,l),
(847,1600,l),
(847,1734,l),
(707,1890,l),
(533,1890,l),
(393,1733,l),
(393,1599,l),
(533,1443,l)
);
},
{
closed = 1;
nodes = (
(487,1696,l),
(580,1802,l),
(660,1802,l),
(753,1696,l),
(753,1637,l),
(660,1531,l),
(580,1531,l),
(487,1637,l)
);
}
);
width = 1240;
},
{
layerId = "32C81056-0B67-48FF-9423-60F4119D1D79";
shapes = (
{
closed = 1;
nodes = (
(269,0,l),
(429,821,l),
(975,1380,l),
(935,1380,l),
(1265,825,l),
(1105,0,l),
(1225,0,l),
(1392,861,l),
(1038,1460,l),
(892,1460,l),
(304,861,l),
(137,0,l)
);
},
{
closed = 1;
nodes = (
(1228,449,l),
(1248,552,l),
(323,552,l),
(303,449,l)
);
},
{
closed = 1;
nodes = (
(1050,1453,l),
(1221,1610,l),
(1247,1744,l),
(1137,1900,l),
(963,1900,l),
(793,1743,l),
(767,1609,l),
(876,1453,l)
);
},
{
closed = 1;
nodes = (
(880,1706,l),
(993,1812,l),
(1073,1812,l),
(1146,1706,l),
(1134,1647,l),
(1021,1541,l),
(941,1541,l),
(868,1647,l)
);
}
);
width = 1555;
},
{
layerId = "7F8FBB26-3B45-4F09-894A-43C94E46FA86";
shapes = (
{
closed = 1;
nodes = (
(354,0,l),
(513,819,l),
(801,1261,l),
(739,1261,l),
(841,849,l),
(676,0,l),
(1003,0,l),
(1184,933,l),
(1002,1460,l),
(596,1460,l),
(208,933,l),
(27,0,l)
);
},
{
closed = 1;
nodes = (
(884,303,l),
(929,537,l),
(338,537,l),
(293,303,l)
);
},
{
closed = 1;
nodes = (
(882,1438,l),
(1074,1605,l),
(1107,1775,l),
(979,1941,l),
(805,1941,l),
(613,1774,l),
(580,1604,l),
(708,1438,l)
);
},
{
closed = 1;
nodes = (
(728,1724,l),
(837,1820,l),
(901,1820,l),
(972,1724,l),
(959,1656,l),
(850,1559,l),
(786,1559,l),
(715,1656,l)
);
}
);
width = 1240;
},
{
layerId = "AD62C6D0-0611-42BF-ABA7-5ADD2541426F";
shapes = (
{
closed = 1;
nodes = (
(380,0,l),
(534,791,l),
(978,1261,l),
(886,1261,l),
(1124,821,l),
(964,0,l),
(1291,0,l),
(1472,933,l),
(1159,1460,l),
(753,1460,l),
(234,933,l),
(53,0,l)
);
},
{
closed = 1;
nodes = (
(1172,303,l),
(1217,537,l),
(364,537,l),
(319,303,l)
);
},
{
closed = 1;
nodes = (
(1038,1436,l),
(1231,1603,l),
(1264,1773,l),
(1136,1939,l),
(962,1939,l),
(769,1772,l),
(736,1602,l),
(864,1436,l)
);
},
{
closed = 1;
nodes = (
(885,1722,l),
(993,1818,l),
(1057,1818,l),
(1129,1722,l),
(1116,1654,l),
(1007,1557,l),
(943,1557,l),
(872,1654,l)
);
}
);
width = 1555;
},
{
layerId = "D91E39D8-7CC3-444E-9A45-AC8D9F6D33DB";
shapes = (
{
closed = 1;
nodes = (
(240,0,l),
(399,819,l),
(813,1370,l),
(776,1385,l),
(979,848,l),
(814,0,l),
(936,0,l),
(1103,861,l),
(880,1460,l),
(734,1460,l),
(277,861,l),
(110,0,l)
);
},
{
closed = 1;
nodes = (
(939,449,l),
(959,552,l),
(296,552,l),
(276,449,l)
);
},
{
closed = 1;
nodes = (
(890,1443,l),
(1061,1600,l),
(1087,1734,l),
(977,1890,l),
(803,1890,l),
(633,1733,l),
(607,1599,l),
(716,1443,l)
);
},
{
closed = 1;
nodes = (
(720,1696,l),
(833,1802,l),
(913,1802,l),
(986,1696,l),
(974,1637,l),
(861,1531,l),
(781,1531,l),
(708,1637,l)
);
}
);
width = 1240;
}
);
unicode = 197;
},
{
glyphname = Atilde;
lastChange = "2024-05-08 17:39:43 +0000";
layers = (
{
layerId = "B4DB2FCE-8F13-48AA-B57C-2BFA4BDFBB5B";
shapes = (
{
closed = 1;
nodes = (
(459,0,l),
(459,819,l),
(661,1261,l),
(579,1261,l),
(781,819,l),
(781,0,l),
(1108,0,l),
(1108,933,l),
(823,1460,l),
(417,1460,l),
(132,933,l),
(132,0,l)
);
},
{
closed = 1;
nodes = (
(930,303,l),
(930,537,l),
(339,537,l),
(339,303,l)
);
},
{
closed = 1;
nodes = (
(317,1887,l),
(164,1744,l),
(164,1611,l),
(367,1611,l),
(367,1672,l),
(427,1734,l),
(495,1734,l),
(635,1611,l),
(923,1611,l),
(1076,1754,l),
(1076,1887,l),
(873,1887,l),
(873,1816,l),
(813,1764,l),
(745,1764,l),
(605,1887,l)
);
}
);
width = 1240;
},
{
layerId = "44BD81D2-59FE-4749-9CEB-CE9A9BBF7E1D";
shapes = (
{
closed = 1;
nodes = (
(360,0,l),
(360,821,l),
(798,1380,l),
(758,1380,l),
(1196,825,l),
(1196,0,l),
(1322,0,l),
(1322,861,l),
(851,1460,l),
(705,1460,l),
(234,861,l),
(234,0,l)
);
},
{
closed = 1;
nodes = (
(1238,449,l),
(1238,552,l),
(313,552,l),
(313,449,l)
);
},
{
closed = 1;
nodes = (
(480,1893,l),
(340,1765,l),
(340,1643,l),
(430,1643,l),
(430,1734,l),
(518,1805,l),
(639,1805,l),
(875,1643,l),
(1075,1643,l),
(1215,1771,l),
(1215,1893,l),
(1125,1893,l),
(1125,1802,l),
(1037,1731,l),
(916,1731,l),
(680,1893,l)
);
}
);
width = 1555;
},
{
layerId = "C51B4FD0-B2BF-40BC-847B-12841EA1BD5E";
shapes = (
{
closed = 1;
nodes = (
(485,0,l),
(485,811,l),
(818,1261,l),
(736,1261,l),
(1069,811,l),
(1069,0,l),
(1396,0,l),
(1396,933,l),
(980,1460,l),
(574,1460,l),
(158,933,l),
(158,0,l)
);
},
{
closed = 1;
nodes = (
(1218,303,l),
(1218,537,l),
(365,537,l),
(365,303,l)
);
},
{
closed = 1;
nodes = (
(464,1911,l),
(311,1758,l),
(311,1615,l),
(514,1615,l),
(514,1686,l),
(574,1758,l),
(652,1758,l),
(792,1615,l),
(1090,1615,l),
(1243,1768,l),
(1243,1911,l),
(1040,1911,l),
(1040,1830,l),
(980,1768,l),
(902,1768,l),
(762,1911,l)
);
}
);
width = 1555;
},
{
layerId = "70AA2382-B93B-4577-8C7E-04CBB56D22D0";
shapes = (
{
closed = 1;
nodes = (
(333,0,l),
(333,829,l),
(640,1380,l),
(600,1380,l),
(907,833,l),
(907,0,l),
(1033,0,l),
(1033,861,l),
(693,1460,l),
(547,1460,l),
(207,861,l),
(207,0,l)
);
},
{
closed = 1;
nodes = (
(949,449,l),
(949,552,l),
(286,552,l),
(286,449,l)
);
},
{
closed = 1;
nodes = (
(393,1893,l),
(273,1765,l),
(273,1643,l),
(363,1643,l),
(363,1734,l),
(431,1805,l),
(522,1805,l),
(677,1643,l),
(847,1643,l),
(967,1771,l),
(967,1893,l),
(877,1893,l),
(877,1802,l),
(809,1731,l),
(718,1731,l),
(563,1893,l)
);
}
);
width = 1240;
},
{
layerId = "32C81056-0B67-48FF-9423-60F4119D1D79";
shapes = (
{
closed = 1;
nodes = (
(269,0,l),
(429,821,l),
(975,1380,l),
(935,1380,l),
(1265,825,l),
(1105,0,l),
(1225,0,l),
(1392,861,l),
(1038,1460,l),
(892,1460,l),
(304,861,l),
(137,0,l)
);
},
{
closed = 1;
nodes = (
(1228,449,l),
(1248,552,l),
(323,552,l),
(303,449,l)
);
},
{
closed = 1;
nodes = (
(751,1893,l),
(586,1765,l),
(562,1643,l),
(652,1643,l),
(670,1734,l),
(772,1805,l),
(893,1805,l),
(1097,1643,l),
(1297,1643,l),
(1462,1771,l),
(1486,1893,l),
(1396,1893,l),
(1378,1802,l),
(1276,1731,l),
(1155,1731,l),
(951,1893,l)
);
}
);
width = 1555;
},
{
layerId = "7F8FBB26-3B45-4F09-894A-43C94E46FA86";
shapes = (
{
closed = 1;
nodes = (
(354,0,l),
(513,819,l),
(801,1261,l),
(739,1261,l),
(841,849,l),
(676,0,l),
(1003,0,l),
(1184,933,l),
(1002,1460,l),
(596,1460,l),
(208,933,l),
(27,0,l)
);
},
{
closed = 1;
nodes = (
(884,303,l),
(929,537,l),
(338,537,l),
(293,303,l)
);
},
{
closed = 1;
nodes = (
(579,1887,l),
(398,1744,l),
(372,1611,l),
(575,1611,l),
(587,1672,l),
(659,1734,l),
(727,1734,l),
(843,1611,l),
(1131,1611,l),
(1312,1754,l),
(1338,1887,l),
(1135,1887,l),
(1121,1816,l),
(1051,1764,l),
(983,1764,l),
(867,1887,l)
);
}
);
width = 1240;
},
{
layerId = "AD62C6D0-0611-42BF-ABA7-5ADD2541426F";
shapes = (
{
closed = 1;
nodes = (
(380,0,l),
(534,791,l),
(978,1261,l),
(886,1261,l),
(1124,821,l),
(964,0,l),
(1291,0,l),
(1472,933,l),
(1159,1460,l),
(753,1460,l),
(234,933,l),
(53,0,l)
);
},
{
closed = 1;
nodes = (
(1172,303,l),
(1217,537,l),
(364,537,l),
(319,303,l)
);
},
{
closed = 1;
nodes = (
(730,1911,l),
(548,1758,l),
(520,1615,l),
(723,1615,l),
(737,1686,l),
(811,1758,l),
(889,1758,l),
(1001,1615,l),
(1299,1615,l),
(1482,1768,l),
(1509,1911,l),
(1306,1911,l),
(1291,1830,l),
(1219,1768,l),
(1141,1768,l),
(1028,1911,l)
);
}
);
width = 1555;
},
{
layerId = "D91E39D8-7CC3-444E-9A45-AC8D9F6D33DB";
shapes = (
{
closed = 1;
nodes = (
(240,0,l),
(399,819,l),
(813,1370,l),
(776,1385,l),
(979,848,l),
(814,0,l),
(936,0,l),
(1103,861,l),
(880,1460,l),
(734,1460,l),
(277,861,l),
(110,0,l)
);
},
{
closed = 1;
nodes = (
(939,449,l),
(959,552,l),
(296,552,l),
(276,449,l)
);
},
{
closed = 1;
nodes = (
(664,1893,l),
(519,1765,l),
(495,1643,l),
(585,1643,l),
(603,1734,l),
(685,1805,l),
(776,1805,l),
(899,1643,l),
(1069,1643,l),
(1214,1771,l),
(1238,1893,l),
(1148,1893,l),
(1130,1802,l),
(1048,1731,l),
(957,1731,l),
(834,1893,l)
);
}
);
width = 1240;
}
);
unicode = 195;
},
{
glyphname = AE;
lastChange = "2024-05-08 17:39:43 +0000";
layers = (
{
layerId = "B4DB2FCE-8F13-48AA-B57C-2BFA4BDFBB5B";
shapes = (
{
closed = 1;
nodes = (
(911,0,l),
(911,1460,l),
(612,1460,l),
(612,0,l)
);
},
{
closed = 1;
nodes = (
(371,0,l),
(371,819,l),
(562,1189,l),
(742,1189,l),
(742,1460,l),
(376,1460,l),
(72,933,l),
(72,0,l)
);
},
{
closed = 1;
nodes = (
(734,303,l),
(734,537,l),
(260,537,l),
(260,303,l)
);
},
{
closed = 1;
nodes = (
(1166,0,l),
(1196,271,l),
(772,271,l),
(772,0,l)
);
},
{
closed = 1;
nodes = (
(1101,609,l),
(1101,866,l),
(772,866,l),
(772,609,l)
);
},
{
closed = 1;
nodes = (
(1176,1189,l),
(1146,1460,l),
(772,1460,l),
(772,1189,l)
);
}
);
width = 1240;
},
{
layerId = "44BD81D2-59FE-4749-9CEB-CE9A9BBF7E1D";
shapes = (
{
closed = 1;
nodes = (
(911,0,l),
(911,1460,l),
(785,1460,l),
(785,0,l)
);
},
{
closed = 1;
nodes = (
(275,0,l),
(275,821,l),
(636,1350,l),
(850,1350,l),
(850,1460,l),
(570,1460,l),
(149,861,l),
(149,0,l)
);
},
{
closed = 1;
nodes = (
(833,449,l),
(833,552,l),
(228,552,l),
(228,449,l)
);
},
{
closed = 1;
nodes = (
(1417,0,l),
(1437,110,l),
(868,110,l),
(868,0,l)
);
},
{
closed = 1;
nodes = (
(1334,674,l),
(1334,779,l),
(868,779,l),
(868,674,l)
);
},
{
closed = 1;
nodes = (
(1407,1350,l),
(1387,1460,l),
(868,1460,l),
(868,1350,l)
);
}
);
width = 1555;
},
{
layerId = "C51B4FD0-B2BF-40BC-847B-12841EA1BD5E";
shapes = (
{
closed = 1;
nodes = (
(1059,0,l),
(1059,1460,l),
(730,1460,l),
(730,0,l)
);
},
{
closed = 1;
nodes = (
(418,0,l),
(418,811,l),
(645,1189,l),
(902,1189,l),
(902,1460,l),
(455,1460,l),
(89,933,l),
(89,0,l)
);
},
{
closed = 1;
nodes = (
(825,303,l),
(825,537,l),
(296,537,l),
(296,303,l)
);
},
{
closed = 1;
nodes = (
(1471,0,l),
(1501,271,l),
(934,271,l),
(934,0,l)
);
},
{
closed = 1;
nodes = (
(1406,609,l),
(1406,866,l),
(934,866,l),
(934,609,l)
);
},
{
closed = 1;
nodes = (
(1481,1189,l),
(1451,1460,l),
(934,1460,l),
(934,1189,l)
);
}
);
width = 1555;
},
{
layerId = "70AA2382-B93B-4577-8C7E-04CBB56D22D0";
shapes = (
{
closed = 1;
nodes = (
(770,0,l),
(770,1460,l),
(644,1460,l),
(644,0,l)
);
},
{
closed = 1;
nodes = (
(243,0,l),
(243,829,l),
(510,1350,l),
(698,1350,l),
(698,1460,l),
(437,1460,l),
(117,861,l),
(117,0,l)
);
},
{
closed = 1;
nodes = (
(709,449,l),
(709,552,l),
(196,552,l),
(196,449,l)
);
},
{
closed = 1;
nodes = (
(1128,0,l),
(1148,110,l),
(729,110,l),
(729,0,l)
);
},
{
closed = 1;
nodes = (
(1045,674,l),
(1045,779,l),
(729,779,l),
(729,674,l)
);
},
{
closed = 1;
nodes = (
(1118,1350,l),
(1098,1460,l),
(729,1460,l),
(729,1350,l)
);
}
);
width = 1240;
},
{
layerId = "32C81056-0B67-48FF-9423-60F4119D1D79";
shapes = (
{
closed = 1;
nodes = (
(814,0,l),
(1098,1460,l),
(972,1460,l),
(688,0,l)
);
},
{
closed = 1;
nodes = (
(178,0,l),
(338,821,l),
(801,1350,l),
(1015,1350,l),
(1037,1460,l),
(757,1460,l),
(219,861,l),
(52,0,l)
);
},
{
closed = 1;
nodes = (
(823,449,l),
(843,552,l),
(238,552,l),
(218,449,l)
);
},
{
closed = 1;
nodes = (
(1320,0,l),
(1361,110,l),
(792,110,l),
(771,0,l)
);
},
{
closed = 1;
nodes = (
(1368,674,l),
(1388,779,l),
(922,779,l),
(902,674,l)
);
},
{
closed = 1;
nodes = (
(1572,1350,l),
(1574,1460,l),
(1055,1460,l),
(1033,1350,l)
);
}
);
width = 1555;
},
{
layerId = "7F8FBB26-3B45-4F09-894A-43C94E46FA86";
shapes = (
{
closed = 1;
nodes = (
(806,0,l),
(1090,1460,l),
(791,1460,l),
(507,0,l)
);
},
{
closed = 1;
nodes = (
(266,0,l),
(425,819,l),
(688,1189,l),
(868,1189,l),
(921,1460,l),
(555,1460,l),
(148,933,l),
(-33,0,l)
);
},
{
closed = 1;
nodes = (
(688,303,l),
(733,537,l),
(259,537,l),
(214,303,l)
);
},
{
closed = 1;
nodes = (
(1061,0,l),
(1144,271,l),
(720,271,l),
(667,0,l)
);
},
{
closed = 1;
nodes = (
(1114,609,l),
(1164,866,l),
(835,866,l),
(785,609,l)
);
},
{
closed = 1;
nodes = (
(1302,1189,l),
(1325,1460,l),
(951,1460,l),
(898,1189,l)
);
}
);
width = 1240;
},
{
layerId = "AD62C6D0-0611-42BF-ABA7-5ADD2541426F";
shapes = (
{
closed = 1;
nodes = (
(954,0,l),
(1238,1460,l),
(909,1460,l),
(625,0,l)
);
},
{
closed = 1;
nodes = (
(313,0,l),
(471,811,l),
(771,1189,l),
(1028,1189,l),
(1081,1460,l),
(634,1460,l),
(165,933,l),
(-16,0,l)
);
},
{
closed = 1;
nodes = (
(779,303,l),
(824,537,l),
(295,537,l),
(250,303,l)
);
},
{
closed = 1;
nodes = (
(1366,0,l),
(1449,271,l),
(882,271,l),
(829,0,l)
);
},
{
closed = 1;
nodes = (
(1419,609,l),
(1469,866,l),
(997,866,l),
(947,609,l)
);
},
{
closed = 1;
nodes = (
(1607,1189,l),
(1630,1460,l),
(1113,1460,l),
(1060,1189,l)
);
}
);
width = 1555;
},
{
layerId = "D91E39D8-7CC3-444E-9A45-AC8D9F6D33DB";
shapes = (
{
closed = 1;
nodes = (
(673,0,l),
(957,1460,l),
(831,1460,l),
(547,0,l)
);
},
{
closed = 1;
nodes = (
(146,0,l),
(307,829,l),
(675,1350,l),
(863,1350,l),
(885,1460,l),
(624,1460,l),
(187,861,l),
(20,0,l)
);
},
{
closed = 1;
nodes = (
(699,449,l),
(719,552,l),
(206,552,l),
(186,449,l)
);
},
{
closed = 1;
nodes = (
(1031,0,l),
(1072,110,l),
(653,110,l),
(632,0,l)
);
},
{
closed = 1;
nodes = (
(1079,674,l),
(1099,779,l),
(783,779,l),
(763,674,l)
);
},
{
closed = 1;
nodes = (
(1283,1350,l),
(1285,1460,l),
(916,1460,l),
(894,1350,l)
);
}
);
width = 1240;
}
);
unicode = 198;
},
{
glyphname = AEacute;
lastChange = "2024-05-08 17:39:43 +0000";
layers = (
{
layerId = "B4DB2FCE-8F13-48AA-B57C-2BFA4BDFBB5B";
shapes = (
{
closed = 1;
nodes = (
(911,0,l),
(911,1460,l),
(612,1460,l),
(612,0,l)
);
},
{
closed = 1;
nodes = (
(371,0,l),
(371,819,l),
(562,1189,l),
(742,1189,l),
(742,1460,l),
(376,1460,l),
(72,933,l),
(72,0,l)
);
},
{
closed = 1;
nodes = (
(734,303,l),
(734,537,l),
(260,537,l),
(260,303,l)
);
},
{
closed = 1;
nodes = (
(1166,0,l),
(1196,271,l),
(772,271,l),
(772,0,l)
);
},
{
closed = 1;
nodes = (
(1101,609,l),
(1101,866,l),
(772,866,l),
(772,609,l)
);
},
{
closed = 1;
nodes = (
(1176,1189,l),
(1146,1460,l),
(772,1460,l),
(772,1189,l)
);
},
{
closed = 1;
nodes = (
(611,1619.05,l),
(794,1877.386,l),
(1119,1877.386,l),
(870,1619.05,l)
);
}
);
width = 1240;
},
{
layerId = "44BD81D2-59FE-4749-9CEB-CE9A9BBF7E1D";
shapes = (
{
closed = 1;
nodes = (
(911,0,l),
(911,1460,l),
(785,1460,l),
(785,0,l)
);
},
{
closed = 1;
nodes = (
(275,0,l),
(275,821,l),
(636,1350,l),
(850,1350,l),
(850,1460,l),
(570,1460,l),
(149,861,l),
(149,0,l)
);
},
{
closed = 1;
nodes = (
(833,449,l),
(833,552,l),
(228,552,l),
(228,449,l)
);
},
{
closed = 1;
nodes = (
(1417,0,l),
(1437,110,l),
(868,110,l),
(868,0,l)
);
},
{
closed = 1;
nodes = (
(1334,674,l),
(1334,779,l),
(868,779,l),
(868,674,l)
);
},
{
closed = 1;
nodes = (
(1407,1350,l),
(1387,1460,l),
(868,1460,l),
(868,1350,l)
);
},
{
closed = 1;
nodes = (
(933,1652,l),
(1205,1884,l),
(1358,1884,l),
(1052,1652,l)
);
}
);
width = 1555;
},
{
layerId = "C51B4FD0-B2BF-40BC-847B-12841EA1BD5E";
shapes = (
{
closed = 1;
nodes = (
(1059,0,l),
(1059,1460,l),
(730,1460,l),
(730,0,l)
);
},
{
closed = 1;
nodes = (
(418,0,l),
(418,811,l),
(645,1189,l),
(902,1189,l),
(902,1460,l),
(455,1460,l),
(89,933,l),
(89,0,l)
);
},
{
closed = 1;
nodes = (
(825,303,l),
(825,537,l),
(296,537,l),
(296,303,l)
);
},
{
closed = 1;
nodes = (
(1471,0,l),
(1501,271,l),
(934,271,l),
(934,0,l)
);
},
{
closed = 1;
nodes = (
(1406,609,l),
(1406,866,l),
(934,866,l),
(934,609,l)
);
},
{
closed = 1;
nodes = (
(1481,1189,l),
(1451,1460,l),
(934,1460,l),
(934,1189,l)
);
},
{
closed = 1;
nodes = (
(769,1619,l),
(986,1918,l),
(1339,1918,l),
(1048,1619,l)
);
}
);
width = 1555;
},
{
layerId = "70AA2382-B93B-4577-8C7E-04CBB56D22D0";
shapes = (
{
closed = 1;
nodes = (
(770,0,l),
(770,1460,l),
(644,1460,l),
(644,0,l)
);
},
{
closed = 1;
nodes = (
(243,0,l),
(243,829,l),
(510,1350,l),
(698,1350,l),
(698,1460,l),
(437,1460,l),
(117,861,l),
(117,0,l)
);
},
{
closed = 1;
nodes = (
(709,449,l),
(709,552,l),
(196,552,l),
(196,449,l)
);
},
{
closed = 1;
nodes = (
(1128,0,l),
(1148,110,l),
(729,110,l),
(729,0,l)
);
},
{
closed = 1;
nodes = (
(1045,674,l),
(1045,779,l),
(729,779,l),
(729,674,l)
);
},
{
closed = 1;
nodes = (
(1118,1350,l),
(1098,1460,l),
(729,1460,l),
(729,1350,l)
);
},
{
closed = 1;
nodes = (
(716,1650.191,l),
(938,1883.236,l),
(1078,1883.236,l),
(825,1650.191,l)
);
}
);
width = 1240;
},
{
layerId = "32C81056-0B67-48FF-9423-60F4119D1D79";
shapes = (
{
closed = 1;
nodes = (
(814,0,l),
(1098,1460,l),
(972,1460,l),
(688,0,l)
);
},
{
closed = 1;
nodes = (
(178,0,l),
(338,821,l),
(801,1350,l),
(1015,1350,l),
(1037,1460,l),
(757,1460,l),
(219,861,l),
(52,0,l)
);
},
{
closed = 1;
nodes = (
(823,449,l),
(843,552,l),
(238,552,l),
(218,449,l)
);
},
{
closed = 1;
nodes = (
(1320,0,l),
(1361,110,l),
(792,110,l),
(771,0,l)
);
},
{
closed = 1;
nodes = (
(1368,674,l),
(1388,779,l),
(922,779,l),
(902,674,l)
);
},
{
closed = 1;
nodes = (
(1572,1350,l),
(1574,1460,l),
(1055,1460,l),
(1033,1350,l)
);
},
{
closed = 1;
nodes = (
(1157,1652,l),
(1474,1884,l),
(1627,1884,l),
(1276,1652,l)
);
}
);
width = 1555;
},
{
layerId = "7F8FBB26-3B45-4F09-894A-43C94E46FA86";
shapes = (
{
closed = 1;
nodes = (
(806,0,l),
(1090,1460,l),
(791,1460,l),
(507,0,l)
);
},
{
closed = 1;
nodes = (
(266,0,l),
(425,819,l),
(688,1189,l),
(868,1189,l),
(921,1460,l),
(555,1460,l),
(148,933,l),
(-33,0,l)
);
},
{
closed = 1;
nodes = (
(688,303,l),
(733,537,l),
(259,537,l),
(214,303,l)
);
},
{
closed = 1;
nodes = (
(1061,0,l),
(1144,271,l),
(720,271,l),
(667,0,l)
);
},
{
closed = 1;
nodes = (
(1114,609,l),
(1164,866,l),
(835,866,l),
(785,609,l)
);
},
{
closed = 1;
nodes = (
(1302,1189,l),
(1325,1460,l),
(951,1460,l),
(898,1189,l)
);
},
{
closed = 1;
nodes = (
(821,1619,l),
(1054,1877,l),
(1379,1877,l),
(1080,1619,l)
);
}
);
width = 1240;
},
{
layerId = "AD62C6D0-0611-42BF-ABA7-5ADD2541426F";
shapes = (
{
closed = 1;
nodes = (
(954,0,l),
(1238,1460,l),
(909,1460,l),
(625,0,l)
);
},
{
closed = 1;
nodes = (
(313,0,l),
(471,811,l),
(771,1189,l),
(1028,1189,l),
(1081,1460,l),
(634,1460,l),
(165,933,l),
(-16,0,l)
);
},
{
closed = 1;
nodes = (
(779,303,l),
(824,537,l),
(295,537,l),
(250,303,l)
);
},
{
closed = 1;
nodes = (
(1366,0,l),
(1449,271,l),
(882,271,l),
(829,0,l)
);
},
{
closed = 1;
nodes = (
(1419,609,l),
(1469,866,l),
(997,866,l),
(947,609,l)
);
},
{
closed = 1;
nodes = (
(1607,1189,l),
(1630,1460,l),
(1113,1460,l),
(1060,1189,l)
);
},
{
closed = 1;
nodes = (
(979,1619,l),
(1254,1918,l),
(1607,1918,l),
(1258,1619,l)
);
}
);
width = 1555;
},
{
layerId = "D91E39D8-7CC3-444E-9A45-AC8D9F6D33DB";
shapes = (
{
closed = 1;
nodes = (
(673,0,l),
(957,1460,l),
(831,1460,l),
(547,0,l)
);
},
{
closed = 1;
nodes = (
(146,0,l),
(307,829,l),
(675,1350,l),
(863,1350,l),
(885,1460,l),
(624,1460,l),
(187,861,l),
(20,0,l)
);
},
{
closed = 1;
nodes = (
(699,449,l),
(719,552,l),
(206,552,l),
(186,449,l)
);
},
{
closed = 1;
nodes = (
(1031,0,l),
(1072,110,l),
(653,110,l),
(632,0,l)
);
},
{
closed = 1;
nodes = (
(1079,674,l),
(1099,779,l),
(783,779,l),
(763,674,l)
);
},
{
closed = 1;
nodes = (
(1283,1350,l),
(1285,1460,l),
(916,1460,l),
(894,1350,l)
);
},
{
closed = 1;
nodes = (
(940,1650,l),
(1207,1883,l),
(1347,1883,l),
(1049,1650,l)
);
}
);
width = 1240;
}
);
unicode = 508;
},
{
glyphname = B;
lastChange = "2024-05-08 17:39:42 +0000";
layers = (
{
layerId = "70AA2382-B93B-4577-8C7E-04CBB56D22D0";
shapes = (
{
closed = 1;
nodes = (
(793,0,l),
(1090,268,l),
(1090,526,l),
(793,800,l),
(793,716,l),
(1030,988,l),
(1030,1192,l),
(793,1460,l),
(259,1460,l),
(259,1360,l),
(734,1360,l),
(904,1153,l),
(904,1023,l),
(734,807,l),
(259,807,l),
(259,707,l),
(734,707,l),
(964,491,l),
(964,307,l),
(734,100,l),
(259,100,l),
(259,0,l)
);
},
{
closed = 1;
nodes = (
(343,0,l),
(343,1460,l),
(217,1460,l),
(217,0,l)
);
}
);
width = 1240;
},
{
layerId = "32C81056-0B67-48FF-9423-60F4119D1D79";
shapes = (
{
closed = 1;
nodes = (
(961,0,l),
(1335,268,l),
(1385,526,l),
(1117,800,l),
(1100,716,l),
(1415,988,l),
(1455,1192,l),
(1245,1460,l),
(481,1460,l),
(461,1360,l),
(1170,1360,l),
(1323,1163,l),
(1296,1023,l),
(1043,807,l),
(354,807,l),
(334,707,l),
(1043,707,l),
(1254,501,l),
(1217,307,l),
(915,100,l),
(216,100,l),
(197,0,l)
);
},
{
closed = 1;
nodes = (
(281,0,l),
(565,1460,l),
(439,1460,l),
(155,0,l)
);
}
);
width = 1555;
},
{
layerId = "7F8FBB26-3B45-4F09-894A-43C94E46FA86";
shapes = (
{
closed = 1;
nodes = (
(718,0,l),
(1117,280,l),
(1177,584,l),
(878,836,l),
(849,688,l),
(1186,889,l),
(1245,1193,l),
(1002,1460,l),
(437,1460,l),
(390,1219,l),
(820,1219,l),
(948,1079,l),
(931,993,l),
(736,863,l),
(321,863,l),
(274,622,l),
(699,622,l),
(831,480,l),
(815,394,l),
(615,241,l),
(200,241,l),
(153,0,l)
);
},
{
closed = 1;
nodes = (
(359,0,l),
(643,1460,l),
(306,1460,l),
(22,0,l)
);
}
);
width = 1240;
},
{
layerId = "B4DB2FCE-8F13-48AA-B57C-2BFA4BDFBB5B";
shapes = (
{
closed = 1;
nodes = (
(823,0,l),
(1168,280,l),
(1168,584,l),
(820,836,l),
(820,688,l),
(1118,889,l),
(1118,1193,l),
(823,1460,l),
(258,1460,l),
(258,1219,l),
(683,1219,l),
(843,1079,l),
(843,1003,l),
(683,863,l),
(258,863,l),
(258,622,l),
(683,622,l),
(843,470,l),
(843,394,l),
(683,241,l),
(258,241,l),
(258,0,l)
);
},
{
closed = 1;
nodes = (
(464,0,l),
(464,1460,l),
(127,1460,l),
(127,0,l)
);
}
);
width = 1240;
},
{
layerId = "44BD81D2-59FE-4749-9CEB-CE9A9BBF7E1D";
shapes = (
{
closed = 1;
nodes = (
(1058,0,l),
(1380,268,l),
(1380,526,l),
(1058,800,l),
(1058,716,l),
(1320,988,l),
(1320,1192,l),
(1058,1460,l),
(294,1460,l),
(294,1360,l),
(993,1360,l),
(1194,1153,l),
(1194,1023,l),
(993,807,l),
(294,807,l),
(294,707,l),
(993,707,l),
(1254,491,l),
(1254,307,l),
(993,100,l),
(294,100,l),
(294,0,l)
);
},
{
closed = 1;
nodes = (
(378,0,l),
(378,1460,l),
(252,1460,l),
(252,0,l)
);
}
);
width = 1555;
},
{
layerId = "C51B4FD0-B2BF-40BC-847B-12841EA1BD5E";
shapes = (
{
closed = 1;
nodes = (
(1091,0,l),
(1461,280,l),
(1461,584,l),
(1088,836,l),
(1088,688,l),
(1411,889,l),
(1411,1193,l),
(1091,1460,l),
(296,1460,l),
(296,1219,l),
(945,1219,l),
(1136,1079,l),
(1136,1003,l),
(945,863,l),
(296,863,l),
(296,622,l),
(945,622,l),
(1136,470,l),
(1136,394,l),
(945,241,l),
(296,241,l),
(296,0,l)
);
},
{
closed = 1;
nodes = (
(502,0,l),
(502,1460,l),
(165,1460,l),
(165,0,l)
);
}
);
width = 1555;
},
{
layerId = "AD62C6D0-0611-42BF-ABA7-5ADD2541426F";
shapes = (
{
closed = 1;
nodes = (
(986,0,l),
(1410,280,l),
(1470,584,l),
(1146,836,l),
(1117,688,l),
(1479,889,l),
(1538,1193,l),
(1270,1460,l),
(475,1460,l),
(428,1219,l),
(1097,1219,l),
(1243,1089,l),
(1228,1013,l),
(988,863,l),
(359,863,l),
(312,622,l),
(981,622,l),
(1124,480,l),
(1110,404,l),
(867,241,l),
(238,241,l),
(191,0,l)
);
},
{
closed = 1;
nodes = (
(397,0,l),
(681,1460,l),
(344,1460,l),
(60,0,l)
);
}
);
width = 1555;
},
{
layerId = "D91E39D8-7CC3-444E-9A45-AC8D9F6D33DB";
shapes = (
{
closed = 1;
nodes = (
(696,0,l),
(1045,268,l),
(1095,526,l),
(852,800,l),
(835,716,l),
(1125,988,l),
(1165,1192,l),
(980,1460,l),
(446,1460,l),
(426,1360,l),
(901,1360,l),
(1031,1153,l),
(1008,1033,l),
(779,807,l),
(319,807,l),
(299,707,l),
(774,707,l),
(962,491,l),
(929,317,l),
(641,100,l),
(181,100,l),
(162,0,l)
);
},
{
closed = 1;
nodes = (
(246,0,l),
(530,1460,l),
(404,1460,l),
(120,0,l)
);
}
);
width = 1240;
}
);
unicode = 66;
},
{
glyphname = C;
lastChange = "2024-05-08 17:39:42 +0000";
layers = (
{
layerId = "70AA2382-B93B-4577-8C7E-04CBB56D22D0";
shapes = (
{
closed = 1;
nodes = (
(1070,0,l),
(1090,110,l),
(580,110,l),
(256,570,l),
(256,900,l),
(580,1350,l),
(1090,1350,l),
(1070,1460,l),
(510,1460,l),
(130,933,l),
(130,537,l),
(510,0,l)
);
}
);
width = 1240;
},
{
layerId = "32C81056-0B67-48FF-9423-60F4119D1D79";
shapes = (
{
closed = 1;
nodes = (
(1219,0,l),
(1260,110,l),
(660,110,l),
(329,573,l),
(389,881,l),
(917,1350,l),
(1501,1350,l),
(1503,1460,l),
(858,1460,l),
(273,933,l),
(196,537,l),
(574,0,l)
);
}
);
width = 1555;
},
{
layerId = "7F8FBB26-3B45-4F09-894A-43C94E46FA86";
shapes = (
{
closed = 1;
nodes = (
(977,0,l),
(1076,301,l),
(541,301,l),
(415,632,l),
(453,828,l),
(717,1159,l),
(1242,1159,l),
(1261,1460,l),
(596,1460,l),
(148,932,l),
(70,528,l),
(312,0,l)
);
}
);
width = 1240;
},
{
layerId = "B4DB2FCE-8F13-48AA-B57C-2BFA4BDFBB5B";
shapes = (
{
closed = 1;
nodes = (
(1082,0,l),
(1122,301,l),
(587,301,l),
(397,642,l),
(397,818,l),
(587,1159,l),
(1122,1159,l),
(1082,1460,l),
(417,1460,l),
(72,932,l),
(72,528,l),
(417,0,l)
);
}
);
width = 1240;
},
{
layerId = "44BD81D2-59FE-4749-9CEB-CE9A9BBF7E1D";
shapes = (
{
closed = 1;
nodes = (
(1316,0,l),
(1336,110,l),
(736,110,l),
(315,573,l),
(315,897,l),
(736,1350,l),
(1336,1350,l),
(1316,1460,l),
(671,1460,l),
(189,933,l),
(189,537,l),
(671,0,l)
);
}
);
width = 1555;
},
{
layerId = "C51B4FD0-B2BF-40BC-847B-12841EA1BD5E";
shapes = (
{
closed = 1;
nodes = (
(1318,0,l),
(1358,301,l),
(733,301,l),
(446,645,l),
(446,815,l),
(733,1159,l),
(1358,1159,l),
(1318,1460,l),
(568,1460,l),
(121,932,l),
(121,528,l),
(568,0,l)
);
}
);
width = 1555;
},
{
layerId = "AD62C6D0-0611-42BF-ABA7-5ADD2541426F";
shapes = (
{
closed = 1;
nodes = (
(1213,0,l),
(1312,301,l),
(677,301,l),
(464,635,l),
(496,795,l),
(863,1159,l),
(1478,1159,l),
(1497,1460,l),
(747,1460,l),
(197,932,l),
(119,528,l),
(463,0,l)
);
}
);
width = 1555;
},
{
layerId = "D91E39D8-7CC3-444E-9A45-AC8D9F6D33DB";
shapes = (
{
closed = 1;
nodes = (
(973,0,l),
(1014,110,l),
(499,110,l),
(269,565,l),
(331,885,l),
(760,1350,l),
(1255,1350,l),
(1257,1460,l),
(697,1460,l),
(214,933,l),
(137,537,l),
(413,0,l)
);
}
);
width = 1240;
}
);
unicode = 67;
},
{
glyphname = Cacute;
lastChange = "2024-05-08 17:39:43 +0000";
layers = (
{
layerId = "B4DB2FCE-8F13-48AA-B57C-2BFA4BDFBB5B";
shapes = (
{
closed = 1;
nodes = (
(1082,0,l),
(1122,301,l),
(587,301,l),
(397,642,l),
(397,818,l),
(587,1159,l),
(1122,1159,l),
(1082,1460,l),
(417,1460,l),
(72,932,l),
(72,528,l),
(417,0,l)
);
},
{
closed = 1;
nodes = (
(575,1619.05,l),
(758,1877.386,l),
(1083,1877.386,l),
(834,1619.05,l)
);
}
);
width = 1240;
},
{
layerId = "44BD81D2-59FE-4749-9CEB-CE9A9BBF7E1D";
shapes = (
{
closed = 1;
nodes = (
(1316,0,l),
(1336,110,l),
(736,110,l),
(315,573,l),
(315,897,l),
(736,1350,l),
(1336,1350,l),
(1316,1460,l),
(671,1460,l),
(189,933,l),
(189,537,l),
(671,0,l)
);
},
{
closed = 1;
nodes = (
(826,1652,l),
(1098,1884,l),
(1251,1884,l),
(945,1652,l)
);
}
);
width = 1555;
},
{
layerId = "C51B4FD0-B2BF-40BC-847B-12841EA1BD5E";
shapes = (
{
closed = 1;
nodes = (
(1318,0,l),
(1358,301,l),
(733,301,l),
(446,645,l),
(446,815,l),
(733,1159,l),
(1358,1159,l),
(1318,1460,l),
(568,1460,l),
(121,932,l),
(121,528,l),
(568,0,l)
);
},
{
closed = 1;
nodes = (
(740,1619,l),
(957,1918,l),
(1310,1918,l),
(1019,1619,l)
);
}
);
width = 1555;
},
{
layerId = "70AA2382-B93B-4577-8C7E-04CBB56D22D0";
shapes = (
{
closed = 1;
nodes = (
(1070,0,l),
(1090,110,l),
(580,110,l),
(256,570,l),
(256,900,l),
(580,1350,l),
(1090,1350,l),
(1070,1460,l),
(510,1460,l),
(130,933,l),
(130,537,l),
(510,0,l)
);
},
{
closed = 1;
nodes = (
(636,1650.191,l),
(858,1883.236,l),
(998,1883.236,l),
(745,1650.191,l)
);
}
);
width = 1240;
},
{
layerId = "32C81056-0B67-48FF-9423-60F4119D1D79";
shapes = (
{
closed = 1;
nodes = (
(1219,0,l),
(1260,110,l),
(660,110,l),
(329,573,l),
(389,881,l),
(917,1350,l),
(1501,1350,l),
(1503,1460,l),
(858,1460,l),
(273,933,l),
(196,537,l),
(574,0,l)
);
},
{
closed = 1;
nodes = (
(1050,1652,l),
(1367,1884,l),
(1520,1884,l),
(1169,1652,l)
);
}
);
width = 1555;
},
{
layerId = "7F8FBB26-3B45-4F09-894A-43C94E46FA86";
shapes = (
{
closed = 1;
nodes = (
(977,0,l),
(1076,301,l),
(541,301,l),
(415,632,l),
(453,828,l),
(717,1159,l),
(1242,1159,l),
(1261,1460,l),
(596,1460,l),
(148,932,l),
(70,528,l),
(312,0,l)
);
},
{
closed = 1;
nodes = (
(785,1619,l),
(1018,1877,l),
(1343,1877,l),
(1044,1619,l)
);
}
);
width = 1240;
},
{
layerId = "AD62C6D0-0611-42BF-ABA7-5ADD2541426F";
shapes = (
{
closed = 1;
nodes = (
(1213,0,l),
(1312,301,l),
(677,301,l),
(464,635,l),
(496,795,l),
(863,1159,l),
(1478,1159,l),
(1497,1460,l),
(747,1460,l),
(197,932,l),
(119,528,l),
(463,0,l)
);
},
{
closed = 1;
nodes = (
(950,1619,l),
(1225,1918,l),
(1578,1918,l),
(1229,1619,l)
);
}
);
width = 1555;
},
{
layerId = "D91E39D8-7CC3-444E-9A45-AC8D9F6D33DB";
shapes = (
{
closed = 1;
nodes = (
(973,0,l),
(1014,110,l),
(499,110,l),
(269,565,l),
(331,885,l),
(760,1350,l),
(1255,1350,l),
(1257,1460,l),
(697,1460,l),
(214,933,l),
(137,537,l),
(413,0,l)
);
},
{
closed = 1;
nodes = (
(860,1650,l),
(1127,1883,l),
(1267,1883,l),
(969,1650,l)
);
}
);
width = 1240;
}
);
unicode = 262;
},
{
glyphname = Ccaron;
lastChange = "2024-05-08 17:39:43 +0000";
layers = (
{
layerId = "B4DB2FCE-8F13-48AA-B57C-2BFA4BDFBB5B";
shapes = (
{
closed = 1;
nodes = (
(1082,0,l),
(1122,301,l),
(587,301,l),
(397,642,l),
(397,818,l),
(587,1159,l),
(1122,1159,l),
(1082,1460,l),
(417,1460,l),
(72,932,l),
(72,528,l),
(417,0,l)
);
},
{
closed = 1;
nodes = (
(563,1878,l),
(724,1674,l),
(676,1674,l),
(837,1878,l),
(1121,1878,l),
(893,1620,l),
(507,1620,l),
(279,1878,l)
);
}
);
width = 1240;
},
{
layerId = "44BD81D2-59FE-4749-9CEB-CE9A9BBF7E1D";
shapes = (
{
closed = 1;
nodes = (
(1316,0,l),
(1336,110,l),
(736,110,l),
(315,573,l),
(315,897,l),
(736,1350,l),
(1336,1350,l),
(1316,1460,l),
(671,1460,l),
(189,933,l),
(189,537,l),
(671,0,l)
);
},
{
closed = 1;
nodes = (
(651,1883,l),
(926,1674,l),
(864,1674,l),
(1140,1883,l),
(1287,1883,l),
(973,1650,l),
(817,1650,l),
(504,1883,l)
);
}
);
width = 1555;
},
{
layerId = "C51B4FD0-B2BF-40BC-847B-12841EA1BD5E";
shapes = (
{
closed = 1;
nodes = (
(1318,0,l),
(1358,301,l),
(733,301,l),
(446,645,l),
(446,815,l),
(733,1159,l),
(1358,1159,l),
(1318,1460,l),
(568,1460,l),
(121,932,l),
(121,528,l),
(568,0,l)
);
},
{
closed = 1;
nodes = (
(709,1908,l),
(909,1662,l),
(841,1662,l),
(1042,1908,l),
(1356,1908,l),
(1068,1620,l),
(682,1620,l),
(395,1908,l)
);
}
);
width = 1555;
},
{
layerId = "70AA2382-B93B-4577-8C7E-04CBB56D22D0";
shapes = (
{
closed = 1;
nodes = (
(1070,0,l),
(1090,110,l),
(580,110,l),
(256,570,l),
(256,900,l),
(580,1350,l),
(1090,1350,l),
(1070,1460,l),
(510,1460,l),
(130,933,l),
(130,537,l),
(510,0,l)
);
},
{
closed = 1;
nodes = (
(509,1883,l),
(728,1679,l),
(672,1679,l),
(891,1883,l),
(1022,1883,l),
(758,1650,l),
(642,1650,l),
(378,1883,l)
);
}
);
width = 1240;
},
{
layerId = "32C81056-0B67-48FF-9423-60F4119D1D79";
shapes = (
{
closed = 1;
nodes = (
(1219,0,l),
(1260,110,l),
(660,110,l),
(329,573,l),
(389,881,l),
(917,1350,l),
(1501,1350,l),
(1503,1460,l),
(858,1460,l),
(273,933,l),
(196,537,l),
(574,0,l)
);
},
{
closed = 1;
nodes = (
(920,1883,l),
(1154,1674,l),
(1092,1674,l),
(1409,1883,l),
(1556,1883,l),
(1197,1650,l),
(1041,1650,l),
(773,1883,l)
);
}
);
width = 1555;
},
{
layerId = "7F8FBB26-3B45-4F09-894A-43C94E46FA86";
shapes = (
{
closed = 1;
nodes = (
(977,0,l),
(1076,301,l),
(541,301,l),
(415,632,l),
(453,828,l),
(717,1159,l),
(1242,1159,l),
(1261,1460,l),
(596,1460,l),
(148,932,l),
(70,528,l),
(312,0,l)
);
},
{
closed = 1;
nodes = (
(823,1878,l),
(944,1674,l),
(896,1674,l),
(1097,1878,l),
(1381,1878,l),
(1103,1620,l),
(717,1620,l),
(539,1878,l)
);
}
);
width = 1240;
},
{
layerId = "AD62C6D0-0611-42BF-ABA7-5ADD2541426F";
shapes = (
{
closed = 1;
nodes = (
(1213,0,l),
(1312,301,l),
(677,301,l),
(464,635,l),
(496,795,l),
(863,1159,l),
(1478,1159,l),
(1497,1460,l),
(747,1460,l),
(197,932,l),
(119,528,l),
(463,0,l)
);
},
{
closed = 1;
nodes = (
(975,1908,l),
(1127,1662,l),
(1059,1662,l),
(1308,1908,l),
(1622,1908,l),
(1278,1620,l),
(892,1620,l),
(661,1908,l)
);
}
);
width = 1555;
},
{
layerId = "D91E39D8-7CC3-444E-9A45-AC8D9F6D33DB";
shapes = (
{
closed = 1;
nodes = (
(973,0,l),
(1014,110,l),
(499,110,l),
(269,565,l),
(331,885,l),
(760,1350,l),
(1255,1350,l),
(1257,1460,l),
(697,1460,l),
(214,933,l),
(137,537,l),
(413,0,l)
);
},
{
closed = 1;
nodes = (
(778,1883,l),
(957,1679,l),
(901,1679,l),
(1160,1883,l),
(1291,1883,l),
(982,1650,l),
(866,1650,l),
(647,1883,l)
);
}
);
width = 1240;
}
);
unicode = 268;
},
{
glyphname = Ccedilla;
lastChange = "2024-05-08 17:39:43 +0000";
layers = (
{
layerId = "B4DB2FCE-8F13-48AA-B57C-2BFA4BDFBB5B";
shapes = (
{
closed = 1;
nodes = (
(1082,0,l),
(1122,301,l),
(587,301,l),
(397,642,l),
(397,818,l),
(587,1159,l),
(1122,1159,l),
(1082,1460,l),
(417,1460,l),
(72,932,l),
(72,528,l),
(417,0,l)
);
},
{
closed = 1;
nodes = (
(782,-637,l),
(964,-474,l),
(964,-280,l),
(789,-140,l),
(769,-140,l),
(808,-200,l),
(808,48,l),
(628,48,l),
(628,-305,l),
(714,-305,l),
(791,-360,l),
(791,-394,l),
(714,-449,l),
(588,-449,l),
(588,-637,l)
);
}
);
width = 1240;
},
{
layerId = "44BD81D2-59FE-4749-9CEB-CE9A9BBF7E1D";
shapes = (
{
closed = 1;
nodes = (
(1316,0,l),
(1336,110,l),
(736,110,l),
(315,573,l),
(315,897,l),
(736,1350,l),
(1336,1350,l),
(1316,1460,l),
(671,1460,l),
(189,933,l),
(189,537,l),
(671,0,l)
);
},
{
closed = 1;
nodes = (
(913,-565,l),
(1109,-455,l),
(1109,-279,l),
(912,-169,l),
(834,-169,l),
(853,-191,l),
(853,48,l),
(759,48,l),
(759,-259,l),
(885,-259,l),
(1021,-329,l),
(1021,-405,l),
(885,-475,l),
(669,-475,l),
(669,-565,l)
);
}
);
width = 1555;
},
{
layerId = "C51B4FD0-B2BF-40BC-847B-12841EA1BD5E";
shapes = (
{
closed = 1;
nodes = (
(1318,0,l),
(1358,301,l),
(733,301,l),
(446,645,l),
(446,815,l),
(733,1159,l),
(1358,1159,l),
(1318,1460,l),
(568,1460,l),
(121,932,l),
(121,528,l),
(568,0,l)
);
},
{
closed = 1;
nodes = (
(867,-687,l),
(1109,-534,l),
(1109,-270,l),
(867,-139,l),
(838,-139,l),
(893,-200,l),
(893,48,l),
(713,48,l),
(713,-305,l),
(799,-305,l),
(926,-370,l),
(926,-434,l),
(799,-499,l),
(673,-499,l),
(673,-687,l)
);
}
);
width = 1555;
},
{
layerId = "70AA2382-B93B-4577-8C7E-04CBB56D22D0";
shapes = (
{
closed = 1;
nodes = (
(1070,0,l),
(1090,110,l),
(580,110,l),
(256,570,l),
(256,900,l),
(580,1350,l),
(1090,1350,l),
(1070,1460,l),
(510,1460,l),
(130,933,l),
(130,537,l),
(510,0,l)
);
},
{
closed = 1;
nodes = (
(818,-565,l),
(954,-455,l),
(954,-279,l),
(817,-169,l),
(749,-169,l),
(768,-196,l),
(768,48,l),
(674,48,l),
(674,-259,l),
(780,-259,l),
(866,-329,l),
(866,-405,l),
(780,-475,l),
(634,-475,l),
(634,-565,l)
);
}
);
width = 1240;
},
{
layerId = "32C81056-0B67-48FF-9423-60F4119D1D79";
shapes = (
{
closed = 1;
nodes = (
(1219,0,l),
(1260,110,l),
(660,110,l),
(329,573,l),
(389,881,l),
(917,1350,l),
(1501,1350,l),
(1503,1460,l),
(858,1460,l),
(273,933,l),
(196,537,l),
(574,0,l)
);
},
{
closed = 1;
nodes = (
(706,-565,l),
(924,-455,l),
(958,-279,l),
(782,-169,l),
(704,-169,l),
(719,-191,l),
(765,48,l),
(671,48,l),
(612,-259,l),
(738,-259,l),
(860,-329,l),
(845,-405,l),
(696,-475,l),
(480,-475,l),
(462,-565,l)
);
}
);
width = 1555;
},
{
layerId = "7F8FBB26-3B45-4F09-894A-43C94E46FA86";
shapes = (
{
closed = 1;
nodes = (
(977,0,l),
(1076,301,l),
(541,301,l),
(415,632,l),
(453,828,l),
(717,1159,l),
(1242,1159,l),
(1261,1460,l),
(596,1460,l),
(148,932,l),
(70,528,l),
(312,0,l)
);
},
{
closed = 1;
nodes = (
(553,-637,l),
(767,-474,l),
(805,-280,l),
(657,-140,l),
(637,-140,l),
(664,-200,l),
(712,48,l),
(532,48,l),
(464,-305,l),
(550,-305,l),
(616,-360,l),
(609,-394,l),
(522,-449,l),
(396,-449,l),
(359,-637,l)
);
}
);
width = 1240;
},
{
layerId = "AD62C6D0-0611-42BF-ABA7-5ADD2541426F";
shapes = (
{
closed = 1;
nodes = (
(1213,0,l),
(1312,301,l),
(677,301,l),
(464,635,l),
(496,795,l),
(863,1159,l),
(1478,1159,l),
(1497,1460,l),
(747,1460,l),
(197,932,l),
(119,528,l),
(463,0,l)
);
},
{
closed = 1;
nodes = (
(628,-687,l),
(900,-534,l),
(952,-270,l),
(735,-139,l),
(706,-139,l),
(749,-200,l),
(797,48,l),
(617,48,l),
(549,-305,l),
(635,-305,l),
(749,-370,l),
(737,-434,l),
(597,-499,l),
(471,-499,l),
(434,-687,l)
);
}
);
width = 1555;
},
{
layerId = "D91E39D8-7CC3-444E-9A45-AC8D9F6D33DB";
shapes = (
{
closed = 1;
nodes = (
(973,0,l),
(1014,110,l),
(499,110,l),
(269,565,l),
(331,885,l),
(760,1350,l),
(1255,1350,l),
(1257,1460,l),
(697,1460,l),
(214,933,l),
(137,537,l),
(413,0,l)
);
},
{
closed = 1;
nodes = (
(611,-565,l),
(769,-455,l),
(803,-279,l),
(687,-169,l),
(619,-169,l),
(633,-196,l),
(680,48,l),
(586,48,l),
(527,-259,l),
(633,-259,l),
(705,-329,l),
(690,-405,l),
(591,-475,l),
(445,-475,l),
(427,-565,l)
);
}
);
width = 1240;
}
);
unicode = 199;
},
{
glyphname = Ccircumflex;
lastChange = "2024-05-08 17:39:43 +0000";
layers = (
{
layerId = "B4DB2FCE-8F13-48AA-B57C-2BFA4BDFBB5B";
shapes = (
{
closed = 1;
nodes = (
(1082,0,l),
(1122,301,l),
(587,301,l),
(397,642,l),
(397,818,l),
(587,1159,l),
(1122,1159,l),
(1082,1460,l),
(417,1460,l),
(72,932,l),
(72,528,l),
(417,0,l)
);
},
{
closed = 1;
nodes = (
(563,1620,l),
(724,1824,l),
(676,1824,l),
(837,1620,l),
(1121,1620,l),
(893,1878,l),
(507,1878,l),
(279,1620,l)
);
}
);
width = 1240;
},
{
layerId = "44BD81D2-59FE-4749-9CEB-CE9A9BBF7E1D";
shapes = (
{
closed = 1;
nodes = (
(1316,0,l),
(1336,110,l),
(736,110,l),
(315,573,l),
(315,897,l),
(736,1350,l),
(1336,1350,l),
(1316,1460,l),
(671,1460,l),
(189,933,l),
(189,537,l),
(671,0,l)
);
},
{
closed = 1;
nodes = (
(651,1650,l),
(926,1859,l),
(864,1859,l),
(1140,1650,l),
(1287,1650,l),
(973,1883,l),
(817,1883,l),
(504,1650,l)
);
}
);
width = 1555;
},
{
layerId = "C51B4FD0-B2BF-40BC-847B-12841EA1BD5E";
shapes = (
{
closed = 1;
nodes = (
(1318,0,l),
(1358,301,l),
(733,301,l),
(446,645,l),
(446,815,l),
(733,1159,l),
(1358,1159,l),
(1318,1460,l),
(568,1460,l),
(121,932,l),
(121,528,l),
(568,0,l)
);
},
{
closed = 1;
nodes = (
(709,1620,l),
(909,1866,l),
(841,1866,l),
(1042,1620,l),
(1356,1620,l),
(1068,1908,l),
(682,1908,l),
(395,1620,l)
);
}
);
width = 1555;
},
{
layerId = "70AA2382-B93B-4577-8C7E-04CBB56D22D0";
shapes = (
{
closed = 1;
nodes = (
(1070,0,l),
(1090,110,l),
(580,110,l),
(256,570,l),
(256,900,l),
(580,1350,l),
(1090,1350,l),
(1070,1460,l),
(510,1460,l),
(130,933,l),
(130,537,l),
(510,0,l)
);
},
{
closed = 1;
nodes = (
(509,1650,l),
(728,1854,l),
(672,1854,l),
(891,1650,l),
(1022,1650,l),
(758,1883,l),
(642,1883,l),
(378,1650,l)
);
}
);
width = 1240;
},
{
layerId = "32C81056-0B67-48FF-9423-60F4119D1D79";
shapes = (
{
closed = 1;
nodes = (
(1219,0,l),
(1260,110,l),
(660,110,l),
(329,573,l),
(389,881,l),
(917,1350,l),
(1501,1350,l),
(1503,1460,l),
(858,1460,l),
(273,933,l),
(196,537,l),
(574,0,l)
);
},
{
closed = 1;
nodes = (
(875,1650,l),
(1190,1859,l),
(1128,1859,l),
(1364,1650,l),
(1511,1650,l),
(1242,1883,l),
(1086,1883,l),
(728,1650,l)
);
}
);
width = 1555;
},
{
layerId = "7F8FBB26-3B45-4F09-894A-43C94E46FA86";
shapes = (
{
closed = 1;
nodes = (
(977,0,l),
(1076,301,l),
(541,301,l),
(415,632,l),
(453,828,l),
(717,1159,l),
(1242,1159,l),
(1261,1460,l),
(596,1460,l),
(148,932,l),
(70,528,l),
(312,0,l)
);
},
{
closed = 1;
nodes = (
(773,1620,l),
(974,1824,l),
(926,1824,l),
(1047,1620,l),
(1331,1620,l),
(1153,1878,l),
(767,1878,l),
(489,1620,l)
);
}
);
width = 1240;
},
{
layerId = "AD62C6D0-0611-42BF-ABA7-5ADD2541426F";
shapes = (
{
closed = 1;
nodes = (
(1213,0,l),
(1312,301,l),
(677,301,l),
(464,635,l),
(496,795,l),
(863,1159,l),
(1478,1159,l),
(1497,1460,l),
(747,1460,l),
(197,932,l),
(119,528,l),
(463,0,l)
);
},
{
closed = 1;
nodes = (
(919,1620,l),
(1167,1866,l),
(1099,1866,l),
(1252,1620,l),
(1566,1620,l),
(1334,1908,l),
(948,1908,l),
(605,1620,l)
);
}
);
width = 1555;
},
{
layerId = "D91E39D8-7CC3-444E-9A45-AC8D9F6D33DB";
shapes = (
{
closed = 1;
nodes = (
(973,0,l),
(1014,110,l),
(499,110,l),
(269,565,l),
(331,885,l),
(760,1350,l),
(1255,1350,l),
(1257,1460,l),
(697,1460,l),
(214,933,l),
(137,537,l),
(413,0,l)
);
},
{
closed = 1;
nodes = (
(733,1650,l),
(991,1854,l),
(935,1854,l),
(1115,1650,l),
(1246,1650,l),
(1027,1883,l),
(911,1883,l),
(602,1650,l)
);
}
);
width = 1240;
}
);
unicode = 264;
},
{
glyphname = Cdotaccent;
lastChange = "2024-05-08 17:39:43 +0000";
layers = (
{
layerId = "B4DB2FCE-8F13-48AA-B57C-2BFA4BDFBB5B";
shapes = (
{
closed = 1;
nodes = (
(1082,0,l),
(1122,301,l),
(587,301,l),
(397,642,l),
(397,818,l),
(587,1159,l),
(1122,1159,l),
(1082,1460,l),
(417,1460,l),
(72,932,l),
(72,528,l),
(417,0,l)
);
},
{
closed = 1;
nodes = (
(870.4,1786.8,l),
(696,1954,l),
(520.8,1786.8,l),
(696,1618.8,l)
);
}
);
width = 1240;
},
{
layerId = "44BD81D2-59FE-4749-9CEB-CE9A9BBF7E1D";
shapes = (
{
closed = 1;
nodes = (
(1316,0,l),
(1336,110,l),
(736,110,l),
(315,573,l),
(315,897,l),
(736,1350,l),
(1336,1350,l),
(1316,1460,l),
(671,1460,l),
(189,933,l),
(189,537,l),
(671,0,l)
);
},
{
closed = 1;
nodes = (
(1033,1756,l),
(896,1886,l),
(759,1756,l),
(896,1626,l)
);
}
);
width = 1555;
},
{
layerId = "C51B4FD0-B2BF-40BC-847B-12841EA1BD5E";
shapes = (
{
closed = 1;
nodes = (
(1318,0,l),
(1358,301,l),
(733,301,l),
(446,645,l),
(446,815,l),
(733,1159,l),
(1358,1159,l),
(1318,1460,l),
(568,1460,l),
(121,932,l),
(121,528,l),
(568,0,l)
);
},
{
closed = 1;
nodes = (
(1050,1797,l),
(875,1964,l),
(700,1797,l),
(875,1629,l)
);
}
);
width = 1555;
},
{
layerId = "70AA2382-B93B-4577-8C7E-04CBB56D22D0";
shapes = (
{
closed = 1;
nodes = (
(1070,0,l),
(1090,110,l),
(580,110,l),
(256,570,l),
(256,900,l),
(580,1350,l),
(1090,1350,l),
(1070,1460,l),
(510,1460,l),
(130,933,l),
(130,537,l),
(510,0,l)
);
},
{
closed = 1;
nodes = (
(837,1756,l),
(700,1886,l),
(563,1756,l),
(700,1626,l)
);
}
);
width = 1240;
},
{
layerId = "32C81056-0B67-48FF-9423-60F4119D1D79";
shapes = (
{
closed = 1;
nodes = (
(1219,0,l),
(1260,110,l),
(660,110,l),
(329,573,l),
(389,881,l),
(917,1350,l),
(1501,1350,l),
(1503,1460,l),
(858,1460,l),
(273,933,l),
(196,537,l),
(574,0,l)
);
},
{
closed = 1;
nodes = (
(1277,1756,l),
(1166,1886,l),
(1003,1756,l),
(1115,1626,l)
);
}
);
width = 1555;
},
{
layerId = "7F8FBB26-3B45-4F09-894A-43C94E46FA86";
shapes = (
{
closed = 1;
nodes = (
(977,0,l),
(1076,301,l),
(541,301,l),
(415,632,l),
(453,828,l),
(717,1159,l),
(1242,1159,l),
(1261,1460,l),
(596,1460,l),
(148,932,l),
(70,528,l),
(312,0,l)
);
},
{
closed = 1;
nodes = (
(1113,1787,l),
(971,1954,l),
(763,1787,l),
(906,1619,l)
);
}
);
width = 1240;
},
{
layerId = "AD62C6D0-0611-42BF-ABA7-5ADD2541426F";
shapes = (
{
closed = 1;
nodes = (
(1213,0,l),
(1312,301,l),
(677,301,l),
(464,635,l),
(496,795,l),
(863,1159,l),
(1478,1159,l),
(1497,1460,l),
(747,1460,l),
(197,932,l),
(119,528,l),
(463,0,l)
);
},
{
closed = 1;
nodes = (
(1294,1797,l),
(1152,1964,l),
(944,1797,l),
(1087,1629,l)
);
}
);
width = 1555;
},
{
layerId = "D91E39D8-7CC3-444E-9A45-AC8D9F6D33DB";
shapes = (
{
closed = 1;
nodes = (
(973,0,l),
(1014,110,l),
(499,110,l),
(269,565,l),
(331,885,l),
(760,1350,l),
(1255,1350,l),
(1257,1460,l),
(697,1460,l),
(214,933,l),
(137,537,l),
(413,0,l)
);
},
{
closed = 1;
nodes = (
(1081,1756,l),
(970,1886,l),
(807,1756,l),
(919,1626,l)
);
}
);
width = 1240;
}
);
unicode = 266;
},
{
glyphname = D;
lastChange = "2024-05-08 17:39:42 +0000";
layers = (
{
layerId = "70AA2382-B93B-4577-8C7E-04CBB56D22D0";
shapes = (
{
closed = 1;
nodes = (
(730,0,l),
(1110,540,l),
(1110,930,l),
(730,1460,l),
(260,1460,l),
(260,1350,l),
(664,1350,l),
(984,900,l),
(984,570,l),
(664,110,l),
(260,110,l),
(260,0,l)
);
},
{
closed = 1;
nodes = (
(333,0,l),
(333,1460,l),
(207,1460,l),
(207,0,l)
);
}
);
width = 1240;
},
{
layerId = "32C81056-0B67-48FF-9423-60F4119D1D79";
shapes = (
{
closed = 1;
nodes = (
(834,0,l),
(1414,540,l),
(1490,930,l),
(1118,1460,l),
(476,1460,l),
(454,1350,l),
(1033,1350,l),
(1356,892,l),
(1299,595,l),
(776,110,l),
(213,110,l),
(192,0,l)
);
},
{
closed = 1;
nodes = (
(265,0,l),
(549,1460,l),
(423,1460,l),
(139,0,l)
);
}
);
width = 1555;
},
{
layerId = "7F8FBB26-3B45-4F09-894A-43C94E46FA86";
shapes = (
{
closed = 1;
nodes = (
(718,0,l),
(1168,539,l),
(1246,943,l),
(1002,1460,l),
(447,1460,l),
(358,1159,l),
(763,1159,l),
(899,829,l),
(863,643,l),
(597,301,l),
(192,301,l),
(163,0,l)
);
},
{
closed = 1;
nodes = (
(356,0,l),
(640,1460,l),
(311,1460,l),
(27,0,l)
);
}
);
width = 1240;
},
{
layerId = "B4DB2FCE-8F13-48AA-B57C-2BFA4BDFBB5B";
shapes = (
{
closed = 1;
nodes = (
(823,0,l),
(1168,539,l),
(1168,943,l),
(823,1460,l),
(268,1460,l),
(238,1159,l),
(653,1159,l),
(843,829,l),
(843,653,l),
(653,301,l),
(238,301,l),
(268,0,l)
);
},
{
closed = 1;
nodes = (
(461,0,l),
(461,1460,l),
(132,1460,l),
(132,0,l)
);
}
);
width = 1240;
},
{
layerId = "44BD81D2-59FE-4749-9CEB-CE9A9BBF7E1D";
shapes = (
{
closed = 1;
nodes = (
(931,0,l),
(1406,540,l),
(1406,930,l),
(931,1460,l),
(289,1460,l),
(289,1350,l),
(868,1350,l),
(1280,892,l),
(1280,579,l),
(868,110,l),
(289,110,l),
(289,0,l)
);
},
{
closed = 1;
nodes = (
(362,0,l),
(362,1460,l),
(236,1460,l),
(236,0,l)
);
}
);
width = 1555;
},
{
layerId = "C51B4FD0-B2BF-40BC-847B-12841EA1BD5E";
shapes = (
{
closed = 1;
nodes = (
(1026,0,l),
(1466,539,l),
(1466,943,l),
(1026,1460,l),
(299,1460,l),
(269,1159,l),
(859,1159,l),
(1141,821,l),
(1141,662,l),
(859,301,l),
(269,301,l),
(299,0,l)
);
},
{
closed = 1;
nodes = (
(492,0,l),
(492,1460,l),
(163,1460,l),
(163,0,l)
);
}
);
width = 1555;
},
{
layerId = "AD62C6D0-0611-42BF-ABA7-5ADD2541426F";
shapes = (
{
closed = 1;
nodes = (
(921,0,l),
(1466,539,l),
(1544,943,l),
(1205,1460,l),
(478,1460,l),
(389,1159,l),
(999,1159,l),
(1199,841,l),
(1167,672,l),
(813,301,l),
(223,301,l),
(194,0,l)
);
},
{
closed = 1;
nodes = (
(387,0,l),
(671,1460,l),
(342,1460,l),
(58,0,l)
);
}
);
width = 1555;
},
{
layerId = "D91E39D8-7CC3-444E-9A45-AC8D9F6D33DB";
shapes = (
{
closed = 1;
nodes = (
(633,0,l),
(1118,540,l),
(1194,930,l),
(917,1460,l),
(447,1460,l),
(425,1350,l),
(829,1350,l),
(1062,900,l),
(1001,585,l),
(573,110,l),
(184,110,l),
(163,0,l)
);
},
{
closed = 1;
nodes = (
(236,0,l),
(520,1460,l),
(394,1460,l),
(110,0,l)
);
}
);
width = 1240;
}
);
unicode = 68;
},
{
glyphname = Eth;
lastChange = "2024-05-08 17:39:43 +0000";
layers = (
{
layerId = "B4DB2FCE-8F13-48AA-B57C-2BFA4BDFBB5B";
shapes = (
{
closed = 1;
nodes = (
(640,594,l),
(640,867,l),
(13,867,l),
(13,594,l)
);
},
{
closed = 1;
nodes = (
(823,0,l),
(1168,539,l),
(1168,943,l),
(823,1460,l),
(268,1460,l),
(238,1159,l),
(653,1159,l),
(843,829,l),
(843,653,l),
(653,301,l),
(238,301,l),
(268,0,l)
);
},
{
closed = 1;
nodes = (
(461,0,l),
(461,1460,l),
(132,1460,l),
(132,0,l)
);
}
);
width = 1240;
},
{
layerId = "44BD81D2-59FE-4749-9CEB-CE9A9BBF7E1D";
shapes = (
{
closed = 1;
nodes = (
(865,705,l),
(865,815,l),
(39,815,l),
(39,705,l)
);
},
{
closed = 1;
nodes = (
(953,0,l),
(1428,540,l),
(1428,930,l),
(953,1460,l),
(311,1460,l),
(311,1350,l),
(890,1350,l),
(1302,892,l),
(1302,579,l),
(890,110,l),
(311,110,l),
(311,0,l)
);
},
{
closed = 1;
nodes = (
(384,0,l),
(384,1460,l),
(258,1460,l),
(258,0,l)
);
}
);
width = 1555;
},
{
layerId = "C51B4FD0-B2BF-40BC-847B-12841EA1BD5E";
shapes = (
{
closed = 1;
nodes = (
(820,594,l),
(820,867,l),
(15,867,l),
(15,594,l)
);
},
{
closed = 1;
nodes = (
(1032,0,l),
(1472,539,l),
(1472,943,l),
(1032,1460,l),
(305,1460,l),
(275,1159,l),
(865,1159,l),
(1147,821,l),
(1147,662,l),
(865,301,l),
(275,301,l),
(305,0,l)
);
},
{
closed = 1;
nodes = (
(498,0,l),
(498,1460,l),
(169,1460,l),
(169,0,l)
);
}
);
width = 1555;
},
{
layerId = "70AA2382-B93B-4577-8C7E-04CBB56D22D0";
shapes = (
{
closed = 1;
nodes = (
(672,705,l),
(672,815,l),
(40,815,l),
(40,705,l)
);
},
{
closed = 1;
nodes = (
(730,0,l),
(1110,540,l),
(1110,930,l),
(730,1460,l),
(260,1460,l),
(260,1350,l),
(664,1350,l),
(984,900,l),
(984,570,l),
(664,110,l),
(260,110,l),
(260,0,l)
);
},
{
closed = 1;
nodes = (
(333,0,l),
(333,1460,l),
(207,1460,l),
(207,0,l)
);
}
);
width = 1240;
},
{
layerId = "32C81056-0B67-48FF-9423-60F4119D1D79";
shapes = (
{
closed = 1;
nodes = (
(905,705,l),
(926,815,l),
(100,815,l),
(79,705,l)
);
},
{
closed = 1;
nodes = (
(856,0,l),
(1436,540,l),
(1512,930,l),
(1140,1460,l),
(498,1460,l),
(476,1350,l),
(1055,1350,l),
(1378,892,l),
(1321,595,l),
(798,110,l),
(235,110,l),
(214,0,l)
);
},
{
closed = 1;
nodes = (
(287,0,l),
(571,1460,l),
(445,1460,l),
(161,0,l)
);
}
);
width = 1555;
},
{
layerId = "7F8FBB26-3B45-4F09-894A-43C94E46FA86";
shapes = (
{
closed = 1;
nodes = (
(650,594,l),
(704,867,l),
(77,867,l),
(23,594,l)
);
},
{
closed = 1;
nodes = (
(718,0,l),
(1168,539,l),
(1246,943,l),
(1002,1460,l),
(447,1460,l),
(358,1159,l),
(763,1159,l),
(899,829,l),
(863,643,l),
(597,301,l),
(192,301,l),
(163,0,l)
);
},
{
closed = 1;
nodes = (
(356,0,l),
(640,1460,l),
(311,1460,l),
(27,0,l)
);
}
);
width = 1240;
},
{
layerId = "AD62C6D0-0611-42BF-ABA7-5ADD2541426F";
shapes = (
{
closed = 1;
nodes = (
(830,594,l),
(884,867,l),
(79,867,l),
(25,594,l)
);
},
{
closed = 1;
nodes = (
(927,0,l),
(1472,539,l),
(1550,943,l),
(1211,1460,l),
(484,1460,l),
(395,1159,l),
(1005,1159,l),
(1205,841,l),
(1173,672,l),
(819,301,l),
(229,301,l),
(200,0,l)
);
},
{
closed = 1;
nodes = (
(393,0,l),
(677,1460,l),
(348,1460,l),
(64,0,l)
);
}
);
width = 1555;
},
{
layerId = "D91E39D8-7CC3-444E-9A45-AC8D9F6D33DB";
shapes = (
{
closed = 1;
nodes = (
(712,705,l),
(733,815,l),
(101,815,l),
(80,705,l)
);
},
{
closed = 1;
nodes = (
(633,0,l),
(1118,540,l),
(1194,930,l),
(917,1460,l),
(447,1460,l),
(425,1350,l),
(829,1350,l),
(1062,900,l),
(1001,585,l),
(573,110,l),
(184,110,l),
(163,0,l)
);
},
{
closed = 1;
nodes = (
(236,0,l),
(520,1460,l),
(394,1460,l),
(110,0,l)
);
}
);
width = 1240;
}
);
unicode = 208;
},
{
glyphname = Dcaron;
lastChange = "2024-05-08 17:39:43 +0000";
layers = (
{
layerId = "B4DB2FCE-8F13-48AA-B57C-2BFA4BDFBB5B";
shapes = (
{
closed = 1;
nodes = (
(823,0,l),
(1168,539,l),
(1168,943,l),
(823,1460,l),
(268,1460,l),
(238,1159,l),
(653,1159,l),
(843,829,l),
(843,653,l),
(653,301,l),
(238,301,l),
(268,0,l)
);
},
{
closed = 1;
nodes = (
(461,0,l),
(461,1460,l),
(132,1460,l),
(132,0,l)
);
},
{
closed = 1;
nodes = (
(383,1878,l),
(544,1674,l),
(496,1674,l),
(657,1878,l),
(941,1878,l),
(713,1620,l),
(327,1620,l),
(99,1878,l)
);
}
);
width = 1240;
},
{
layerId = "44BD81D2-59FE-4749-9CEB-CE9A9BBF7E1D";
shapes = (
{
closed = 1;
nodes = (
(931,0,l),
(1406,540,l),
(1406,930,l),
(931,1460,l),
(289,1460,l),
(289,1350,l),
(868,1350,l),
(1280,892,l),
(1280,579,l),
(868,110,l),
(289,110,l),
(289,0,l)
);
},
{
closed = 1;
nodes = (
(362,0,l),
(362,1460,l),
(236,1460,l),
(236,0,l)
);
},
{
closed = 1;
nodes = (
(421,1883,l),
(696,1674,l),
(634,1674,l),
(910,1883,l),
(1057,1883,l),
(743,1650,l),
(587,1650,l),
(274,1883,l)
);
}
);
width = 1555;
},
{
layerId = "C51B4FD0-B2BF-40BC-847B-12841EA1BD5E";
shapes = (
{
closed = 1;
nodes = (
(1009,0,l),
(1449,539,l),
(1449,943,l),
(1009,1460,l),
(282,1460,l),
(252,1159,l),
(842,1159,l),
(1124,821,l),
(1124,662,l),
(842,301,l),
(252,301,l),
(282,0,l)
);
},
{
closed = 1;
nodes = (
(475,0,l),
(475,1460,l),
(146,1460,l),
(146,0,l)
);
},
{
closed = 1;
nodes = (
(499,1908,l),
(699,1662,l),
(631,1662,l),
(832,1908,l),
(1146,1908,l),
(858,1620,l),
(472,1620,l),
(185,1908,l)
);
}
);
width = 1555;
},
{
layerId = "70AA2382-B93B-4577-8C7E-04CBB56D22D0";
shapes = (
{
closed = 1;
nodes = (
(730,0,l),
(1110,540,l),
(1110,930,l),
(730,1460,l),
(260,1460,l),
(260,1350,l),
(664,1350,l),
(984,900,l),
(984,570,l),
(664,110,l),
(260,110,l),
(260,0,l)
);
},
{
closed = 1;
nodes = (
(333,0,l),
(333,1460,l),
(207,1460,l),
(207,0,l)
);
},
{
closed = 1;
nodes = (
(345,1883,l),
(564,1679,l),
(508,1679,l),
(727,1883,l),
(858,1883,l),
(594,1650,l),
(478,1650,l),
(214,1883,l)
);
}
);
width = 1240;
},
{
layerId = "32C81056-0B67-48FF-9423-60F4119D1D79";
shapes = (
{
closed = 1;
nodes = (
(834,0,l),
(1414,540,l),
(1490,930,l),
(1118,1460,l),
(476,1460,l),
(454,1350,l),
(1033,1350,l),
(1356,892,l),
(1299,595,l),
(776,110,l),
(213,110,l),
(192,0,l)
);
},
{
closed = 1;
nodes = (
(265,0,l),
(549,1460,l),
(423,1460,l),
(139,0,l)
);
},
{
closed = 1;
nodes = (
(690,1883,l),
(924,1674,l),
(862,1674,l),
(1179,1883,l),
(1326,1883,l),
(967,1650,l),
(811,1650,l),
(543,1883,l)
);
}
);
width = 1555;
},
{
layerId = "7F8FBB26-3B45-4F09-894A-43C94E46FA86";
shapes = (
{
closed = 1;
nodes = (
(718,0,l),
(1168,539,l),
(1246,943,l),
(1002,1460,l),
(447,1460,l),
(358,1159,l),
(763,1159,l),
(899,829,l),
(863,643,l),
(597,301,l),
(192,301,l),
(163,0,l)
);
},
{
closed = 1;
nodes = (
(356,0,l),
(640,1460,l),
(311,1460,l),
(27,0,l)
);
},
{
closed = 1;
nodes = (
(643,1878,l),
(764,1674,l),
(716,1674,l),
(917,1878,l),
(1201,1878,l),
(923,1620,l),
(537,1620,l),
(359,1878,l)
);
}
);
width = 1240;
},
{
layerId = "AD62C6D0-0611-42BF-ABA7-5ADD2541426F";
shapes = (
{
closed = 1;
nodes = (
(904,0,l),
(1449,539,l),
(1527,943,l),
(1188,1460,l),
(461,1460,l),
(372,1159,l),
(982,1159,l),
(1182,841,l),
(1150,672,l),
(796,301,l),
(206,301,l),
(177,0,l)
);
},
{
closed = 1;
nodes = (
(370,0,l),
(654,1460,l),
(325,1460,l),
(41,0,l)
);
},
{
closed = 1;
nodes = (
(765,1908,l),
(917,1662,l),
(849,1662,l),
(1098,1908,l),
(1412,1908,l),
(1068,1620,l),
(682,1620,l),
(451,1908,l)
);
}
);
width = 1555;
},
{
layerId = "D91E39D8-7CC3-444E-9A45-AC8D9F6D33DB";
shapes = (
{
closed = 1;
nodes = (
(633,0,l),
(1118,540,l),
(1194,930,l),
(917,1460,l),
(447,1460,l),
(425,1350,l),
(829,1350,l),
(1062,900,l),
(1001,585,l),
(573,110,l),
(184,110,l),
(163,0,l)
);
},
{
closed = 1;
nodes = (
(236,0,l),
(520,1460,l),
(394,1460,l),
(110,0,l)
);
},
{
closed = 1;
nodes = (
(614,1883,l),
(793,1679,l),
(737,1679,l),
(996,1883,l),
(1127,1883,l),
(818,1650,l),
(702,1650,l),
(483,1883,l)
);
}
);
width = 1240;
}
);
unicode = 270;
},
{
glyphname = Dcroat;
lastChange = "2024-05-08 17:39:43 +0000";
layers = (
{
layerId = "B4DB2FCE-8F13-48AA-B57C-2BFA4BDFBB5B";
shapes = (
{
closed = 1;
nodes = (
(640,594,l),
(640,867,l),
(13,867,l),
(13,594,l)
);
},
{
closed = 1;
nodes = (
(823,0,l),
(1168,539,l),
(1168,943,l),
(823,1460,l),
(268,1460,l),
(238,1159,l),
(653,1159,l),
(843,829,l),
(843,653,l),
(653,301,l),
(238,301,l),
(268,0,l)
);
},
{
closed = 1;
nodes = (
(461,0,l),
(461,1460,l),
(132,1460,l),
(132,0,l)
);
}
);
width = 1240;
},
{
layerId = "44BD81D2-59FE-4749-9CEB-CE9A9BBF7E1D";
shapes = (
{
closed = 1;
nodes = (
(865,705,l),
(865,815,l),
(39,815,l),
(39,705,l)
);
},
{
closed = 1;
nodes = (
(953,0,l),
(1428,540,l),
(1428,930,l),
(953,1460,l),
(311,1460,l),
(311,1350,l),
(890,1350,l),
(1302,892,l),
(1302,579,l),
(890,110,l),
(311,110,l),
(311,0,l)
);
},
{
closed = 1;
nodes = (
(384,0,l),
(384,1460,l),
(258,1460,l),
(258,0,l)
);
}
);
width = 1555;
},
{
layerId = "C51B4FD0-B2BF-40BC-847B-12841EA1BD5E";
shapes = (
{
closed = 1;
nodes = (
(820,594,l),
(820,867,l),
(15,867,l),
(15,594,l)
);
},
{
closed = 1;
nodes = (
(1032,0,l),
(1472,539,l),
(1472,943,l),
(1032,1460,l),
(305,1460,l),
(275,1159,l),
(865,1159,l),
(1147,821,l),
(1147,662,l),
(865,301,l),
(275,301,l),
(305,0,l)
);
},
{
closed = 1;
nodes = (
(498,0,l),
(498,1460,l),
(169,1460,l),
(169,0,l)
);
}
);
width = 1555;
},
{
layerId = "70AA2382-B93B-4577-8C7E-04CBB56D22D0";
shapes = (
{
closed = 1;
nodes = (
(672,705,l),
(672,815,l),
(40,815,l),
(40,705,l)
);
},
{
closed = 1;
nodes = (
(730,0,l),
(1110,540,l),
(1110,930,l),
(730,1460,l),
(260,1460,l),
(260,1350,l),
(664,1350,l),
(984,900,l),
(984,570,l),
(664,110,l),
(260,110,l),
(260,0,l)
);
},
{
closed = 1;
nodes = (
(333,0,l),
(333,1460,l),
(207,1460,l),
(207,0,l)
);
}
);
width = 1240;
},
{
layerId = "32C81056-0B67-48FF-9423-60F4119D1D79";
shapes = (
{
closed = 1;
nodes = (
(905,705,l),
(926,815,l),
(100,815,l),
(79,705,l)
);
},
{
closed = 1;
nodes = (
(856,0,l),
(1436,540,l),
(1512,930,l),
(1140,1460,l),
(498,1460,l),
(476,1350,l),
(1055,1350,l),
(1378,892,l),
(1321,595,l),
(798,110,l),
(235,110,l),
(214,0,l)
);
},
{
closed = 1;
nodes = (
(287,0,l),
(571,1460,l),
(445,1460,l),
(161,0,l)
);
}
);
width = 1555;
},
{
layerId = "7F8FBB26-3B45-4F09-894A-43C94E46FA86";
shapes = (
{
closed = 1;
nodes = (
(650,594,l),
(704,867,l),
(77,867,l),
(23,594,l)
);
},
{
closed = 1;
nodes = (
(718,0,l),
(1168,539,l),
(1246,943,l),
(1002,1460,l),
(447,1460,l),
(358,1159,l),
(763,1159,l),
(899,829,l),
(863,643,l),
(597,301,l),
(192,301,l),
(163,0,l)
);
},
{
closed = 1;
nodes = (
(356,0,l),
(640,1460,l),
(311,1460,l),
(27,0,l)
);
}
);
width = 1240;
},
{
layerId = "AD62C6D0-0611-42BF-ABA7-5ADD2541426F";
shapes = (
{
closed = 1;
nodes = (
(830,594,l),
(884,867,l),
(79,867,l),
(25,594,l)
);
},
{
closed = 1;
nodes = (
(927,0,l),
(1472,539,l),
(1550,943,l),
(1211,1460,l),
(484,1460,l),
(395,1159,l),
(1005,1159,l),
(1205,841,l),
(1173,672,l),
(819,301,l),
(229,301,l),
(200,0,l)
);
},
{
closed = 1;
nodes = (
(393,0,l),
(677,1460,l),
(348,1460,l),
(64,0,l)
);
}
);
width = 1555;
},
{
layerId = "D91E39D8-7CC3-444E-9A45-AC8D9F6D33DB";
shapes = (
{
closed = 1;
nodes = (
(712,705,l),
(733,815,l),
(101,815,l),
(80,705,l)
);
},
{
closed = 1;
nodes = (
(633,0,l),
(1118,540,l),
(1194,930,l),
(917,1460,l),
(447,1460,l),
(425,1350,l),
(829,1350,l),
(1062,900,l),
(1001,585,l),
(573,110,l),
(184,110,l),
(163,0,l)
);
},
{
closed = 1;
nodes = (
(236,0,l),
(520,1460,l),
(394,1460,l),
(110,0,l)
);
}
);
width = 1240;
}
);
unicode = 272;
},
{
glyphname = E;
lastChange = "2024-05-08 17:39:42 +0000";
layers = (
{
layerId = "70AA2382-B93B-4577-8C7E-04CBB56D22D0";
shapes = (
{
closed = 1;
nodes = (
(343,1460,l),
(217,1460,l),
(217,0,l),
(343,0,l)
);
},
{
closed = 1;
nodes = (
(302,110,l),
(302,0,l),
(1058,0,l),
(1078,110,l)
);
},
{
closed = 1;
nodes = (
(302,779,l),
(302,674,l),
(915,674,l),
(915,779,l)
);
},
{
closed = 1;
nodes = (
(1018,1460,l),
(302,1460,l),
(302,1350,l),
(1038,1350,l)
);
}
);
width = 1240;
},
{
layerId = "32C81056-0B67-48FF-9423-60F4119D1D79";
shapes = (
{
closed = 1;
nodes = (
(603,1460,l),
(477,1460,l),
(193,0,l),
(319,0,l)
);
},
{
closed = 1;
nodes = (
(299,110,l),
(278,0,l),
(1221,0,l),
(1262,110,l)
);
},
{
closed = 1;
nodes = (
(429,779,l),
(409,674,l),
(1175,674,l),
(1195,779,l)
);
},
{
closed = 1;
nodes = (
(1465,1460,l),
(562,1460,l),
(540,1350,l),
(1463,1350,l)
);
}
);
width = 1555;
},
{
layerId = "7F8FBB26-3B45-4F09-894A-43C94E46FA86";
shapes = (
{
closed = 1;
nodes = (
(650,1460,l),
(321,1460,l),
(37,0,l),
(366,0,l)
);
},
{
closed = 1;
nodes = (
(251,271,l),
(198,0,l),
(957,0,l),
(1040,271,l)
);
},
{
closed = 1;
nodes = (
(396,866,l),
(346,609,l),
(950,609,l),
(1000,866,l)
);
},
{
closed = 1;
nodes = (
(1211,1460,l),
(482,1460,l),
(429,1189,l),
(1188,1189,l)
);
}
);
width = 1240;
},
{
layerId = "B4DB2FCE-8F13-48AA-B57C-2BFA4BDFBB5B";
shapes = (
{
closed = 1;
nodes = (
(471,1460,l),
(142,1460,l),
(142,0,l),
(471,0,l)
);
},
{
closed = 1;
nodes = (
(303,271,l),
(303,0,l),
(1062,0,l),
(1092,271,l)
);
},
{
closed = 1;
nodes = (
(333,866,l),
(333,609,l),
(937,609,l),
(937,866,l)
);
},
{
closed = 1;
nodes = (
(1032,1460,l),
(303,1460,l),
(303,1189,l),
(1062,1189,l)
);
}
);
width = 1240;
},
{
layerId = "44BD81D2-59FE-4749-9CEB-CE9A9BBF7E1D";
shapes = (
{
closed = 1;
nodes = (
(416,1460,l),
(290,1460,l),
(290,0,l),
(416,0,l)
);
},
{
closed = 1;
nodes = (
(375,110,l),
(375,0,l),
(1318,0,l),
(1338,110,l)
);
},
{
closed = 1;
nodes = (
(375,779,l),
(375,674,l),
(1141,674,l),
(1141,779,l)
);
},
{
closed = 1;
nodes = (
(1278,1460,l),
(375,1460,l),
(375,1350,l),
(1298,1350,l)
);
}
);
width = 1555;
},
{
layerId = "C51B4FD0-B2BF-40BC-847B-12841EA1BD5E";
shapes = (
{
closed = 1;
nodes = (
(534,1460,l),
(205,1460,l),
(205,0,l),
(534,0,l)
);
},
{
closed = 1;
nodes = (
(366,271,l),
(366,0,l),
(1312,0,l),
(1342,271,l)
);
},
{
closed = 1;
nodes = (
(396,866,l),
(396,609,l),
(1153,609,l),
(1153,866,l)
);
},
{
closed = 1;
nodes = (
(1282,1460,l),
(366,1460,l),
(366,1189,l),
(1312,1189,l)
);
}
);
width = 1555;
},
{
layerId = "AD62C6D0-0611-42BF-ABA7-5ADD2541426F";
shapes = (
{
closed = 1;
nodes = (
(713,1460,l),
(384,1460,l),
(100,0,l),
(429,0,l)
);
},
{
closed = 1;
nodes = (
(314,271,l),
(261,0,l),
(1207,0,l),
(1290,271,l)
);
},
{
closed = 1;
nodes = (
(459,866,l),
(409,609,l),
(1166,609,l),
(1216,866,l)
);
},
{
closed = 1;
nodes = (
(1461,1460,l),
(545,1460,l),
(492,1189,l),
(1438,1189,l)
);
}
);
width = 1555;
},
{
layerId = "D91E39D8-7CC3-444E-9A45-AC8D9F6D33DB";
shapes = (
{
closed = 1;
nodes = (
(530,1460,l),
(404,1460,l),
(120,0,l),
(246,0,l)
);
},
{
closed = 1;
nodes = (
(226,110,l),
(205,0,l),
(961,0,l),
(1002,110,l)
);
},
{
closed = 1;
nodes = (
(356,779,l),
(336,674,l),
(949,674,l),
(969,779,l)
);
},
{
closed = 1;
nodes = (
(1205,1460,l),
(489,1460,l),
(467,1350,l),
(1203,1350,l)
);
}
);
width = 1240;
}
);
unicode = 69;
},
{
glyphname = Eacute;
lastChange = "2024-05-08 17:39:43 +0000";
layers = (
{
layerId = "B4DB2FCE-8F13-48AA-B57C-2BFA4BDFBB5B";
shapes = (
{
closed = 1;
nodes = (
(471,1460,l),
(142,1460,l),
(142,0,l),
(471,0,l)
);
},
{
closed = 1;
nodes = (
(303,271,l),
(303,0,l),
(1062,0,l),
(1092,271,l)
);
},
{
closed = 1;
nodes = (
(333,866,l),
(333,609,l),
(937,609,l),
(937,866,l)
);
},
{
closed = 1;
nodes = (
(1032,1460,l),
(303,1460,l),
(303,1189,l),
(1062,1189,l)
);
},
{
closed = 1;
nodes = (
(495,1619.05,l),
(678,1877.386,l),
(1003,1877.386,l),
(754,1619.05,l)
);
}
);
width = 1240;
},
{
layerId = "44BD81D2-59FE-4749-9CEB-CE9A9BBF7E1D";
shapes = (
{
closed = 1;
nodes = (
(416,1460,l),
(290,1460,l),
(290,0,l),
(416,0,l)
);
},
{
closed = 1;
nodes = (
(375,110,l),
(375,0,l),
(1318,0,l),
(1338,110,l)
);
},
{
closed = 1;
nodes = (
(375,779,l),
(375,674,l),
(1141,674,l),
(1141,779,l)
);
},
{
closed = 1;
nodes = (
(1278,1460,l),
(375,1460,l),
(375,1350,l),
(1298,1350,l)
);
},
{
closed = 1;
nodes = (
(745,1652,l),
(1017,1884,l),
(1170,1884,l),
(864,1652,l)
);
}
);
width = 1555;
},
{
layerId = "C51B4FD0-B2BF-40BC-847B-12841EA1BD5E";
shapes = (
{
closed = 1;
nodes = (
(534,1460,l),
(205,1460,l),
(205,0,l),
(534,0,l)
);
},
{
closed = 1;
nodes = (
(366,271,l),
(366,0,l),
(1312,0,l),
(1342,271,l)
);
},
{
closed = 1;
nodes = (
(396,866,l),
(396,609,l),
(1153,609,l),
(1153,866,l)
);
},
{
closed = 1;
nodes = (
(1282,1460,l),
(366,1460,l),
(366,1189,l),
(1312,1189,l)
);
},
{
closed = 1;
nodes = (
(623,1619,l),
(840,1918,l),
(1193,1918,l),
(902,1619,l)
);
}
);
width = 1555;
},
{
layerId = "70AA2382-B93B-4577-8C7E-04CBB56D22D0";
shapes = (
{
closed = 1;
nodes = (
(343,1460,l),
(217,1460,l),
(217,0,l),
(343,0,l)
);
},
{
closed = 1;
nodes = (
(302,110,l),
(302,0,l),
(1058,0,l),
(1078,110,l)
);
},
{
closed = 1;
nodes = (
(302,779,l),
(302,674,l),
(915,674,l),
(915,779,l)
);
},
{
closed = 1;
nodes = (
(1018,1460,l),
(302,1460,l),
(302,1350,l),
(1038,1350,l)
);
},
{
closed = 1;
nodes = (
(586,1650.191,l),
(808,1883.236,l),
(948,1883.236,l),
(695,1650.191,l)
);
}
);
width = 1240;
},
{
layerId = "32C81056-0B67-48FF-9423-60F4119D1D79";
shapes = (
{
closed = 1;
nodes = (
(603,1460,l),
(477,1460,l),
(193,0,l),
(319,0,l)
);
},
{
closed = 1;
nodes = (
(299,110,l),
(278,0,l),
(1221,0,l),
(1262,110,l)
);
},
{
closed = 1;
nodes = (
(429,779,l),
(409,674,l),
(1175,674,l),
(1195,779,l)
);
},
{
closed = 1;
nodes = (
(1465,1460,l),
(562,1460,l),
(540,1350,l),
(1463,1350,l)
);
},
{
closed = 1;
nodes = (
(969,1652,l),
(1286,1884,l),
(1439,1884,l),
(1088,1652,l)
);
}
);
width = 1555;
},
{
layerId = "7F8FBB26-3B45-4F09-894A-43C94E46FA86";
shapes = (
{
closed = 1;
nodes = (
(650,1460,l),
(321,1460,l),
(37,0,l),
(366,0,l)
);
},
{
closed = 1;
nodes = (
(251,271,l),
(198,0,l),
(957,0,l),
(1040,271,l)
);
},
{
closed = 1;
nodes = (
(396,866,l),
(346,609,l),
(950,609,l),
(1000,866,l)
);
},
{
closed = 1;
nodes = (
(1211,1460,l),
(482,1460,l),
(429,1189,l),
(1188,1189,l)
);
},
{
closed = 1;
nodes = (
(705,1619,l),
(938,1877,l),
(1263,1877,l),
(964,1619,l)
);
}
);
width = 1240;
},
{
layerId = "AD62C6D0-0611-42BF-ABA7-5ADD2541426F";
shapes = (
{
closed = 1;
nodes = (
(713,1460,l),
(384,1460,l),
(100,0,l),
(429,0,l)
);
},
{
closed = 1;
nodes = (
(314,271,l),
(261,0,l),
(1207,0,l),
(1290,271,l)
);
},
{
closed = 1;
nodes = (
(459,866,l),
(409,609,l),
(1166,609,l),
(1216,866,l)
);
},
{
closed = 1;
nodes = (
(1461,1460,l),
(545,1460,l),
(492,1189,l),
(1438,1189,l)
);
},
{
closed = 1;
nodes = (
(833,1619,l),
(1108,1918,l),
(1461,1918,l),
(1112,1619,l)
);
}
);
width = 1555;
},
{
layerId = "D91E39D8-7CC3-444E-9A45-AC8D9F6D33DB";
shapes = (
{
closed = 1;
nodes = (
(530,1460,l),
(404,1460,l),
(120,0,l),
(246,0,l)
);
},
{
closed = 1;
nodes = (
(226,110,l),
(205,0,l),
(961,0,l),
(1002,110,l)
);
},
{
closed = 1;
nodes = (
(356,779,l),
(336,674,l),
(949,674,l),
(969,779,l)
);
},
{
closed = 1;
nodes = (
(1205,1460,l),
(489,1460,l),
(467,1350,l),
(1203,1350,l)
);
},
{
closed = 1;
nodes = (
(810,1650,l),
(1077,1883,l),
(1217,1883,l),
(919,1650,l)
);
}
);
width = 1240;
}
);
unicode = 201;
},
{
glyphname = Ebreve;
lastChange = "2024-05-08 17:39:43 +0000";
layers = (
{
layerId = "B4DB2FCE-8F13-48AA-B57C-2BFA4BDFBB5B";
shapes = (
{
closed = 1;
nodes = (
(471,1460,l),
(142,1460,l),
(142,0,l),
(471,0,l)
);
},
{
closed = 1;
nodes = (
(303,271,l),
(303,0,l),
(1062,0,l),
(1092,271,l)
);
},
{
closed = 1;
nodes = (
(333,866,l),
(333,609,l),
(937,609,l),
(937,866,l)
);
},
{
closed = 1;
nodes = (
(1032,1460,l),
(303,1460,l),
(303,1189,l),
(1062,1189,l)
);
},
{
closed = 1;
nodes = (
(787,1600,l),
(980,1753,l),
(980,1878,l),
(782,1878,l),
(782,1820,l),
(707,1763,l),
(533,1763,l),
(458,1820,l),
(458,1878,l),
(260,1878,l),
(260,1752,l),
(453,1600,l)
);
}
);
width = 1240;
},
{
layerId = "44BD81D2-59FE-4749-9CEB-CE9A9BBF7E1D";
shapes = (
{
closed = 1;
nodes = (
(416,1460,l),
(290,1460,l),
(290,0,l),
(416,0,l)
);
},
{
closed = 1;
nodes = (
(375,110,l),
(375,0,l),
(1318,0,l),
(1338,110,l)
);
},
{
closed = 1;
nodes = (
(375,779,l),
(375,674,l),
(1141,674,l),
(1141,779,l)
);
},
{
closed = 1;
nodes = (
(1278,1460,l),
(375,1460,l),
(375,1350,l),
(1298,1350,l)
);
},
{
closed = 1;
nodes = (
(978,1643,l),
(1128,1760,l),
(1128,1883,l),
(1038,1883,l),
(1038,1797,l),
(938,1731,l),
(684,1731,l),
(584,1797,l),
(584,1883,l),
(494,1883,l),
(494,1759,l),
(644,1643,l)
);
}
);
width = 1555;
},
{
layerId = "C51B4FD0-B2BF-40BC-847B-12841EA1BD5E";
shapes = (
{
closed = 1;
nodes = (
(534,1460,l),
(205,1460,l),
(205,0,l),
(534,0,l)
);
},
{
closed = 1;
nodes = (
(366,271,l),
(366,0,l),
(1312,0,l),
(1342,271,l)
);
},
{
closed = 1;
nodes = (
(396,866,l),
(396,609,l),
(1153,609,l),
(1153,866,l)
);
},
{
closed = 1;
nodes = (
(1282,1460,l),
(366,1460,l),
(366,1189,l),
(1312,1189,l)
);
},
{
closed = 1;
nodes = (
(956,1610,l),
(1159,1773,l),
(1159,1908,l),
(961,1908,l),
(961,1840,l),
(876,1773,l),
(642,1773,l),
(557,1840,l),
(557,1908,l),
(359,1908,l),
(359,1772,l),
(562,1610,l)
);
}
);
width = 1555;
},
{
layerId = "70AA2382-B93B-4577-8C7E-04CBB56D22D0";
shapes = (
{
closed = 1;
nodes = (
(343,1460,l),
(217,1460,l),
(217,0,l),
(343,0,l)
);
},
{
closed = 1;
nodes = (
(302,110,l),
(302,0,l),
(1058,0,l),
(1078,110,l)
);
},
{
closed = 1;
nodes = (
(302,779,l),
(302,674,l),
(915,674,l),
(915,779,l)
);
},
{
closed = 1;
nodes = (
(1018,1460,l),
(302,1460,l),
(302,1350,l),
(1038,1350,l)
);
},
{
closed = 1;
nodes = (
(797,1643,l),
(917,1760,l),
(917,1883,l),
(827,1883,l),
(827,1797,l),
(757,1731,l),
(543,1731,l),
(473,1797,l),
(473,1883,l),
(383,1883,l),
(383,1759,l),
(503,1643,l)
);
}
);
width = 1240;
},
{
layerId = "32C81056-0B67-48FF-9423-60F4119D1D79";
shapes = (
{
closed = 1;
nodes = (
(603,1460,l),
(477,1460,l),
(193,0,l),
(319,0,l)
);
},
{
closed = 1;
nodes = (
(299,110,l),
(278,0,l),
(1221,0,l),
(1262,110,l)
);
},
{
closed = 1;
nodes = (
(429,779,l),
(409,674,l),
(1175,674,l),
(1195,779,l)
);
},
{
closed = 1;
nodes = (
(1465,1460,l),
(562,1460,l),
(540,1350,l),
(1463,1350,l)
);
},
{
closed = 1;
nodes = (
(1200,1643,l),
(1373,1760,l),
(1397,1883,l),
(1307,1883,l),
(1290,1797,l),
(1177,1731,l),
(923,1731,l),
(836,1797,l),
(853,1883,l),
(763,1883,l),
(739,1759,l),
(866,1643,l)
);
}
);
width = 1555;
},
{
layerId = "7F8FBB26-3B45-4F09-894A-43C94E46FA86";
shapes = (
{
closed = 1;
nodes = (
(650,1460,l),
(321,1460,l),
(37,0,l),
(366,0,l)
);
},
{
closed = 1;
nodes = (
(251,271,l),
(198,0,l),
(957,0,l),
(1040,271,l)
);
},
{
closed = 1;
nodes = (
(396,866,l),
(346,609,l),
(950,609,l),
(1000,866,l)
);
},
{
closed = 1;
nodes = (
(1211,1460,l),
(482,1460,l),
(429,1189,l),
(1188,1189,l)
);
},
{
closed = 1;
nodes = (
(993,1600,l),
(1216,1753,l),
(1240,1878,l),
(1042,1878,l),
(1031,1820,l),
(945,1763,l),
(771,1763,l),
(707,1820,l),
(718,1878,l),
(520,1878,l),
(496,1752,l),
(659,1600,l)
);
}
);
width = 1240;
},
{
layerId = "AD62C6D0-0611-42BF-ABA7-5ADD2541426F";
shapes = (
{
closed = 1;
nodes = (
(713,1460,l),
(384,1460,l),
(100,0,l),
(429,0,l)
);
},
{
closed = 1;
nodes = (
(314,271,l),
(261,0,l),
(1207,0,l),
(1290,271,l)
);
},
{
closed = 1;
nodes = (
(459,866,l),
(409,609,l),
(1166,609,l),
(1216,866,l)
);
},
{
closed = 1;
nodes = (
(1461,1460,l),
(545,1460,l),
(492,1189,l),
(1438,1189,l)
);
},
{
closed = 1;
nodes = (
(1164,1610,l),
(1399,1773,l),
(1425,1908,l),
(1227,1908,l),
(1214,1840,l),
(1116,1773,l),
(882,1773,l),
(810,1840,l),
(823,1908,l),
(625,1908,l),
(598,1772,l),
(770,1610,l)
);
}
);
width = 1555;
},
{
layerId = "D91E39D8-7CC3-444E-9A45-AC8D9F6D33DB";
shapes = (
{
closed = 1;
nodes = (
(530,1460,l),
(404,1460,l),
(120,0,l),
(246,0,l)
);
},
{
closed = 1;
nodes = (
(226,110,l),
(205,0,l),
(961,0,l),
(1002,110,l)
);
},
{
closed = 1;
nodes = (
(356,779,l),
(336,674,l),
(949,674,l),
(969,779,l)
);
},
{
closed = 1;
nodes = (
(1205,1460,l),
(489,1460,l),
(467,1350,l),
(1203,1350,l)
);
},
{
closed = 1;
nodes = (
(1019,1643,l),
(1162,1760,l),
(1186,1883,l),
(1096,1883,l),
(1079,1797,l),
(996,1731,l),
(782,1731,l),
(725,1797,l),
(742,1883,l),
(652,1883,l),
(628,1759,l),
(725,1643,l)
);
}
);
width = 1240;
}
);
unicode = 276;
},
{
glyphname = Ecaron;
lastChange = "2024-05-08 17:39:43 +0000";
layers = (
{
layerId = "B4DB2FCE-8F13-48AA-B57C-2BFA4BDFBB5B";
shapes = (
{
closed = 1;
nodes = (
(471,1460,l),
(142,1460,l),
(142,0,l),
(471,0,l)
);
},
{
closed = 1;
nodes = (
(303,271,l),
(303,0,l),
(1062,0,l),
(1092,271,l)
);
},
{
closed = 1;
nodes = (
(333,866,l),
(333,609,l),
(937,609,l),
(937,866,l)
);
},
{
closed = 1;
nodes = (
(1032,1460,l),
(303,1460,l),
(303,1189,l),
(1062,1189,l)
);
},
{
closed = 1;
nodes = (
(483,1878,l),
(644,1674,l),
(596,1674,l),
(757,1878,l),
(1041,1878,l),
(813,1620,l),
(427,1620,l),
(199,1878,l)
);
}
);
width = 1240;
},
{
layerId = "44BD81D2-59FE-4749-9CEB-CE9A9BBF7E1D";
shapes = (
{
closed = 1;
nodes = (
(416,1460,l),
(290,1460,l),
(290,0,l),
(416,0,l)
);
},
{
closed = 1;
nodes = (
(375,110,l),
(375,0,l),
(1318,0,l),
(1338,110,l)
);
},
{
closed = 1;
nodes = (
(375,779,l),
(375,674,l),
(1141,674,l),
(1141,779,l)
);
},
{
closed = 1;
nodes = (
(1278,1460,l),
(375,1460,l),
(375,1350,l),
(1298,1350,l)
);
},
{
closed = 1;
nodes = (
(570,1883,l),
(845,1674,l),
(783,1674,l),
(1059,1883,l),
(1206,1883,l),
(892,1650,l),
(736,1650,l),
(423,1883,l)
);
}
);
width = 1555;
},
{
layerId = "C51B4FD0-B2BF-40BC-847B-12841EA1BD5E";
shapes = (
{
closed = 1;
nodes = (
(534,1460,l),
(205,1460,l),
(205,0,l),
(534,0,l)
);
},
{
closed = 1;
nodes = (
(366,271,l),
(366,0,l),
(1312,0,l),
(1342,271,l)
);
},
{
closed = 1;
nodes = (
(396,866,l),
(396,609,l),
(1153,609,l),
(1153,866,l)
);
},
{
closed = 1;
nodes = (
(1282,1460,l),
(366,1460,l),
(366,1189,l),
(1312,1189,l)
);
},
{
closed = 1;
nodes = (
(592,1908,l),
(792,1662,l),
(724,1662,l),
(925,1908,l),
(1239,1908,l),
(951,1620,l),
(565,1620,l),
(278,1908,l)
);
}
);
width = 1555;
},
{
layerId = "70AA2382-B93B-4577-8C7E-04CBB56D22D0";
shapes = (
{
closed = 1;
nodes = (
(343,1460,l),
(217,1460,l),
(217,0,l),
(343,0,l)
);
},
{
closed = 1;
nodes = (
(302,110,l),
(302,0,l),
(1058,0,l),
(1078,110,l)
);
},
{
closed = 1;
nodes = (
(302,779,l),
(302,674,l),
(915,674,l),
(915,779,l)
);
},
{
closed = 1;
nodes = (
(1018,1460,l),
(302,1460,l),
(302,1350,l),
(1038,1350,l)
);
},
{
closed = 1;
nodes = (
(459,1883,l),
(678,1679,l),
(622,1679,l),
(841,1883,l),
(972,1883,l),
(708,1650,l),
(592,1650,l),
(328,1883,l)
);
}
);
width = 1240;
},
{
layerId = "32C81056-0B67-48FF-9423-60F4119D1D79";
shapes = (
{
closed = 1;
nodes = (
(603,1460,l),
(477,1460,l),
(193,0,l),
(319,0,l)
);
},
{
closed = 1;
nodes = (
(299,110,l),
(278,0,l),
(1221,0,l),
(1262,110,l)
);
},
{
closed = 1;
nodes = (
(429,779,l),
(409,674,l),
(1175,674,l),
(1195,779,l)
);
},
{
closed = 1;
nodes = (
(1465,1460,l),
(562,1460,l),
(540,1350,l),
(1463,1350,l)
);
},
{
closed = 1;
nodes = (
(839,1883,l),
(1073,1674,l),
(1011,1674,l),
(1328,1883,l),
(1475,1883,l),
(1116,1650,l),
(960,1650,l),
(692,1883,l)
);
}
);
width = 1555;
},
{
layerId = "7F8FBB26-3B45-4F09-894A-43C94E46FA86";
shapes = (
{
closed = 1;
nodes = (
(650,1460,l),
(321,1460,l),
(37,0,l),
(366,0,l)
);
},
{
closed = 1;
nodes = (
(251,271,l),
(198,0,l),
(957,0,l),
(1040,271,l)
);
},
{
closed = 1;
nodes = (
(396,866,l),
(346,609,l),
(950,609,l),
(1000,866,l)
);
},
{
closed = 1;
nodes = (
(1211,1460,l),
(482,1460,l),
(429,1189,l),
(1188,1189,l)
);
},
{
closed = 1;
nodes = (
(743,1878,l),
(864,1674,l),
(816,1674,l),
(1017,1878,l),
(1301,1878,l),
(1023,1620,l),
(637,1620,l),
(459,1878,l)
);
}
);
width = 1240;
},
{
layerId = "AD62C6D0-0611-42BF-ABA7-5ADD2541426F";
shapes = (
{
closed = 1;
nodes = (
(713,1460,l),
(384,1460,l),
(100,0,l),
(429,0,l)
);
},
{
closed = 1;
nodes = (
(314,271,l),
(261,0,l),
(1207,0,l),
(1290,271,l)
);
},
{
closed = 1;
nodes = (
(459,866,l),
(409,609,l),
(1166,609,l),
(1216,866,l)
);
},
{
closed = 1;
nodes = (
(1461,1460,l),
(545,1460,l),
(492,1189,l),
(1438,1189,l)
);
},
{
closed = 1;
nodes = (
(858,1908,l),
(1010,1662,l),
(942,1662,l),
(1191,1908,l),
(1505,1908,l),
(1161,1620,l),
(775,1620,l),
(544,1908,l)
);
}
);
width = 1555;
},
{
layerId = "D91E39D8-7CC3-444E-9A45-AC8D9F6D33DB";
shapes = (
{
closed = 1;
nodes = (
(530,1460,l),
(404,1460,l),
(120,0,l),
(246,0,l)
);
},
{
closed = 1;
nodes = (
(226,110,l),
(205,0,l),
(961,0,l),
(1002,110,l)
);
},
{
closed = 1;
nodes = (
(356,779,l),
(336,674,l),
(949,674,l),
(969,779,l)
);
},
{
closed = 1;
nodes = (
(1205,1460,l),
(489,1460,l),
(467,1350,l),
(1203,1350,l)
);
},
{
closed = 1;
nodes = (
(728,1883,l),
(907,1679,l),
(851,1679,l),
(1110,1883,l),
(1241,1883,l),
(932,1650,l),
(816,1650,l),
(597,1883,l)
);
}
);
width = 1240;
}
);
unicode = 282;
},
{
glyphname = Ecircumflex;
lastChange = "2024-05-08 17:39:43 +0000";
layers = (
{
layerId = "B4DB2FCE-8F13-48AA-B57C-2BFA4BDFBB5B";
shapes = (
{
closed = 1;
nodes = (
(471,1460,l),
(142,1460,l),
(142,0,l),
(471,0,l)
);
},
{
closed = 1;
nodes = (
(303,271,l),
(303,0,l),
(1062,0,l),
(1092,271,l)
);
},
{
closed = 1;
nodes = (
(333,866,l),
(333,609,l),
(937,609,l),
(937,866,l)
);
},
{
closed = 1;
nodes = (
(1032,1460,l),
(303,1460,l),
(303,1189,l),
(1062,1189,l)
);
},
{
closed = 1;
nodes = (
(483,1620,l),
(644,1824,l),
(596,1824,l),
(757,1620,l),
(1041,1620,l),
(813,1878,l),
(427,1878,l),
(199,1620,l)
);
}
);
width = 1240;
},
{
layerId = "44BD81D2-59FE-4749-9CEB-CE9A9BBF7E1D";
shapes = (
{
closed = 1;
nodes = (
(416,1460,l),
(290,1460,l),
(290,0,l),
(416,0,l)
);
},
{
closed = 1;
nodes = (
(375,110,l),
(375,0,l),
(1318,0,l),
(1338,110,l)
);
},
{
closed = 1;
nodes = (
(375,779,l),
(375,674,l),
(1141,674,l),
(1141,779,l)
);
},
{
closed = 1;
nodes = (
(1278,1460,l),
(375,1460,l),
(375,1350,l),
(1298,1350,l)
);
},
{
closed = 1;
nodes = (
(570,1650,l),
(845,1859,l),
(783,1859,l),
(1059,1650,l),
(1206,1650,l),
(892,1883,l),
(736,1883,l),
(423,1650,l)
);
}
);
width = 1555;
},
{
layerId = "C51B4FD0-B2BF-40BC-847B-12841EA1BD5E";
shapes = (
{
closed = 1;
nodes = (
(534,1460,l),
(205,1460,l),
(205,0,l),
(534,0,l)
);
},
{
closed = 1;
nodes = (
(366,271,l),
(366,0,l),
(1312,0,l),
(1342,271,l)
);
},
{
closed = 1;
nodes = (
(396,866,l),
(396,609,l),
(1153,609,l),
(1153,866,l)
);
},
{
closed = 1;
nodes = (
(1282,1460,l),
(366,1460,l),
(366,1189,l),
(1312,1189,l)
);
},
{
closed = 1;
nodes = (
(592,1620,l),
(792,1866,l),
(724,1866,l),
(925,1620,l),
(1239,1620,l),
(951,1908,l),
(565,1908,l),
(278,1620,l)
);
}
);
width = 1555;
},
{
layerId = "70AA2382-B93B-4577-8C7E-04CBB56D22D0";
shapes = (
{
closed = 1;
nodes = (
(343,1460,l),
(217,1460,l),
(217,0,l),
(343,0,l)
);
},
{
closed = 1;
nodes = (
(302,110,l),
(302,0,l),
(1058,0,l),
(1078,110,l)
);
},
{
closed = 1;
nodes = (
(302,779,l),
(302,674,l),
(915,674,l),
(915,779,l)
);
},
{
closed = 1;
nodes = (
(1018,1460,l),
(302,1460,l),
(302,1350,l),
(1038,1350,l)
);
},
{
closed = 1;
nodes = (
(459,1650,l),
(678,1854,l),
(622,1854,l),
(841,1650,l),
(972,1650,l),
(708,1883,l),
(592,1883,l),
(328,1650,l)
);
}
);
width = 1240;
},
{
layerId = "32C81056-0B67-48FF-9423-60F4119D1D79";
shapes = (
{
closed = 1;
nodes = (
(603,1460,l),
(477,1460,l),
(193,0,l),
(319,0,l)
);
},
{
closed = 1;
nodes = (
(299,110,l),
(278,0,l),
(1221,0,l),
(1262,110,l)
);
},
{
closed = 1;
nodes = (
(429,779,l),
(409,674,l),
(1175,674,l),
(1195,779,l)
);
},
{
closed = 1;
nodes = (
(1465,1460,l),
(562,1460,l),
(540,1350,l),
(1463,1350,l)
);
},
{
closed = 1;
nodes = (
(794,1650,l),
(1109,1859,l),
(1047,1859,l),
(1283,1650,l),
(1430,1650,l),
(1161,1883,l),
(1005,1883,l),
(647,1650,l)
);
}
);
width = 1555;
},
{
layerId = "7F8FBB26-3B45-4F09-894A-43C94E46FA86";
shapes = (
{
closed = 1;
nodes = (
(650,1460,l),
(321,1460,l),
(37,0,l),
(366,0,l)
);
},
{
closed = 1;
nodes = (
(251,271,l),
(198,0,l),
(957,0,l),
(1040,271,l)
);
},
{
closed = 1;
nodes = (
(396,866,l),
(346,609,l),
(950,609,l),
(1000,866,l)
);
},
{
closed = 1;
nodes = (
(1211,1460,l),
(482,1460,l),
(429,1189,l),
(1188,1189,l)
);
},
{
closed = 1;
nodes = (
(693,1620,l),
(894,1824,l),
(846,1824,l),
(967,1620,l),
(1251,1620,l),
(1073,1878,l),
(687,1878,l),
(409,1620,l)
);
}
);
width = 1240;
},
{
layerId = "AD62C6D0-0611-42BF-ABA7-5ADD2541426F";
shapes = (
{
closed = 1;
nodes = (
(713,1460,l),
(384,1460,l),
(100,0,l),
(429,0,l)
);
},
{
closed = 1;
nodes = (
(314,271,l),
(261,0,l),
(1207,0,l),
(1290,271,l)
);
},
{
closed = 1;
nodes = (
(459,866,l),
(409,609,l),
(1166,609,l),
(1216,866,l)
);
},
{
closed = 1;
nodes = (
(1461,1460,l),
(545,1460,l),
(492,1189,l),
(1438,1189,l)
);
},
{
closed = 1;
nodes = (
(802,1620,l),
(1050,1866,l),
(982,1866,l),
(1135,1620,l),
(1449,1620,l),
(1217,1908,l),
(831,1908,l),
(488,1620,l)
);
}
);
width = 1555;
},
{
layerId = "D91E39D8-7CC3-444E-9A45-AC8D9F6D33DB";
shapes = (
{
closed = 1;
nodes = (
(530,1460,l),
(404,1460,l),
(120,0,l),
(246,0,l)
);
},
{
closed = 1;
nodes = (
(226,110,l),
(205,0,l),
(961,0,l),
(1002,110,l)
);
},
{
closed = 1;
nodes = (
(356,779,l),
(336,674,l),
(949,674,l),
(969,779,l)
);
},
{
closed = 1;
nodes = (
(1205,1460,l),
(489,1460,l),
(467,1350,l),
(1203,1350,l)
);
},
{
closed = 1;
nodes = (
(683,1650,l),
(941,1854,l),
(885,1854,l),
(1065,1650,l),
(1196,1650,l),
(977,1883,l),
(861,1883,l),
(552,1650,l)
);
}
);
width = 1240;
}
);
unicode = 202;
},
{
glyphname = Edieresis;
lastChange = "2024-05-08 17:39:43 +0000";
layers = (
{
layerId = "B4DB2FCE-8F13-48AA-B57C-2BFA4BDFBB5B";
shapes = (
{
closed = 1;
nodes = (
(471,1460,l),
(142,1460,l),
(142,0,l),
(471,0,l)
);
},
{
closed = 1;
nodes = (
(303,271,l),
(303,0,l),
(1062,0,l),
(1092,271,l)
);
},
{
closed = 1;
nodes = (
(333,866,l),
(333,609,l),
(937,609,l),
(937,866,l)
);
},
{
closed = 1;
nodes = (
(1032,1460,l),
(303,1460,l),
(303,1189,l),
(1062,1189,l)
);
},
{
closed = 1;
nodes = (
(510.592,1786.8,l),
(339.68,1954,l),
(167.984,1786.8,l),
(339.68,1618.8,l)
);
},
{
closed = 1;
nodes = (
(1071.592,1786.8,l),
(900.68,1954,l),
(728.984,1786.8,l),
(900.68,1618.8,l)
);
}
);
width = 1240;
},
{
layerId = "44BD81D2-59FE-4749-9CEB-CE9A9BBF7E1D";
shapes = (
{
closed = 1;
nodes = (
(416,1460,l),
(290,1460,l),
(290,0,l),
(416,0,l)
);
},
{
closed = 1;
nodes = (
(375,110,l),
(375,0,l),
(1318,0,l),
(1338,110,l)
);
},
{
closed = 1;
nodes = (
(375,779,l),
(375,674,l),
(1141,674,l),
(1141,779,l)
);
},
{
closed = 1;
nodes = (
(1278,1460,l),
(375,1460,l),
(375,1350,l),
(1298,1350,l)
);
},
{
closed = 1;
nodes = (
(646,1756,l),
(509,1886,l),
(372,1756,l),
(509,1626,l)
);
},
{
closed = 1;
nodes = (
(1258,1756,l),
(1121,1886,l),
(984,1756,l),
(1121,1626,l)
);
}
);
width = 1555;
},
{
layerId = "C51B4FD0-B2BF-40BC-847B-12841EA1BD5E";
shapes = (
{
closed = 1;
nodes = (
(534,1460,l),
(205,1460,l),
(205,0,l),
(534,0,l)
);
},
{
closed = 1;
nodes = (
(366,271,l),
(366,0,l),
(1312,0,l),
(1342,271,l)
);
},
{
closed = 1;
nodes = (
(396,866,l),
(396,609,l),
(1153,609,l),
(1153,866,l)
);
},
{
closed = 1;
nodes = (
(1282,1460,l),
(366,1460,l),
(366,1189,l),
(1312,1189,l)
);
},
{
closed = 1;
nodes = (
(598,1797,l),
(427,1964,l),
(255,1797,l),
(427,1629,l)
);
},
{
closed = 1;
nodes = (
(1271,1797,l),
(1100,1964,l),
(928,1797,l),
(1100,1629,l)
);
}
);
width = 1555;
},
{
layerId = "70AA2382-B93B-4577-8C7E-04CBB56D22D0";
shapes = (
{
closed = 1;
nodes = (
(343,1460,l),
(217,1460,l),
(217,0,l),
(343,0,l)
);
},
{
closed = 1;
nodes = (
(302,110,l),
(302,0,l),
(1058,0,l),
(1078,110,l)
);
},
{
closed = 1;
nodes = (
(302,779,l),
(302,674,l),
(915,674,l),
(915,779,l)
);
},
{
closed = 1;
nodes = (
(1018,1460,l),
(302,1460,l),
(302,1350,l),
(1038,1350,l)
);
},
{
closed = 1;
nodes = (
(537.86,1756,l),
(403.6,1886,l),
(269.34,1756,l),
(403.6,1626,l)
);
},
{
closed = 1;
nodes = (
(1030.86,1756,l),
(896.6,1886,l),
(762.34,1756,l),
(896.6,1626,l)
);
}
);
width = 1240;
},
{
layerId = "32C81056-0B67-48FF-9423-60F4119D1D79";
shapes = (
{
closed = 1;
nodes = (
(603,1460,l),
(477,1460,l),
(193,0,l),
(319,0,l)
);
},
{
closed = 1;
nodes = (
(299,110,l),
(278,0,l),
(1221,0,l),
(1262,110,l)
);
},
{
closed = 1;
nodes = (
(429,779,l),
(409,674,l),
(1175,674,l),
(1195,779,l)
);
},
{
closed = 1;
nodes = (
(1465,1460,l),
(562,1460,l),
(540,1350,l),
(1463,1350,l)
);
},
{
closed = 1;
nodes = (
(890,1756,l),
(779,1886,l),
(616,1756,l),
(728,1626,l)
);
},
{
closed = 1;
nodes = (
(1502,1756,l),
(1391,1886,l),
(1228,1756,l),
(1340,1626,l)
);
}
);
width = 1555;
},
{
layerId = "7F8FBB26-3B45-4F09-894A-43C94E46FA86";
shapes = (
{
closed = 1;
nodes = (
(650,1460,l),
(321,1460,l),
(37,0,l),
(366,0,l)
);
},
{
closed = 1;
nodes = (
(251,271,l),
(198,0,l),
(957,0,l),
(1040,271,l)
);
},
{
closed = 1;
nodes = (
(396,866,l),
(346,609,l),
(950,609,l),
(1000,866,l)
);
},
{
closed = 1;
nodes = (
(1211,1460,l),
(482,1460,l),
(429,1189,l),
(1188,1189,l)
);
},
{
closed = 1;
nodes = (
(753,1787,l),
(614,1954,l),
(410,1787,l),
(549,1619,l)
);
},
{
closed = 1;
nodes = (
(1314,1787,l),
(1175,1954,l),
(971,1787,l),
(1110,1619,l)
);
}
);
width = 1240;
},
{
layerId = "AD62C6D0-0611-42BF-ABA7-5ADD2541426F";
shapes = (
{
closed = 1;
nodes = (
(713,1460,l),
(384,1460,l),
(100,0,l),
(429,0,l)
);
},
{
closed = 1;
nodes = (
(314,271,l),
(261,0,l),
(1207,0,l),
(1290,271,l)
);
},
{
closed = 1;
nodes = (
(459,866,l),
(409,609,l),
(1166,609,l),
(1216,866,l)
);
},
{
closed = 1;
nodes = (
(1461,1460,l),
(545,1460,l),
(492,1189,l),
(1438,1189,l)
);
},
{
closed = 1;
nodes = (
(842,1797,l),
(704,1964,l),
(499,1797,l),
(638,1629,l)
);
},
{
closed = 1;
nodes = (
(1515,1797,l),
(1377,1964,l),
(1172,1797,l),
(1311,1629,l)
);
}
);
width = 1555;
},
{
layerId = "D91E39D8-7CC3-444E-9A45-AC8D9F6D33DB";
shapes = (
{
closed = 1;
nodes = (
(530,1460,l),
(404,1460,l),
(120,0,l),
(246,0,l)
);
},
{
closed = 1;
nodes = (
(226,110,l),
(205,0,l),
(961,0,l),
(1002,110,l)
);
},
{
closed = 1;
nodes = (
(356,779,l),
(336,674,l),
(949,674,l),
(969,779,l)
);
},
{
closed = 1;
nodes = (
(1205,1460,l),
(489,1460,l),
(467,1350,l),
(1203,1350,l)
);
},
{
closed = 1;
nodes = (
(782,1756,l),
(673,1886,l),
(514,1756,l),
(623,1626,l)
);
},
{
closed = 1;
nodes = (
(1275,1756,l),
(1166,1886,l),
(1007,1756,l),
(1116,1626,l)
);
}
);
width = 1240;
}
);
unicode = 203;
},
{
glyphname = Edotaccent;
lastChange = "2024-05-08 17:39:43 +0000";
layers = (
{
layerId = "B4DB2FCE-8F13-48AA-B57C-2BFA4BDFBB5B";
shapes = (
{
closed = 1;
nodes = (
(471,1460,l),
(142,1460,l),
(142,0,l),
(471,0,l)
);
},
{
closed = 1;
nodes = (
(303,271,l),
(303,0,l),
(1062,0,l),
(1092,271,l)
);
},
{
closed = 1;
nodes = (
(333,866,l),
(333,609,l),
(937,609,l),
(937,866,l)
);
},
{
closed = 1;
nodes = (
(1032,1460,l),
(303,1460,l),
(303,1189,l),
(1062,1189,l)
);
},
{
closed = 1;
nodes = (
(790.4,1786.8,l),
(616,1954,l),
(440.8,1786.8,l),
(616,1618.8,l)
);
}
);
width = 1240;
},
{
layerId = "44BD81D2-59FE-4749-9CEB-CE9A9BBF7E1D";
shapes = (
{
closed = 1;
nodes = (
(416,1460,l),
(290,1460,l),
(290,0,l),
(416,0,l)
);
},
{
closed = 1;
nodes = (
(375,110,l),
(375,0,l),
(1318,0,l),
(1338,110,l)
);
},
{
closed = 1;
nodes = (
(375,779,l),
(375,674,l),
(1141,674,l),
(1141,779,l)
);
},
{
closed = 1;
nodes = (
(1278,1460,l),
(375,1460,l),
(375,1350,l),
(1298,1350,l)
);
},
{
closed = 1;
nodes = (
(952,1756,l),
(815,1886,l),
(678,1756,l),
(815,1626,l)
);
}
);
width = 1555;
},
{
layerId = "C51B4FD0-B2BF-40BC-847B-12841EA1BD5E";
shapes = (
{
closed = 1;
nodes = (
(534,1460,l),
(205,1460,l),
(205,0,l),
(534,0,l)
);
},
{
closed = 1;
nodes = (
(366,271,l),
(366,0,l),
(1312,0,l),
(1342,271,l)
);
},
{
closed = 1;
nodes = (
(396,866,l),
(396,609,l),
(1153,609,l),
(1153,866,l)
);
},
{
closed = 1;
nodes = (
(1282,1460,l),
(366,1460,l),
(366,1189,l),
(1312,1189,l)
);
},
{
closed = 1;
nodes = (
(933,1797,l),
(758,1964,l),
(583,1797,l),
(758,1629,l)
);
}
);
width = 1555;
},
{
layerId = "70AA2382-B93B-4577-8C7E-04CBB56D22D0";
shapes = (
{
closed = 1;
nodes = (
(343,1460,l),
(217,1460,l),
(217,0,l),
(343,0,l)
);
},
{
closed = 1;
nodes = (
(302,110,l),
(302,0,l),
(1058,0,l),
(1078,110,l)
);
},
{
closed = 1;
nodes = (
(302,779,l),
(302,674,l),
(915,674,l),
(915,779,l)
);
},
{
closed = 1;
nodes = (
(1018,1460,l),
(302,1460,l),
(302,1350,l),
(1038,1350,l)
);
},
{
closed = 1;
nodes = (
(787,1756,l),
(650,1886,l),
(513,1756,l),
(650,1626,l)
);
}
);
width = 1240;
},
{
layerId = "32C81056-0B67-48FF-9423-60F4119D1D79";
shapes = (
{
closed = 1;
nodes = (
(603,1460,l),
(477,1460,l),
(193,0,l),
(319,0,l)
);
},
{
closed = 1;
nodes = (
(299,110,l),
(278,0,l),
(1221,0,l),
(1262,110,l)
);
},
{
closed = 1;
nodes = (
(429,779,l),
(409,674,l),
(1175,674,l),
(1195,779,l)
);
},
{
closed = 1;
nodes = (
(1465,1460,l),
(562,1460,l),
(540,1350,l),
(1463,1350,l)
);
},
{
closed = 1;
nodes = (
(1196,1756,l),
(1085,1886,l),
(922,1756,l),
(1034,1626,l)
);
}
);
width = 1555;
},
{
layerId = "7F8FBB26-3B45-4F09-894A-43C94E46FA86";
shapes = (
{
closed = 1;
nodes = (
(650,1460,l),
(321,1460,l),
(37,0,l),
(366,0,l)
);
},
{
closed = 1;
nodes = (
(251,271,l),
(198,0,l),
(957,0,l),
(1040,271,l)
);
},
{
closed = 1;
nodes = (
(396,866,l),
(346,609,l),
(950,609,l),
(1000,866,l)
);
},
{
closed = 1;
nodes = (
(1211,1460,l),
(482,1460,l),
(429,1189,l),
(1188,1189,l)
);
},
{
closed = 1;
nodes = (
(1033,1787,l),
(891,1954,l),
(683,1787,l),
(826,1619,l)
);
}
);
width = 1240;
},
{
layerId = "AD62C6D0-0611-42BF-ABA7-5ADD2541426F";
shapes = (
{
closed = 1;
nodes = (
(713,1460,l),
(384,1460,l),
(100,0,l),
(429,0,l)
);
},
{
closed = 1;
nodes = (
(314,271,l),
(261,0,l),
(1207,0,l),
(1290,271,l)
);
},
{
closed = 1;
nodes = (
(459,866,l),
(409,609,l),
(1166,609,l),
(1216,866,l)
);
},
{
closed = 1;
nodes = (
(1461,1460,l),
(545,1460,l),
(492,1189,l),
(1438,1189,l)
);
},
{
closed = 1;
nodes = (
(1177,1797,l),
(1035,1964,l),
(827,1797,l),
(970,1629,l)
);
}
);
width = 1555;
},
{
layerId = "D91E39D8-7CC3-444E-9A45-AC8D9F6D33DB";
shapes = (
{
closed = 1;
nodes = (
(530,1460,l),
(404,1460,l),
(120,0,l),
(246,0,l)
);
},
{
closed = 1;
nodes = (
(226,110,l),
(205,0,l),
(961,0,l),
(1002,110,l)
);
},
{
closed = 1;
nodes = (
(356,779,l),
(336,674,l),
(949,674,l),
(969,779,l)
);
},
{
closed = 1;
nodes = (
(1205,1460,l),
(489,1460,l),
(467,1350,l),
(1203,1350,l)
);
},
{
closed = 1;
nodes = (
(1031,1756,l),
(920,1886,l),
(757,1756,l),
(869,1626,l)
);
}
);
width = 1240;
}
);
unicode = 278;
},
{
glyphname = Edotbelow;
lastChange = "2024-05-08 17:39:43 +0000";
layers = (
{
layerId = "B4DB2FCE-8F13-48AA-B57C-2BFA4BDFBB5B";
shapes = (
{
closed = 1;
nodes = (
(471,1460,l),
(142,1460,l),
(142,0,l),
(471,0,l)
);
},
{
closed = 1;
nodes = (
(303,271,l),
(303,0,l),
(1062,0,l),
(1092,271,l)
);
},
{
closed = 1;
nodes = (
(333,866,l),
(333,609,l),
(937,609,l),
(937,866,l)
);
},
{
closed = 1;
nodes = (
(1032,1460,l),
(303,1460,l),
(303,1189,l),
(1062,1189,l)
);
},
{
closed = 1;
nodes = (
(838,-318,l),
(620,-109,l),
(401,-318,l),
(620,-528,l)
);
}
);
width = 1240;
},
{
layerId = "44BD81D2-59FE-4749-9CEB-CE9A9BBF7E1D";
shapes = (
{
closed = 1;
nodes = (
(416,1460,l),
(290,1460,l),
(290,0,l),
(416,0,l)
);
},
{
closed = 1;
nodes = (
(375,110,l),
(375,0,l),
(1318,0,l),
(1338,110,l)
);
},
{
closed = 1;
nodes = (
(375,779,l),
(375,674,l),
(1141,674,l),
(1141,779,l)
);
},
{
closed = 1;
nodes = (
(1278,1460,l),
(375,1460,l),
(375,1350,l),
(1298,1350,l)
);
},
{
closed = 1;
nodes = (
(970,-416,l),
(833,-286,l),
(696,-416,l),
(833,-546,l)
);
}
);
width = 1555;
},
{
layerId = "C51B4FD0-B2BF-40BC-847B-12841EA1BD5E";
shapes = (
{
closed = 1;
nodes = (
(534,1460,l),
(205,1460,l),
(205,0,l),
(534,0,l)
);
},
{
closed = 1;
nodes = (
(366,271,l),
(366,0,l),
(1312,0,l),
(1342,271,l)
);
},
{
closed = 1;
nodes = (
(396,866,l),
(396,609,l),
(1153,609,l),
(1153,866,l)
);
},
{
closed = 1;
nodes = (
(1282,1460,l),
(366,1460,l),
(366,1189,l),
(1312,1189,l)
);
},
{
closed = 1;
nodes = (
(1041,-318,l),
(823,-109,l),
(604,-318,l),
(823,-528,l)
);
}
);
width = 1555;
},
{
layerId = "70AA2382-B93B-4577-8C7E-04CBB56D22D0";
shapes = (
{
closed = 1;
nodes = (
(343,1460,l),
(217,1460,l),
(217,0,l),
(343,0,l)
);
},
{
closed = 1;
nodes = (
(302,110,l),
(302,0,l),
(1058,0,l),
(1078,110,l)
);
},
{
closed = 1;
nodes = (
(302,779,l),
(302,674,l),
(915,674,l),
(915,779,l)
);
},
{
closed = 1;
nodes = (
(1018,1460,l),
(302,1460,l),
(302,1350,l),
(1038,1350,l)
);
},
{
closed = 1;
nodes = (
(757,-416,l),
(620,-286,l),
(483,-416,l),
(620,-546,l)
);
}
);
width = 1240;
},
{
layerId = "32C81056-0B67-48FF-9423-60F4119D1D79";
shapes = (
{
closed = 1;
nodes = (
(603,1460,l),
(477,1460,l),
(193,0,l),
(319,0,l)
);
},
{
closed = 1;
nodes = (
(299,110,l),
(278,0,l),
(1221,0,l),
(1262,110,l)
);
},
{
closed = 1;
nodes = (
(429,779,l),
(409,674,l),
(1175,674,l),
(1195,779,l)
);
},
{
closed = 1;
nodes = (
(1465,1460,l),
(562,1460,l),
(540,1350,l),
(1463,1350,l)
);
},
{
closed = 1;
nodes = (
(792,-416,l),
(680,-286,l),
(518,-416,l),
(630,-546,l)
);
}
);
width = 1555;
},
{
layerId = "7F8FBB26-3B45-4F09-894A-43C94E46FA86";
shapes = (
{
closed = 1;
nodes = (
(650,1460,l),
(321,1460,l),
(37,0,l),
(366,0,l)
);
},
{
closed = 1;
nodes = (
(251,271,l),
(198,0,l),
(957,0,l),
(1040,271,l)
);
},
{
closed = 1;
nodes = (
(396,866,l),
(346,609,l),
(950,609,l),
(1000,866,l)
);
},
{
closed = 1;
nodes = (
(1211,1460,l),
(482,1460,l),
(429,1189,l),
(1188,1189,l)
);
},
{
closed = 1;
nodes = (
(671,-318,l),
(494,-109,l),
(234,-318,l),
(412,-528,l)
);
}
);
width = 1240;
},
{
layerId = "AD62C6D0-0611-42BF-ABA7-5ADD2541426F";
shapes = (
{
closed = 1;
nodes = (
(713,1460,l),
(384,1460,l),
(100,0,l),
(429,0,l)
);
},
{
closed = 1;
nodes = (
(314,271,l),
(261,0,l),
(1207,0,l),
(1290,271,l)
);
},
{
closed = 1;
nodes = (
(459,866,l),
(409,609,l),
(1166,609,l),
(1216,866,l)
);
},
{
closed = 1;
nodes = (
(1461,1460,l),
(545,1460,l),
(492,1189,l),
(1438,1189,l)
);
},
{
closed = 1;
nodes = (
(874,-318,l),
(697,-109,l),
(437,-318,l),
(615,-528,l)
);
}
);
width = 1555;
},
{
layerId = "D91E39D8-7CC3-444E-9A45-AC8D9F6D33DB";
shapes = (
{
closed = 1;
nodes = (
(530,1460,l),
(404,1460,l),
(120,0,l),
(246,0,l)
);
},
{
closed = 1;
nodes = (
(226,110,l),
(205,0,l),
(961,0,l),
(1002,110,l)
);
},
{
closed = 1;
nodes = (
(356,779,l),
(336,674,l),
(949,674,l),
(969,779,l)
);
},
{
closed = 1;
nodes = (
(1205,1460,l),
(489,1460,l),
(467,1350,l),
(1203,1350,l)
);
},
{
closed = 1;
nodes = (
(579,-416,l),
(467,-286,l),
(305,-416,l),
(417,-546,l)
);
}
);
width = 1240;
}
);
unicode = 7864;
},
{
glyphname = Egrave;
lastChange = "2024-05-08 17:39:43 +0000";
layers = (
{
layerId = "B4DB2FCE-8F13-48AA-B57C-2BFA4BDFBB5B";
shapes = (
{
closed = 1;
nodes = (
(471,1460,l),
(142,1460,l),
(142,0,l),
(471,0,l)
);
},
{
closed = 1;
nodes = (
(303,271,l),
(303,0,l),
(1062,0,l),
(1092,271,l)
);
},
{
closed = 1;
nodes = (
(333,866,l),
(333,609,l),
(937,609,l),
(937,866,l)
);
},
{
closed = 1;
nodes = (
(1032,1460,l),
(303,1460,l),
(303,1189,l),
(1062,1189,l)
);
},
{
closed = 1;
nodes = (
(745,1619.05,l),
(562,1877.386,l),
(237,1877.386,l),
(486,1619.05,l)
);
}
);
width = 1240;
},
{
layerId = "44BD81D2-59FE-4749-9CEB-CE9A9BBF7E1D";
shapes = (
{
closed = 1;
nodes = (
(416,1460,l),
(290,1460,l),
(290,0,l),
(416,0,l)
);
},
{
closed = 1;
nodes = (
(375,110,l),
(375,0,l),
(1318,0,l),
(1338,110,l)
);
},
{
closed = 1;
nodes = (
(375,779,l),
(375,674,l),
(1141,674,l),
(1141,779,l)
);
},
{
closed = 1;
nodes = (
(1278,1460,l),
(375,1460,l),
(375,1350,l),
(1298,1350,l)
);
},
{
closed = 1;
nodes = (
(884,1652,l),
(612,1884,l),
(459,1884,l),
(765,1652,l)
);
}
);
width = 1555;
},
{
layerId = "C51B4FD0-B2BF-40BC-847B-12841EA1BD5E";
shapes = (
{
closed = 1;
nodes = (
(534,1460,l),
(205,1460,l),
(205,0,l),
(534,0,l)
);
},
{
closed = 1;
nodes = (
(366,271,l),
(366,0,l),
(1312,0,l),
(1342,271,l)
);
},
{
closed = 1;
nodes = (
(396,866,l),
(396,609,l),
(1153,609,l),
(1153,866,l)
);
},
{
closed = 1;
nodes = (
(1282,1460,l),
(366,1460,l),
(366,1189,l),
(1312,1189,l)
);
},
{
closed = 1;
nodes = (
(894,1619,l),
(677,1918,l),
(324,1918,l),
(615,1619,l)
);
}
);
width = 1555;
},
{
layerId = "70AA2382-B93B-4577-8C7E-04CBB56D22D0";
shapes = (
{
closed = 1;
nodes = (
(343,1460,l),
(217,1460,l),
(217,0,l),
(343,0,l)
);
},
{
closed = 1;
nodes = (
(302,110,l),
(302,0,l),
(1058,0,l),
(1078,110,l)
);
},
{
closed = 1;
nodes = (
(302,779,l),
(302,674,l),
(915,674,l),
(915,779,l)
);
},
{
closed = 1;
nodes = (
(1018,1460,l),
(302,1460,l),
(302,1350,l),
(1038,1350,l)
);
},
{
closed = 1;
nodes = (
(714,1650.191,l),
(492,1883.236,l),
(352,1883.236,l),
(605,1650.191,l)
);
}
);
width = 1240;
},
{
layerId = "32C81056-0B67-48FF-9423-60F4119D1D79";
shapes = (
{
closed = 1;
nodes = (
(603,1460,l),
(477,1460,l),
(193,0,l),
(319,0,l)
);
},
{
closed = 1;
nodes = (
(299,110,l),
(278,0,l),
(1221,0,l),
(1262,110,l)
);
},
{
closed = 1;
nodes = (
(429,779,l),
(409,674,l),
(1175,674,l),
(1195,779,l)
);
},
{
closed = 1;
nodes = (
(1465,1460,l),
(562,1460,l),
(540,1350,l),
(1463,1350,l)
);
},
{
closed = 1;
nodes = (
(1108,1652,l),
(881,1884,l),
(728,1884,l),
(989,1652,l)
);
}
);
width = 1555;
},
{
layerId = "7F8FBB26-3B45-4F09-894A-43C94E46FA86";
shapes = (
{
closed = 1;
nodes = (
(650,1460,l),
(321,1460,l),
(37,0,l),
(366,0,l)
);
},
{
closed = 1;
nodes = (
(251,271,l),
(198,0,l),
(957,0,l),
(1040,271,l)
);
},
{
closed = 1;
nodes = (
(396,866,l),
(346,609,l),
(950,609,l),
(1000,866,l)
);
},
{
closed = 1;
nodes = (
(1211,1460,l),
(482,1460,l),
(429,1189,l),
(1188,1189,l)
);
},
{
closed = 1;
nodes = (
(955,1619,l),
(822,1877,l),
(497,1877,l),
(696,1619,l)
);
}
);
width = 1240;
},
{
layerId = "AD62C6D0-0611-42BF-ABA7-5ADD2541426F";
shapes = (
{
closed = 1;
nodes = (
(713,1460,l),
(384,1460,l),
(100,0,l),
(429,0,l)
);
},
{
closed = 1;
nodes = (
(314,271,l),
(261,0,l),
(1207,0,l),
(1290,271,l)
);
},
{
closed = 1;
nodes = (
(459,866,l),
(409,609,l),
(1166,609,l),
(1216,866,l)
);
},
{
closed = 1;
nodes = (
(1461,1460,l),
(545,1460,l),
(492,1189,l),
(1438,1189,l)
);
},
{
closed = 1;
nodes = (
(1104,1619,l),
(945,1918,l),
(592,1918,l),
(825,1619,l)
);
}
);
width = 1555;
},
{
layerId = "D91E39D8-7CC3-444E-9A45-AC8D9F6D33DB";
shapes = (
{
closed = 1;
nodes = (
(530,1460,l),
(404,1460,l),
(120,0,l),
(246,0,l)
);
},
{
closed = 1;
nodes = (
(226,110,l),
(205,0,l),
(961,0,l),
(1002,110,l)
);
},
{
closed = 1;
nodes = (
(356,779,l),
(336,674,l),
(949,674,l),
(969,779,l)
);
},
{
closed = 1;
nodes = (
(1205,1460,l),
(489,1460,l),
(467,1350,l),
(1203,1350,l)
);
},
{
closed = 1;
nodes = (
(938,1650,l),
(761,1883,l),
(621,1883,l),
(829,1650,l)
);
}
);
width = 1240;
}
);
unicode = 200;
},
{
glyphname = Emacron;
lastChange = "2024-05-08 17:39:43 +0000";
layers = (
{
layerId = "B4DB2FCE-8F13-48AA-B57C-2BFA4BDFBB5B";
shapes = (
{
closed = 1;
nodes = (
(471,1460,l),
(142,1460,l),
(142,0,l),
(471,0,l)
);
},
{
closed = 1;
nodes = (
(303,271,l),
(303,0,l),
(1062,0,l),
(1092,271,l)
);
},
{
closed = 1;
nodes = (
(333,866,l),
(333,609,l),
(937,609,l),
(937,866,l)
);
},
{
closed = 1;
nodes = (
(1032,1460,l),
(303,1460,l),
(303,1189,l),
(1062,1189,l)
);
},
{
closed = 1;
nodes = (
(969,1691,l),
(969,1884,l),
(271,1884,l),
(271,1691,l)
);
}
);
width = 1240;
},
{
layerId = "44BD81D2-59FE-4749-9CEB-CE9A9BBF7E1D";
shapes = (
{
closed = 1;
nodes = (
(416,1460,l),
(290,1460,l),
(290,0,l),
(416,0,l)
);
},
{
closed = 1;
nodes = (
(375,110,l),
(375,0,l),
(1318,0,l),
(1338,110,l)
);
},
{
closed = 1;
nodes = (
(375,779,l),
(375,674,l),
(1141,674,l),
(1141,779,l)
);
},
{
closed = 1;
nodes = (
(1278,1460,l),
(375,1460,l),
(375,1350,l),
(1298,1350,l)
);
},
{
closed = 1;
nodes = (
(1229,1731,l),
(1229,1831,l),
(400,1831,l),
(400,1731,l)
);
}
);
width = 1555;
},
{
layerId = "C51B4FD0-B2BF-40BC-847B-12841EA1BD5E";
shapes = (
{
closed = 1;
nodes = (
(534,1460,l),
(205,1460,l),
(205,0,l),
(534,0,l)
);
},
{
closed = 1;
nodes = (
(366,271,l),
(366,0,l),
(1312,0,l),
(1342,271,l)
);
},
{
closed = 1;
nodes = (
(396,866,l),
(396,609,l),
(1153,609,l),
(1153,866,l)
);
},
{
closed = 1;
nodes = (
(1282,1460,l),
(366,1460,l),
(366,1189,l),
(1312,1189,l)
);
},
{
closed = 1;
nodes = (
(1189,1691,l),
(1189,1884,l),
(328,1884,l),
(328,1691,l)
);
}
);
width = 1555;
},
{
layerId = "70AA2382-B93B-4577-8C7E-04CBB56D22D0";
shapes = (
{
closed = 1;
nodes = (
(343,1460,l),
(217,1460,l),
(217,0,l),
(343,0,l)
);
},
{
closed = 1;
nodes = (
(302,110,l),
(302,0,l),
(1058,0,l),
(1078,110,l)
);
},
{
closed = 1;
nodes = (
(302,779,l),
(302,674,l),
(915,674,l),
(915,779,l)
);
},
{
closed = 1;
nodes = (
(1018,1460,l),
(302,1460,l),
(302,1350,l),
(1038,1350,l)
);
},
{
closed = 1;
nodes = (
(957,1731,l),
(957,1831,l),
(343,1831,l),
(343,1731,l)
);
}
);
width = 1240;
},
{
layerId = "32C81056-0B67-48FF-9423-60F4119D1D79";
shapes = (
{
closed = 1;
nodes = (
(603,1460,l),
(477,1460,l),
(193,0,l),
(319,0,l)
);
},
{
closed = 1;
nodes = (
(299,110,l),
(278,0,l),
(1221,0,l),
(1262,110,l)
);
},
{
closed = 1;
nodes = (
(429,779,l),
(409,674,l),
(1175,674,l),
(1195,779,l)
);
},
{
closed = 1;
nodes = (
(1465,1460,l),
(562,1460,l),
(540,1350,l),
(1463,1350,l)
);
},
{
closed = 1;
nodes = (
(1468,1731,l),
(1488,1831,l),
(659,1831,l),
(639,1731,l)
);
}
);
width = 1555;
},
{
layerId = "7F8FBB26-3B45-4F09-894A-43C94E46FA86";
shapes = (
{
closed = 1;
nodes = (
(650,1460,l),
(321,1460,l),
(37,0,l),
(366,0,l)
);
},
{
closed = 1;
nodes = (
(251,271,l),
(198,0,l),
(957,0,l),
(1040,271,l)
);
},
{
closed = 1;
nodes = (
(396,866,l),
(346,609,l),
(950,609,l),
(1000,866,l)
);
},
{
closed = 1;
nodes = (
(1211,1460,l),
(482,1460,l),
(429,1189,l),
(1188,1189,l)
);
},
{
closed = 1;
nodes = (
(1193,1691,l),
(1230,1884,l),
(532,1884,l),
(495,1691,l)
);
}
);
width = 1240;
},
{
layerId = "AD62C6D0-0611-42BF-ABA7-5ADD2541426F";
shapes = (
{
closed = 1;
nodes = (
(713,1460,l),
(384,1460,l),
(100,0,l),
(429,0,l)
);
},
{
closed = 1;
nodes = (
(314,271,l),
(261,0,l),
(1207,0,l),
(1290,271,l)
);
},
{
closed = 1;
nodes = (
(459,866,l),
(409,609,l),
(1166,609,l),
(1216,866,l)
);
},
{
closed = 1;
nodes = (
(1461,1460,l),
(545,1460,l),
(492,1189,l),
(1438,1189,l)
);
},
{
closed = 1;
nodes = (
(1413,1691,l),
(1450,1884,l),
(589,1884,l),
(552,1691,l)
);
}
);
width = 1555;
},
{
layerId = "D91E39D8-7CC3-444E-9A45-AC8D9F6D33DB";
shapes = (
{
closed = 1;
nodes = (
(530,1460,l),
(404,1460,l),
(120,0,l),
(246,0,l)
);
},
{
closed = 1;
nodes = (
(226,110,l),
(205,0,l),
(961,0,l),
(1002,110,l)
);
},
{
closed = 1;
nodes = (
(356,779,l),
(336,674,l),
(949,674,l),
(969,779,l)
);
},
{
closed = 1;
nodes = (
(1205,1460,l),
(489,1460,l),
(467,1350,l),
(1203,1350,l)
);
},
{
closed = 1;
nodes = (
(1196,1731,l),
(1216,1831,l),
(602,1831,l),
(582,1731,l)
);
}
);
width = 1240;
}
);
unicode = 274;
},
{
glyphname = Eogonek;
lastChange = "2024-05-08 17:39:43 +0000";
layers = (
{
layerId = "B4DB2FCE-8F13-48AA-B57C-2BFA4BDFBB5B";
shapes = (
{
closed = 1;
nodes = (
(471,1460,l),
(142,1460,l),
(142,0,l),
(471,0,l)
);
},
{
closed = 1;
nodes = (
(303,271,l),
(303,0,l),
(1062,0,l),
(1092,271,l)
);
},
{
closed = 1;
nodes = (
(333,866,l),
(333,609,l),
(937,609,l),
(937,866,l)
);
},
{
closed = 1;
nodes = (
(1032,1460,l),
(303,1460,l),
(303,1189,l),
(1062,1189,l)
);
},
{
closed = 1;
nodes = (
(676,-320,l),
(879,-443,l),
(1043,-443,l),
(1043,-240,l),
(951,-240,l),
(899,-210,l),
(899,-173,l),
(1062,0,l),
(945,44,l),
(676,-133,l)
);
}
);
width = 1240;
},
{
layerId = "44BD81D2-59FE-4749-9CEB-CE9A9BBF7E1D";
shapes = (
{
closed = 1;
nodes = (
(416,1460,l),
(290,1460,l),
(290,0,l),
(416,0,l)
);
},
{
closed = 1;
nodes = (
(375,110,l),
(375,0,l),
(1318,0,l),
(1338,110,l)
);
},
{
closed = 1;
nodes = (
(375,779,l),
(375,674,l),
(1141,674,l),
(1141,779,l)
);
},
{
closed = 1;
nodes = (
(1278,1460,l),
(375,1460,l),
(375,1350,l),
(1298,1350,l)
);
},
{
closed = 1;
nodes = (
(1048,-310,l),
(1196,-400,l),
(1318,-400,l),
(1318,-310,l),
(1227,-310,l),
(1150,-262,l),
(1150,-161,l),
(1318,0,l),
(1237,37,l),
(1048,-132,l)
);
}
);
width = 1555;
},
{
layerId = "C51B4FD0-B2BF-40BC-847B-12841EA1BD5E";
shapes = (
{
closed = 1;
nodes = (
(534,1460,l),
(205,1460,l),
(205,0,l),
(534,0,l)
);
},
{
closed = 1;
nodes = (
(366,271,l),
(366,0,l),
(1312,0,l),
(1342,271,l)
);
},
{
closed = 1;
nodes = (
(396,866,l),
(396,609,l),
(1153,609,l),
(1153,866,l)
);
},
{
closed = 1;
nodes = (
(1282,1460,l),
(366,1460,l),
(366,1189,l),
(1312,1189,l)
);
},
{
closed = 1;
nodes = (
(871,-320,l),
(1079,-443,l),
(1293,-443,l),
(1293,-240,l),
(1171,-240,l),
(1119,-210,l),
(1119,-173,l),
(1312,0,l),
(1195,44,l),
(871,-146,l)
);
}
);
width = 1555;
},
{
layerId = "70AA2382-B93B-4577-8C7E-04CBB56D22D0";
shapes = (
{
closed = 1;
nodes = (
(343,1460,l),
(217,1460,l),
(217,0,l),
(343,0,l)
);
},
{
closed = 1;
nodes = (
(302,110,l),
(302,0,l),
(1058,0,l),
(1078,110,l)
);
},
{
closed = 1;
nodes = (
(302,779,l),
(302,674,l),
(915,674,l),
(915,779,l)
);
},
{
closed = 1;
nodes = (
(1018,1460,l),
(302,1460,l),
(302,1350,l),
(1038,1350,l)
);
},
{
closed = 1;
nodes = (
(808,-310,l),
(946,-400,l),
(1058,-400,l),
(1058,-310,l),
(977,-310,l),
(910,-262,l),
(910,-151,l),
(1058,0,l),
(976,37,l),
(808,-122,l)
);
}
);
width = 1240;
},
{
layerId = "32C81056-0B67-48FF-9423-60F4119D1D79";
shapes = (
{
closed = 1;
nodes = (
(603,1460,l),
(477,1460,l),
(193,0,l),
(319,0,l)
);
},
{
closed = 1;
nodes = (
(299,110,l),
(278,0,l),
(1221,0,l),
(1262,110,l)
);
},
{
closed = 1;
nodes = (
(429,779,l),
(409,674,l),
(1175,674,l),
(1195,779,l)
);
},
{
closed = 1;
nodes = (
(1465,1460,l),
(562,1460,l),
(540,1350,l),
(1463,1350,l)
);
},
{
closed = 1;
nodes = (
(891,-310,l),
(1021,-400,l),
(1143,-400,l),
(1161,-310,l),
(1070,-310,l),
(1002,-262,l),
(1022,-161,l),
(1221,0,l),
(1147,37,l),
(925,-132,l)
);
}
);
width = 1555;
},
{
layerId = "7F8FBB26-3B45-4F09-894A-43C94E46FA86";
shapes = (
{
closed = 1;
nodes = (
(650,1460,l),
(321,1460,l),
(37,0,l),
(366,0,l)
);
},
{
closed = 1;
nodes = (
(251,271,l),
(198,0,l),
(957,0,l),
(1040,271,l)
);
},
{
closed = 1;
nodes = (
(396,866,l),
(346,609,l),
(950,609,l),
(1000,866,l)
);
},
{
closed = 1;
nodes = (
(1211,1460,l),
(482,1460,l),
(429,1189,l),
(1188,1189,l)
);
},
{
closed = 1;
nodes = (
(509,-320,l),
(688,-443,l),
(852,-443,l),
(891,-240,l),
(799,-240,l),
(753,-210,l),
(760,-173,l),
(957,0,l),
(849,44,l),
(545,-133,l)
);
}
);
width = 1240;
},
{
layerId = "AD62C6D0-0611-42BF-ABA7-5ADD2541426F";
shapes = (
{
closed = 1;
nodes = (
(713,1460,l),
(384,1460,l),
(100,0,l),
(429,0,l)
);
},
{
closed = 1;
nodes = (
(314,271,l),
(261,0,l),
(1207,0,l),
(1290,271,l)
);
},
{
closed = 1;
nodes = (
(459,866,l),
(409,609,l),
(1166,609,l),
(1216,866,l)
);
},
{
closed = 1;
nodes = (
(1461,1460,l),
(545,1460,l),
(492,1189,l),
(1438,1189,l)
);
},
{
closed = 1;
nodes = (
(704,-320,l),
(888,-443,l),
(1102,-443,l),
(1141,-240,l),
(1019,-240,l),
(973,-210,l),
(980,-173,l),
(1207,0,l),
(1099,44,l),
(738,-146,l)
);
}
);
width = 1555;
},
{
layerId = "D91E39D8-7CC3-444E-9A45-AC8D9F6D33DB";
shapes = (
{
closed = 1;
nodes = (
(530,1460,l),
(404,1460,l),
(120,0,l),
(246,0,l)
);
},
{
closed = 1;
nodes = (
(226,110,l),
(205,0,l),
(961,0,l),
(1002,110,l)
);
},
{
closed = 1;
nodes = (
(356,779,l),
(336,674,l),
(949,674,l),
(969,779,l)
);
},
{
closed = 1;
nodes = (
(1205,1460,l),
(489,1460,l),
(467,1350,l),
(1203,1350,l)
);
},
{
closed = 1;
nodes = (
(651,-310,l),
(771,-400,l),
(883,-400,l),
(901,-310,l),
(820,-310,l),
(762,-262,l),
(784,-151,l),
(961,0,l),
(886,37,l),
(687,-122,l)
);
}
);
width = 1240;
}
);
unicode = 280;
},
{
glyphname = Etilde;
lastChange = "2024-05-08 17:39:43 +0000";
layers = (
{
layerId = "B4DB2FCE-8F13-48AA-B57C-2BFA4BDFBB5B";
shapes = (
{
closed = 1;
nodes = (
(471,1460,l),
(142,1460,l),
(142,0,l),
(471,0,l)
);
},
{
closed = 1;
nodes = (
(303,271,l),
(303,0,l),
(1062,0,l),
(1092,271,l)
);
},
{
closed = 1;
nodes = (
(333,866,l),
(333,609,l),
(937,609,l),
(937,866,l)
);
},
{
closed = 1;
nodes = (
(1032,1460,l),
(303,1460,l),
(303,1189,l),
(1062,1189,l)
);
},
{
closed = 1;
nodes = (
(317,1887,l),
(164,1744,l),
(164,1611,l),
(367,1611,l),
(367,1672,l),
(427,1734,l),
(495,1734,l),
(635,1611,l),
(923,1611,l),
(1076,1754,l),
(1076,1887,l),
(873,1887,l),
(873,1816,l),
(813,1764,l),
(745,1764,l),
(605,1887,l)
);
}
);
width = 1240;
},
{
layerId = "44BD81D2-59FE-4749-9CEB-CE9A9BBF7E1D";
shapes = (
{
closed = 1;
nodes = (
(416,1460,l),
(290,1460,l),
(290,0,l),
(416,0,l)
);
},
{
closed = 1;
nodes = (
(375,110,l),
(375,0,l),
(1318,0,l),
(1338,110,l)
);
},
{
closed = 1;
nodes = (
(375,779,l),
(375,674,l),
(1141,674,l),
(1141,779,l)
);
},
{
closed = 1;
nodes = (
(1278,1460,l),
(375,1460,l),
(375,1350,l),
(1298,1350,l)
);
},
{
closed = 1;
nodes = (
(517,1893,l),
(377,1765,l),
(377,1643,l),
(467,1643,l),
(467,1734,l),
(555,1805,l),
(676,1805,l),
(912,1643,l),
(1112,1643,l),
(1252,1771,l),
(1252,1893,l),
(1162,1893,l),
(1162,1802,l),
(1074,1731,l),
(953,1731,l),
(717,1893,l)
);
}
);
width = 1555;
},
{
layerId = "C51B4FD0-B2BF-40BC-847B-12841EA1BD5E";
shapes = (
{
closed = 1;
nodes = (
(534,1460,l),
(205,1460,l),
(205,0,l),
(534,0,l)
);
},
{
closed = 1;
nodes = (
(366,271,l),
(366,0,l),
(1312,0,l),
(1342,271,l)
);
},
{
closed = 1;
nodes = (
(396,866,l),
(396,609,l),
(1153,609,l),
(1153,866,l)
);
},
{
closed = 1;
nodes = (
(1282,1460,l),
(366,1460,l),
(366,1189,l),
(1312,1189,l)
);
},
{
closed = 1;
nodes = (
(446,1911,l),
(293,1758,l),
(293,1615,l),
(496,1615,l),
(496,1686,l),
(556,1758,l),
(634,1758,l),
(774,1615,l),
(1072,1615,l),
(1225,1768,l),
(1225,1911,l),
(1022,1911,l),
(1022,1830,l),
(962,1768,l),
(884,1768,l),
(744,1911,l)
);
}
);
width = 1555;
},
{
layerId = "70AA2382-B93B-4577-8C7E-04CBB56D22D0";
shapes = (
{
closed = 1;
nodes = (
(343,1460,l),
(217,1460,l),
(217,0,l),
(343,0,l)
);
},
{
closed = 1;
nodes = (
(302,110,l),
(302,0,l),
(1058,0,l),
(1078,110,l)
);
},
{
closed = 1;
nodes = (
(302,779,l),
(302,674,l),
(915,674,l),
(915,779,l)
);
},
{
closed = 1;
nodes = (
(1018,1460,l),
(302,1460,l),
(302,1350,l),
(1038,1350,l)
);
},
{
closed = 1;
nodes = (
(423,1893,l),
(303,1765,l),
(303,1643,l),
(393,1643,l),
(393,1734,l),
(461,1805,l),
(552,1805,l),
(707,1643,l),
(877,1643,l),
(997,1771,l),
(997,1893,l),
(907,1893,l),
(907,1802,l),
(839,1731,l),
(748,1731,l),
(593,1893,l)
);
}
);
width = 1240;
},
{
layerId = "32C81056-0B67-48FF-9423-60F4119D1D79";
shapes = (
{
closed = 1;
nodes = (
(603,1460,l),
(477,1460,l),
(193,0,l),
(319,0,l)
);
},
{
closed = 1;
nodes = (
(299,110,l),
(278,0,l),
(1221,0,l),
(1262,110,l)
);
},
{
closed = 1;
nodes = (
(429,779,l),
(409,674,l),
(1175,674,l),
(1195,779,l)
);
},
{
closed = 1;
nodes = (
(1465,1460,l),
(562,1460,l),
(540,1350,l),
(1463,1350,l)
);
},
{
closed = 1;
nodes = (
(788,1893,l),
(623,1765,l),
(599,1643,l),
(689,1643,l),
(707,1734,l),
(809,1805,l),
(930,1805,l),
(1134,1643,l),
(1334,1643,l),
(1499,1771,l),
(1523,1893,l),
(1433,1893,l),
(1415,1802,l),
(1313,1731,l),
(1192,1731,l),
(988,1893,l)
);
}
);
width = 1555;
},
{
layerId = "7F8FBB26-3B45-4F09-894A-43C94E46FA86";
shapes = (
{
closed = 1;
nodes = (
(650,1460,l),
(321,1460,l),
(37,0,l),
(366,0,l)
);
},
{
closed = 1;
nodes = (
(251,271,l),
(198,0,l),
(957,0,l),
(1040,271,l)
);
},
{
closed = 1;
nodes = (
(396,866,l),
(346,609,l),
(950,609,l),
(1000,866,l)
);
},
{
closed = 1;
nodes = (
(1211,1460,l),
(482,1460,l),
(429,1189,l),
(1188,1189,l)
);
},
{
closed = 1;
nodes = (
(579,1887,l),
(398,1744,l),
(372,1611,l),
(575,1611,l),
(587,1672,l),
(659,1734,l),
(727,1734,l),
(843,1611,l),
(1131,1611,l),
(1312,1754,l),
(1338,1887,l),
(1135,1887,l),
(1121,1816,l),
(1051,1764,l),
(983,1764,l),
(867,1887,l)
);
}
);
width = 1240;
},
{
layerId = "AD62C6D0-0611-42BF-ABA7-5ADD2541426F";
shapes = (
{
closed = 1;
nodes = (
(713,1460,l),
(384,1460,l),
(100,0,l),
(429,0,l)
);
},
{
closed = 1;
nodes = (
(314,271,l),
(261,0,l),
(1207,0,l),
(1290,271,l)
);
},
{
closed = 1;
nodes = (
(459,866,l),
(409,609,l),
(1166,609,l),
(1216,866,l)
);
},
{
closed = 1;
nodes = (
(1461,1460,l),
(545,1460,l),
(492,1189,l),
(1438,1189,l)
);
},
{
closed = 1;
nodes = (
(712,1911,l),
(530,1758,l),
(502,1615,l),
(705,1615,l),
(719,1686,l),
(793,1758,l),
(871,1758,l),
(983,1615,l),
(1281,1615,l),
(1464,1768,l),
(1491,1911,l),
(1288,1911,l),
(1273,1830,l),
(1201,1768,l),
(1123,1768,l),
(1010,1911,l)
);
}
);
width = 1555;
},
{
layerId = "D91E39D8-7CC3-444E-9A45-AC8D9F6D33DB";
shapes = (
{
closed = 1;
nodes = (
(530,1460,l),
(404,1460,l),
(120,0,l),
(246,0,l)
);
},
{
closed = 1;
nodes = (
(226,110,l),
(205,0,l),
(961,0,l),
(1002,110,l)
);
},
{
closed = 1;
nodes = (
(356,779,l),
(336,674,l),
(949,674,l),
(969,779,l)
);
},
{
closed = 1;
nodes = (
(1205,1460,l),
(489,1460,l),
(467,1350,l),
(1203,1350,l)
);
},
{
closed = 1;
nodes = (
(694,1893,l),
(549,1765,l),
(525,1643,l),
(615,1643,l),
(633,1734,l),
(715,1805,l),
(806,1805,l),
(929,1643,l),
(1099,1643,l),
(1244,1771,l),
(1268,1893,l),
(1178,1893,l),
(1160,1802,l),
(1078,1731,l),
(987,1731,l),
(864,1893,l)
);
}
);
width = 1240;
}
);
unicode = 7868;
},
{
glyphname = Schwa;
lastChange = "2024-05-08 17:39:43 +0000";
layers = (
{
layerId = "B4DB2FCE-8F13-48AA-B57C-2BFA4BDFBB5B";
shapes = (
{
closed = 1;
nodes = (
(787,0,l),
(1152,528,l),
(1152,932,l),
(807,1460,l),
(172,1460,l),
(142,1159,l),
(637,1159,l),
(827,818,l),
(827,642,l),
(617,301,l),
(434,301,l),
(342,404,l),
(342,571,l),
(434,672,l),
(948,672,l),
(948,909,l),
(306,909,l),
(72,641,l),
(72,267,l),
(306,0,l)
);
}
);
width = 1240;
},
{
layerId = "44BD81D2-59FE-4749-9CEB-CE9A9BBF7E1D";
shapes = (
{
closed = 1;
nodes = (
(942,0,l),
(1382,540,l),
(1382,930,l),
(908,1460,l),
(235,1460,l),
(215,1350,l),
(842,1350,l),
(1256,900,l),
(1256,570,l),
(876,110,l),
(412,110,l),
(275,263,l),
(275,546,l),
(412,699,l),
(1326,699,l),
(1326,803,l),
(350,803,l),
(163,595,l),
(163,208,l),
(350,0,l)
);
}
);
width = 1555;
},
{
layerId = "C51B4FD0-B2BF-40BC-847B-12841EA1BD5E";
shapes = (
{
closed = 1;
nodes = (
(1005,0,l),
(1430,528,l),
(1430,932,l),
(991,1460,l),
(203,1460,l),
(173,1159,l),
(821,1159,l),
(1105,818,l),
(1105,642,l),
(835,301,l),
(542,301,l),
(373,461,l),
(373,569,l),
(542,712,l),
(1259,712,l),
(1259,949,l),
(422,949,l),
(103,700,l),
(103,301,l),
(422,0,l)
);
}
);
width = 1555;
},
{
layerId = "70AA2382-B93B-4577-8C7E-04CBB56D22D0";
shapes = (
{
closed = 1;
nodes = (
(722,0,l),
(1102,540,l),
(1102,930,l),
(722,1460,l),
(202,1460,l),
(182,1350,l),
(656,1350,l),
(976,900,l),
(976,570,l),
(656,110,l),
(362,110,l),
(240,236,l),
(240,581,l),
(375,709,l),
(1046,709,l),
(1046,813,l),
(314,813,l),
(130,631,l),
(130,184,l),
(302,0,l)
);
}
);
width = 1240;
},
{
layerId = "32C81056-0B67-48FF-9423-60F4119D1D79";
shapes = (
{
closed = 1;
nodes = (
(845,0,l),
(1390,540,l),
(1466,930,l),
(1095,1460,l),
(422,1460,l),
(380,1350,l),
(1007,1350,l),
(1334,900,l),
(1270,570,l),
(800,110,l),
(336,110,l),
(229,263,l),
(284,546,l),
(451,699,l),
(1365,699,l),
(1385,803,l),
(409,803,l),
(182,595,l),
(106,208,l),
(253,0,l)
);
}
);
width = 1555;
},
{
layerId = "7F8FBB26-3B45-4F09-894A-43C94E46FA86";
shapes = (
{
closed = 1;
nodes = (
(682,0,l),
(1150,528,l),
(1228,932,l),
(986,1460,l),
(351,1460,l),
(262,1159,l),
(757,1159,l),
(881,818,l),
(847,642,l),
(571,301,l),
(388,301,l),
(316,404,l),
(348,571,l),
(460,672,l),
(974,672,l),
(1020,909,l),
(378,909,l),
(92,641,l),
(19,267,l),
(201,0,l)
);
}
);
width = 1240;
},
{
layerId = "AD62C6D0-0611-42BF-ABA7-5ADD2541426F";
shapes = (
{
closed = 1;
nodes = (
(900,0,l),
(1428,528,l),
(1506,932,l),
(1170,1460,l),
(382,1460,l),
(293,1159,l),
(941,1159,l),
(1159,818,l),
(1125,642,l),
(789,301,l),
(496,301,l),
(358,461,l),
(379,569,l),
(575,712,l),
(1292,712,l),
(1338,949,l),
(501,949,l),
(134,700,l),
(57,301,l),
(317,0,l)
);
}
);
width = 1555;
},
{
layerId = "D91E39D8-7CC3-444E-9A45-AC8D9F6D33DB";
shapes = (
{
closed = 1;
nodes = (
(625,0,l),
(1110,540,l),
(1186,930,l),
(909,1460,l),
(389,1460,l),
(347,1350,l),
(821,1350,l),
(1054,900,l),
(990,570,l),
(580,110,l),
(286,110,l),
(189,236,l),
(256,581,l),
(416,709,l),
(1087,709,l),
(1107,813,l),
(375,813,l),
(156,631,l),
(69,184,l),
(205,0,l)
);
}
);
width = 1240;
}
);
unicode = 399;
},
{
glyphname = F;
lastChange = "2024-05-08 17:39:42 +0000";
layers = (
{
layerId = "70AA2382-B93B-4577-8C7E-04CBB56D22D0";
shapes = (
{
closed = 1;
nodes = (
(353,0,l),
(353,1460,l),
(227,1460,l),
(227,0,l)
);
},
{
closed = 1;
nodes = (
(965,627,l),
(965,726,l),
(312,726,l),
(312,627,l)
);
},
{
closed = 1;
nodes = (
(1088,1360,l),
(1068,1460,l),
(312,1460,l),
(312,1360,l)
);
}
);
width = 1240;
},
{
layerId = "32C81056-0B67-48FF-9423-60F4119D1D79";
shapes = (
{
closed = 1;
nodes = (
(312,0,l),
(596,1460,l),
(470,1460,l),
(186,0,l)
);
},
{
closed = 1;
nodes = (
(1173,627,l),
(1192,726,l),
(412,726,l),
(393,627,l)
);
},
{
closed = 1;
nodes = (
(1532,1360,l),
(1532,1460,l),
(555,1460,l),
(535,1360,l)
);
}
);
width = 1555;
},
{
layerId = "7F8FBB26-3B45-4F09-894A-43C94E46FA86";
shapes = (
{
closed = 1;
nodes = (
(376,0,l),
(660,1460,l),
(331,1460,l),
(47,0,l)
);
},
{
closed = 1;
nodes = (
(957,539,l),
(1007,796,l),
(383,796,l),
(333,539,l)
);
},
{
closed = 1;
nodes = (
(1208,1189,l),
(1231,1460,l),
(482,1460,l),
(429,1189,l)
);
}
);
width = 1240;
},
{
layerId = "B4DB2FCE-8F13-48AA-B57C-2BFA4BDFBB5B";
shapes = (
{
closed = 1;
nodes = (
(481,0,l),
(481,1460,l),
(152,1460,l),
(152,0,l)
);
},
{
closed = 1;
nodes = (
(957,539,l),
(957,796,l),
(333,796,l),
(333,539,l)
);
},
{
closed = 1;
nodes = (
(1082,1189,l),
(1052,1460,l),
(303,1460,l),
(303,1189,l)
);
}
);
width = 1240;
},
{
layerId = "44BD81D2-59FE-4749-9CEB-CE9A9BBF7E1D";
shapes = (
{
closed = 1;
nodes = (
(409,0,l),
(409,1460,l),
(283,1460,l),
(283,0,l)
);
},
{
closed = 1;
nodes = (
(1148,627,l),
(1148,726,l),
(368,726,l),
(368,627,l)
);
},
{
closed = 1;
nodes = (
(1365,1360,l),
(1345,1460,l),
(368,1460,l),
(368,1360,l)
);
}
);
width = 1555;
},
{
layerId = "C51B4FD0-B2BF-40BC-847B-12841EA1BD5E";
shapes = (
{
closed = 1;
nodes = (
(527,0,l),
(527,1460,l),
(198,1460,l),
(198,0,l)
);
},
{
closed = 1;
nodes = (
(1130,539,l),
(1130,796,l),
(379,796,l),
(379,539,l)
);
},
{
closed = 1;
nodes = (
(1349,1189,l),
(1319,1460,l),
(349,1460,l),
(349,1189,l)
);
}
);
width = 1555;
},
{
layerId = "AD62C6D0-0611-42BF-ABA7-5ADD2541426F";
shapes = (
{
closed = 1;
nodes = (
(422,0,l),
(706,1460,l),
(377,1460,l),
(93,0,l)
);
},
{
closed = 1;
nodes = (
(1130,539,l),
(1180,796,l),
(429,796,l),
(379,539,l)
);
},
{
closed = 1;
nodes = (
(1475,1189,l),
(1498,1460,l),
(528,1460,l),
(475,1189,l)
);
}
);
width = 1555;
},
{
layerId = "D91E39D8-7CC3-444E-9A45-AC8D9F6D33DB";
shapes = (
{
closed = 1;
nodes = (
(256,0,l),
(540,1460,l),
(414,1460,l),
(130,0,l)
);
},
{
closed = 1;
nodes = (
(990,627,l),
(1009,726,l),
(356,726,l),
(337,627,l)
);
},
{
closed = 1;
nodes = (
(1255,1360,l),
(1255,1460,l),
(499,1460,l),
(479,1360,l)
);
}
);
width = 1240;
}
);
unicode = 70;
},
{
glyphname = G;
lastChange = "2024-05-08 17:39:42 +0000";
layers = (
{
layerId = "70AA2382-B93B-4577-8C7E-04CBB56D22D0";
shapes = (
{
closed = 1;
nodes = (
(1000,0,l),
(1102,114,l),
(1102,763,l),
(656,763,l),
(656,659,l),
(1047,659,l),
(990,704,l),
(990,176,l),
(930,110,l),
(576,110,l),
(256,570,l),
(256,900,l),
(576,1350,l),
(1050,1350,l),
(1030,1460,l),
(510,1460,l),
(130,930,l),
(130,540,l),
(510,0,l)
);
}
);
width = 1240;
},
{
layerId = "32C81056-0B67-48FF-9423-60F4119D1D79";
shapes = (
{
closed = 1;
nodes = (
(1098,0,l),
(1325,208,l),
(1433,763,l),
(817,763,l),
(797,659,l),
(1358,659,l),
(1310,704,l),
(1224,263,l),
(1057,110,l),
(589,110,l),
(302,566,l),
(365,890,l),
(878,1350,l),
(1495,1350,l),
(1497,1460,l),
(824,1460,l),
(247,930,l),
(171,540,l),
(506,0,l)
);
}
);
width = 1555;
},
{
layerId = "7F8FBB26-3B45-4F09-894A-43C94E46FA86";
shapes = (
{
closed = 1;
nodes = (
(813,0,l),
(1095,247,l),
(1208,829,l),
(742,829,l),
(694,582,l),
(962,582,l),
(907,669,l),
(852,384,l),
(744,301,l),
(541,301,l),
(413,622,l),
(453,828,l),
(727,1159,l),
(1202,1159,l),
(1231,1460,l),
(596,1460,l),
(148,932,l),
(70,528,l),
(332,0,l)
);
}
);
width = 1240;
},
{
layerId = "B4DB2FCE-8F13-48AA-B57C-2BFA4BDFBB5B";
shapes = (
{
closed = 1;
nodes = (
(918,0,l),
(1152,247,l),
(1152,829,l),
(686,829,l),
(686,582,l),
(954,582,l),
(882,669,l),
(882,384,l),
(790,301,l),
(607,301,l),
(397,642,l),
(397,818,l),
(587,1159,l),
(1082,1159,l),
(1052,1460,l),
(417,1460,l),
(72,932,l),
(72,528,l),
(437,0,l)
);
}
);
width = 1240;
},
{
layerId = "44BD81D2-59FE-4749-9CEB-CE9A9BBF7E1D";
shapes = (
{
closed = 1;
nodes = (
(1195,0,l),
(1382,208,l),
(1382,763,l),
(766,763,l),
(766,659,l),
(1327,659,l),
(1270,704,l),
(1270,263,l),
(1133,110,l),
(669,110,l),
(289,570,l),
(289,900,l),
(703,1350,l),
(1330,1350,l),
(1310,1460,l),
(637,1460,l),
(163,930,l),
(163,540,l),
(603,0,l)
);
}
);
width = 1555;
},
{
layerId = "C51B4FD0-B2BF-40BC-847B-12841EA1BD5E";
shapes = (
{
closed = 1;
nodes = (
(1111,0,l),
(1430,341,l),
(1430,829,l),
(794,829,l),
(794,582,l),
(1232,582,l),
(1160,669,l),
(1160,471,l),
(991,301,l),
(698,301,l),
(428,642,l),
(428,818,l),
(712,1159,l),
(1360,1159,l),
(1330,1460,l),
(542,1460,l),
(103,932,l),
(103,528,l),
(528,0,l)
);
}
);
width = 1555;
},
{
layerId = "AD62C6D0-0611-42BF-ABA7-5ADD2541426F";
shapes = (
{
closed = 1;
nodes = (
(1006,0,l),
(1391,341,l),
(1486,829,l),
(850,829,l),
(802,582,l),
(1240,582,l),
(1185,669,l),
(1147,471,l),
(945,301,l),
(642,301,l),
(446,632,l),
(480,808,l),
(832,1159,l),
(1480,1159,l),
(1509,1460,l),
(721,1460,l),
(179,932,l),
(101,528,l),
(423,0,l)
);
}
);
width = 1555;
},
{
layerId = "D91E39D8-7CC3-444E-9A45-AC8D9F6D33DB";
shapes = (
{
closed = 1;
nodes = (
(903,0,l),
(1027,114,l),
(1153,763,l),
(707,763,l),
(687,659,l),
(1078,659,l),
(1030,704,l),
(927,176,l),
(854,110,l),
(495,110,l),
(269,565,l),
(331,885,l),
(755,1350,l),
(1215,1350,l),
(1217,1460,l),
(697,1460,l),
(214,930,l),
(138,540,l),
(413,0,l)
);
}
);
width = 1240;
}
);
unicode = 71;
},
{
glyphname = Gbreve;
lastChange = "2024-05-08 17:39:43 +0000";
layers = (
{
layerId = "B4DB2FCE-8F13-48AA-B57C-2BFA4BDFBB5B";
shapes = (
{
closed = 1;
nodes = (
(918,0,l),
(1152,247,l),
(1152,829,l),
(686,829,l),
(686,582,l),
(954,582,l),
(882,669,l),
(882,384,l),
(790,301,l),
(607,301,l),
(397,642,l),
(397,818,l),
(587,1159,l),
(1082,1159,l),
(1052,1460,l),
(417,1460,l),
(72,932,l),
(72,528,l),
(437,0,l)
);
},
{
closed = 1;
nodes = (
(867,1600,l),
(1060,1753,l),
(1060,1878,l),
(862,1878,l),
(862,1820,l),
(787,1763,l),
(613,1763,l),
(538,1820,l),
(538,1878,l),
(340,1878,l),
(340,1752,l),
(533,1600,l)
);
}
);
width = 1240;
},
{
layerId = "44BD81D2-59FE-4749-9CEB-CE9A9BBF7E1D";
shapes = (
{
closed = 1;
nodes = (
(1195,0,l),
(1382,208,l),
(1382,763,l),
(766,763,l),
(766,659,l),
(1327,659,l),
(1270,704,l),
(1270,263,l),
(1133,110,l),
(669,110,l),
(289,570,l),
(289,900,l),
(703,1350,l),
(1330,1350,l),
(1310,1460,l),
(637,1460,l),
(163,930,l),
(163,540,l),
(603,0,l)
);
},
{
closed = 1;
nodes = (
(1033,1643,l),
(1183,1760,l),
(1183,1883,l),
(1093,1883,l),
(1093,1797,l),
(993,1731,l),
(739,1731,l),
(639,1797,l),
(639,1883,l),
(549,1883,l),
(549,1759,l),
(699,1643,l)
);
}
);
width = 1555;
},
{
layerId = "C51B4FD0-B2BF-40BC-847B-12841EA1BD5E";
shapes = (
{
closed = 1;
nodes = (
(1111,0,l),
(1430,341,l),
(1430,829,l),
(794,829,l),
(794,582,l),
(1232,582,l),
(1160,669,l),
(1160,471,l),
(991,301,l),
(698,301,l),
(428,642,l),
(428,818,l),
(712,1159,l),
(1360,1159,l),
(1330,1460,l),
(542,1460,l),
(103,932,l),
(103,528,l),
(528,0,l)
);
},
{
closed = 1;
nodes = (
(1065,1610,l),
(1268,1773,l),
(1268,1908,l),
(1070,1908,l),
(1070,1840,l),
(985,1773,l),
(751,1773,l),
(666,1840,l),
(666,1908,l),
(468,1908,l),
(468,1772,l),
(671,1610,l)
);
}
);
width = 1555;
},
{
layerId = "70AA2382-B93B-4577-8C7E-04CBB56D22D0";
shapes = (
{
closed = 1;
nodes = (
(1000,0,l),
(1102,114,l),
(1102,763,l),
(656,763,l),
(656,659,l),
(1047,659,l),
(990,704,l),
(990,176,l),
(930,110,l),
(576,110,l),
(256,570,l),
(256,900,l),
(576,1350,l),
(1050,1350,l),
(1030,1460,l),
(510,1460,l),
(130,930,l),
(130,540,l),
(510,0,l)
);
},
{
closed = 1;
nodes = (
(837,1643,l),
(957,1760,l),
(957,1883,l),
(867,1883,l),
(867,1797,l),
(797,1731,l),
(583,1731,l),
(513,1797,l),
(513,1883,l),
(423,1883,l),
(423,1759,l),
(543,1643,l)
);
}
);
width = 1240;
},
{
layerId = "32C81056-0B67-48FF-9423-60F4119D1D79";
shapes = (
{
closed = 1;
nodes = (
(1098,0,l),
(1325,208,l),
(1433,763,l),
(817,763,l),
(797,659,l),
(1358,659,l),
(1310,704,l),
(1224,263,l),
(1057,110,l),
(589,110,l),
(302,566,l),
(365,890,l),
(878,1350,l),
(1495,1350,l),
(1497,1460,l),
(824,1460,l),
(247,930,l),
(171,540,l),
(506,0,l)
);
},
{
closed = 1;
nodes = (
(1255,1643,l),
(1428,1760,l),
(1452,1883,l),
(1362,1883,l),
(1345,1797,l),
(1232,1731,l),
(978,1731,l),
(891,1797,l),
(908,1883,l),
(818,1883,l),
(794,1759,l),
(921,1643,l)
);
}
);
width = 1555;
},
{
layerId = "7F8FBB26-3B45-4F09-894A-43C94E46FA86";
shapes = (
{
closed = 1;
nodes = (
(813,0,l),
(1095,247,l),
(1208,829,l),
(742,829,l),
(694,582,l),
(962,582,l),
(907,669,l),
(852,384,l),
(744,301,l),
(541,301,l),
(413,622,l),
(453,828,l),
(727,1159,l),
(1202,1159,l),
(1231,1460,l),
(596,1460,l),
(148,932,l),
(70,528,l),
(332,0,l)
);
},
{
closed = 1;
nodes = (
(1073,1600,l),
(1296,1753,l),
(1320,1878,l),
(1122,1878,l),
(1111,1820,l),
(1025,1763,l),
(851,1763,l),
(787,1820,l),
(798,1878,l),
(600,1878,l),
(576,1752,l),
(739,1600,l)
);
}
);
width = 1240;
},
{
layerId = "AD62C6D0-0611-42BF-ABA7-5ADD2541426F";
shapes = (
{
closed = 1;
nodes = (
(1006,0,l),
(1391,341,l),
(1486,829,l),
(850,829,l),
(802,582,l),
(1240,582,l),
(1185,669,l),
(1147,471,l),
(945,301,l),
(642,301,l),
(446,632,l),
(480,808,l),
(832,1159,l),
(1480,1159,l),
(1509,1460,l),
(721,1460,l),
(179,932,l),
(101,528,l),
(423,0,l)
);
},
{
closed = 1;
nodes = (
(1273,1610,l),
(1508,1773,l),
(1534,1908,l),
(1336,1908,l),
(1323,1840,l),
(1225,1773,l),
(991,1773,l),
(919,1840,l),
(932,1908,l),
(734,1908,l),
(707,1772,l),
(879,1610,l)
);
}
);
width = 1555;
},
{
layerId = "D91E39D8-7CC3-444E-9A45-AC8D9F6D33DB";
shapes = (
{
closed = 1;
nodes = (
(903,0,l),
(1027,114,l),
(1153,763,l),
(707,763,l),
(687,659,l),
(1078,659,l),
(1030,704,l),
(927,176,l),
(854,110,l),
(495,110,l),
(269,565,l),
(331,885,l),
(755,1350,l),
(1215,1350,l),
(1217,1460,l),
(697,1460,l),
(214,930,l),
(138,540,l),
(413,0,l)
);
},
{
closed = 1;
nodes = (
(1059,1643,l),
(1202,1760,l),
(1226,1883,l),
(1136,1883,l),
(1119,1797,l),
(1036,1731,l),
(822,1731,l),
(765,1797,l),
(782,1883,l),
(692,1883,l),
(668,1759,l),
(765,1643,l)
);
}
);
width = 1240;
}
);
unicode = 286;
},
{
glyphname = Gcaron;
lastChange = "2024-05-08 17:39:43 +0000";
layers = (
{
layerId = "B4DB2FCE-8F13-48AA-B57C-2BFA4BDFBB5B";
shapes = (
{
closed = 1;
nodes = (
(918,0,l),
(1152,247,l),
(1152,829,l),
(686,829,l),
(686,582,l),
(954,582,l),
(882,669,l),
(882,384,l),
(790,301,l),
(607,301,l),
(397,642,l),
(397,818,l),
(587,1159,l),
(1082,1159,l),
(1052,1460,l),
(417,1460,l),
(72,932,l),
(72,528,l),
(437,0,l)
);
},
{
closed = 1;
nodes = (
(563,1878,l),
(724,1674,l),
(676,1674,l),
(837,1878,l),
(1121,1878,l),
(893,1620,l),
(507,1620,l),
(279,1878,l)
);
}
);
width = 1240;
},
{
layerId = "44BD81D2-59FE-4749-9CEB-CE9A9BBF7E1D";
shapes = (
{
closed = 1;
nodes = (
(1195,0,l),
(1382,208,l),
(1382,763,l),
(766,763,l),
(766,659,l),
(1327,659,l),
(1270,704,l),
(1270,263,l),
(1133,110,l),
(669,110,l),
(289,570,l),
(289,900,l),
(703,1350,l),
(1330,1350,l),
(1310,1460,l),
(637,1460,l),
(163,930,l),
(163,540,l),
(603,0,l)
);
},
{
closed = 1;
nodes = (
(625,1883,l),
(900,1674,l),
(838,1674,l),
(1114,1883,l),
(1261,1883,l),
(947,1650,l),
(791,1650,l),
(478,1883,l)
);
}
);
width = 1555;
},
{
layerId = "C51B4FD0-B2BF-40BC-847B-12841EA1BD5E";
shapes = (
{
closed = 1;
nodes = (
(1111,0,l),
(1430,341,l),
(1430,829,l),
(794,829,l),
(794,582,l),
(1232,582,l),
(1160,669,l),
(1160,471,l),
(991,301,l),
(698,301,l),
(428,642,l),
(428,818,l),
(712,1159,l),
(1360,1159,l),
(1330,1460,l),
(542,1460,l),
(103,932,l),
(103,528,l),
(528,0,l)
);
},
{
closed = 1;
nodes = (
(701,1908,l),
(901,1662,l),
(833,1662,l),
(1034,1908,l),
(1348,1908,l),
(1060,1620,l),
(674,1620,l),
(387,1908,l)
);
}
);
width = 1555;
},
{
layerId = "70AA2382-B93B-4577-8C7E-04CBB56D22D0";
shapes = (
{
closed = 1;
nodes = (
(1000,0,l),
(1102,114,l),
(1102,763,l),
(656,763,l),
(656,659,l),
(1047,659,l),
(990,704,l),
(990,176,l),
(930,110,l),
(576,110,l),
(256,570,l),
(256,900,l),
(576,1350,l),
(1050,1350,l),
(1030,1460,l),
(510,1460,l),
(130,930,l),
(130,540,l),
(510,0,l)
);
},
{
closed = 1;
nodes = (
(499,1883,l),
(718,1679,l),
(662,1679,l),
(881,1883,l),
(1012,1883,l),
(748,1650,l),
(632,1650,l),
(368,1883,l)
);
}
);
width = 1240;
},
{
layerId = "32C81056-0B67-48FF-9423-60F4119D1D79";
shapes = (
{
closed = 1;
nodes = (
(1098,0,l),
(1325,208,l),
(1433,763,l),
(817,763,l),
(797,659,l),
(1358,659,l),
(1310,704,l),
(1224,263,l),
(1057,110,l),
(589,110,l),
(302,566,l),
(365,890,l),
(878,1350,l),
(1495,1350,l),
(1497,1460,l),
(824,1460,l),
(247,930,l),
(171,540,l),
(506,0,l)
);
},
{
closed = 1;
nodes = (
(894,1883,l),
(1128,1674,l),
(1066,1674,l),
(1383,1883,l),
(1530,1883,l),
(1171,1650,l),
(1015,1650,l),
(747,1883,l)
);
}
);
width = 1555;
},
{
layerId = "7F8FBB26-3B45-4F09-894A-43C94E46FA86";
shapes = (
{
closed = 1;
nodes = (
(813,0,l),
(1095,247,l),
(1208,829,l),
(742,829,l),
(694,582,l),
(962,582,l),
(907,669,l),
(852,384,l),
(744,301,l),
(541,301,l),
(413,622,l),
(453,828,l),
(727,1159,l),
(1202,1159,l),
(1231,1460,l),
(596,1460,l),
(148,932,l),
(70,528,l),
(332,0,l)
);
},
{
closed = 1;
nodes = (
(823,1878,l),
(944,1674,l),
(896,1674,l),
(1097,1878,l),
(1381,1878,l),
(1103,1620,l),
(717,1620,l),
(539,1878,l)
);
}
);
width = 1240;
},
{
layerId = "AD62C6D0-0611-42BF-ABA7-5ADD2541426F";
shapes = (
{
closed = 1;
nodes = (
(1006,0,l),
(1391,341,l),
(1486,829,l),
(850,829,l),
(802,582,l),
(1240,582,l),
(1185,669,l),
(1147,471,l),
(945,301,l),
(642,301,l),
(446,632,l),
(480,808,l),
(832,1159,l),
(1480,1159,l),
(1509,1460,l),
(721,1460,l),
(179,932,l),
(101,528,l),
(423,0,l)
);
},
{
closed = 1;
nodes = (
(967,1908,l),
(1119,1662,l),
(1051,1662,l),
(1300,1908,l),
(1614,1908,l),
(1270,1620,l),
(884,1620,l),
(653,1908,l)
);
}
);
width = 1555;
},
{
layerId = "D91E39D8-7CC3-444E-9A45-AC8D9F6D33DB";
shapes = (
{
closed = 1;
nodes = (
(903,0,l),
(1027,114,l),
(1153,763,l),
(707,763,l),
(687,659,l),
(1078,659,l),
(1030,704,l),
(927,176,l),
(854,110,l),
(495,110,l),
(269,565,l),
(331,885,l),
(755,1350,l),
(1215,1350,l),
(1217,1460,l),
(697,1460,l),
(214,930,l),
(138,540,l),
(413,0,l)
);
},
{
closed = 1;
nodes = (
(768,1883,l),
(947,1679,l),
(891,1679,l),
(1150,1883,l),
(1281,1883,l),
(972,1650,l),
(856,1650,l),
(637,1883,l)
);
}
);
width = 1240;
}
);
unicode = 486;
},
{
glyphname = Gcircumflex;
lastChange = "2024-05-08 17:39:43 +0000";
layers = (
{
layerId = "B4DB2FCE-8F13-48AA-B57C-2BFA4BDFBB5B";
shapes = (
{
closed = 1;
nodes = (
(918,0,l),
(1152,247,l),
(1152,829,l),
(686,829,l),
(686,582,l),
(954,582,l),
(882,669,l),
(882,384,l),
(790,301,l),
(607,301,l),
(397,642,l),
(397,818,l),
(587,1159,l),
(1082,1159,l),
(1052,1460,l),
(417,1460,l),
(72,932,l),
(72,528,l),
(437,0,l)
);
},
{
closed = 1;
nodes = (
(563,1620,l),
(724,1824,l),
(676,1824,l),
(837,1620,l),
(1121,1620,l),
(893,1878,l),
(507,1878,l),
(279,1620,l)
);
}
);
width = 1240;
},
{
layerId = "44BD81D2-59FE-4749-9CEB-CE9A9BBF7E1D";
shapes = (
{
closed = 1;
nodes = (
(1195,0,l),
(1382,208,l),
(1382,763,l),
(766,763,l),
(766,659,l),
(1327,659,l),
(1270,704,l),
(1270,263,l),
(1133,110,l),
(669,110,l),
(289,570,l),
(289,900,l),
(703,1350,l),
(1330,1350,l),
(1310,1460,l),
(637,1460,l),
(163,930,l),
(163,540,l),
(603,0,l)
);
},
{
closed = 1;
nodes = (
(625,1650,l),
(900,1859,l),
(838,1859,l),
(1114,1650,l),
(1261,1650,l),
(947,1883,l),
(791,1883,l),
(478,1650,l)
);
}
);
width = 1555;
},
{
layerId = "C51B4FD0-B2BF-40BC-847B-12841EA1BD5E";
shapes = (
{
closed = 1;
nodes = (
(1111,0,l),
(1430,341,l),
(1430,829,l),
(794,829,l),
(794,582,l),
(1232,582,l),
(1160,669,l),
(1160,471,l),
(991,301,l),
(698,301,l),
(428,642,l),
(428,818,l),
(712,1159,l),
(1360,1159,l),
(1330,1460,l),
(542,1460,l),
(103,932,l),
(103,528,l),
(528,0,l)
);
},
{
closed = 1;
nodes = (
(701,1620,l),
(901,1866,l),
(833,1866,l),
(1034,1620,l),
(1348,1620,l),
(1060,1908,l),
(674,1908,l),
(387,1620,l)
);
}
);
width = 1555;
},
{
layerId = "70AA2382-B93B-4577-8C7E-04CBB56D22D0";
shapes = (
{
closed = 1;
nodes = (
(1000,0,l),
(1102,114,l),
(1102,763,l),
(656,763,l),
(656,659,l),
(1047,659,l),
(990,704,l),
(990,176,l),
(930,110,l),
(576,110,l),
(256,570,l),
(256,900,l),
(576,1350,l),
(1050,1350,l),
(1030,1460,l),
(510,1460,l),
(130,930,l),
(130,540,l),
(510,0,l)
);
},
{
closed = 1;
nodes = (
(499,1650,l),
(718,1854,l),
(662,1854,l),
(881,1650,l),
(1012,1650,l),
(748,1883,l),
(632,1883,l),
(368,1650,l)
);
}
);
width = 1240;
},
{
layerId = "32C81056-0B67-48FF-9423-60F4119D1D79";
shapes = (
{
closed = 1;
nodes = (
(1098,0,l),
(1325,208,l),
(1433,763,l),
(817,763,l),
(797,659,l),
(1358,659,l),
(1310,704,l),
(1224,263,l),
(1057,110,l),
(589,110,l),
(302,566,l),
(365,890,l),
(878,1350,l),
(1495,1350,l),
(1497,1460,l),
(824,1460,l),
(247,930,l),
(171,540,l),
(506,0,l)
);
},
{
closed = 1;
nodes = (
(849,1650,l),
(1164,1859,l),
(1102,1859,l),
(1338,1650,l),
(1485,1650,l),
(1216,1883,l),
(1060,1883,l),
(702,1650,l)
);
}
);
width = 1555;
},
{
layerId = "7F8FBB26-3B45-4F09-894A-43C94E46FA86";
shapes = (
{
closed = 1;
nodes = (
(813,0,l),
(1095,247,l),
(1208,829,l),
(742,829,l),
(694,582,l),
(962,582,l),
(907,669,l),
(852,384,l),
(744,301,l),
(541,301,l),
(413,622,l),
(453,828,l),
(727,1159,l),
(1202,1159,l),
(1231,1460,l),
(596,1460,l),
(148,932,l),
(70,528,l),
(332,0,l)
);
},
{
closed = 1;
nodes = (
(773,1620,l),
(974,1824,l),
(926,1824,l),
(1047,1620,l),
(1331,1620,l),
(1153,1878,l),
(767,1878,l),
(489,1620,l)
);
}
);
width = 1240;
},
{
layerId = "AD62C6D0-0611-42BF-ABA7-5ADD2541426F";
shapes = (
{
closed = 1;
nodes = (
(1006,0,l),
(1391,341,l),
(1486,829,l),
(850,829,l),
(802,582,l),
(1240,582,l),
(1185,669,l),
(1147,471,l),
(945,301,l),
(642,301,l),
(446,632,l),
(480,808,l),
(832,1159,l),
(1480,1159,l),
(1509,1460,l),
(721,1460,l),
(179,932,l),
(101,528,l),
(423,0,l)
);
},
{
closed = 1;
nodes = (
(911,1620,l),
(1159,1866,l),
(1091,1866,l),
(1244,1620,l),
(1558,1620,l),
(1326,1908,l),
(940,1908,l),
(597,1620,l)
);
}
);
width = 1555;
},
{
layerId = "D91E39D8-7CC3-444E-9A45-AC8D9F6D33DB";
shapes = (
{
closed = 1;
nodes = (
(903,0,l),
(1027,114,l),
(1153,763,l),
(707,763,l),
(687,659,l),
(1078,659,l),
(1030,704,l),
(927,176,l),
(854,110,l),
(495,110,l),
(269,565,l),
(331,885,l),
(755,1350,l),
(1215,1350,l),
(1217,1460,l),
(697,1460,l),
(214,930,l),
(138,540,l),
(413,0,l)
);
},
{
closed = 1;
nodes = (
(723,1650,l),
(981,1854,l),
(925,1854,l),
(1105,1650,l),
(1236,1650,l),
(1017,1883,l),
(901,1883,l),
(592,1650,l)
);
}
);
width = 1240;
}
);
unicode = 284;
},
{
glyphname = Gcommaaccent;
lastChange = "2024-05-08 17:39:43 +0000";
layers = (
{
layerId = "B4DB2FCE-8F13-48AA-B57C-2BFA4BDFBB5B";
shapes = (
{
closed = 1;
nodes = (
(918,0,l),
(1152,247,l),
(1152,829,l),
(686,829,l),
(686,582,l),
(954,582,l),
(882,669,l),
(882,384,l),
(790,301,l),
(607,301,l),
(397,642,l),
(397,818,l),
(587,1159,l),
(1082,1159,l),
(1052,1460,l),
(417,1460,l),
(72,932,l),
(72,528,l),
(437,0,l)
);
},
{
closed = 1;
nodes = (
(769,-494,l),
(769,-418,l),
(528,-721,l),
(653,-786,l),
(871,-504,l),
(871,-151,l),
(528,-151,l),
(528,-494,l)
);
}
);
width = 1240;
},
{
layerId = "44BD81D2-59FE-4749-9CEB-CE9A9BBF7E1D";
shapes = (
{
closed = 1;
nodes = (
(1195,0,l),
(1382,208,l),
(1382,763,l),
(766,763,l),
(766,659,l),
(1327,659,l),
(1270,704,l),
(1270,263,l),
(1133,110,l),
(669,110,l),
(289,570,l),
(289,900,l),
(703,1350,l),
(1330,1350,l),
(1310,1460,l),
(637,1460,l),
(163,930,l),
(163,540,l),
(603,0,l)
);
},
{
closed = 1;
nodes = (
(850,-527,l),
(850,-471,l),
(668,-707,l),
(743,-747,l),
(912,-527,l),
(912,-312,l),
(697,-312,l),
(697,-527,l)
);
}
);
width = 1555;
},
{
layerId = "C51B4FD0-B2BF-40BC-847B-12841EA1BD5E";
shapes = (
{
closed = 1;
nodes = (
(1111,0,l),
(1430,341,l),
(1430,829,l),
(794,829,l),
(794,582,l),
(1232,582,l),
(1160,669,l),
(1160,471,l),
(991,301,l),
(698,301,l),
(428,642,l),
(428,818,l),
(712,1159,l),
(1360,1159,l),
(1330,1460,l),
(542,1460,l),
(103,932,l),
(103,528,l),
(528,0,l)
);
},
{
closed = 1;
nodes = (
(857,-494,l),
(857,-418,l),
(616,-721,l),
(741,-786,l),
(959,-504,l),
(959,-151,l),
(616,-151,l),
(616,-494,l)
);
}
);
width = 1555;
},
{
layerId = "70AA2382-B93B-4577-8C7E-04CBB56D22D0";
shapes = (
{
closed = 1;
nodes = (
(1000,0,l),
(1102,114,l),
(1102,763,l),
(656,763,l),
(656,659,l),
(1047,659,l),
(990,704,l),
(990,176,l),
(930,110,l),
(576,110,l),
(256,570,l),
(256,900,l),
(576,1350,l),
(1050,1350,l),
(1030,1460,l),
(510,1460,l),
(130,930,l),
(130,540,l),
(510,0,l)
);
},
{
closed = 1;
nodes = (
(770,-527,l),
(770,-471,l),
(588,-707,l),
(663,-747,l),
(832,-527,l),
(832,-312,l),
(617,-312,l),
(617,-527,l)
);
}
);
width = 1240;
},
{
layerId = "32C81056-0B67-48FF-9423-60F4119D1D79";
shapes = (
{
closed = 1;
nodes = (
(1098,0,l),
(1325,208,l),
(1433,763,l),
(817,763,l),
(797,659,l),
(1358,659,l),
(1310,704,l),
(1224,263,l),
(1057,110,l),
(589,110,l),
(302,566,l),
(365,890,l),
(878,1350,l),
(1495,1350,l),
(1497,1460,l),
(824,1460,l),
(247,930,l),
(171,540,l),
(506,0,l)
);
},
{
closed = 1;
nodes = (
(651,-527,l),
(661,-471,l),
(434,-707,l),
(501,-747,l),
(713,-527,l),
(754,-312,l),
(539,-312,l),
(498,-527,l)
);
}
);
width = 1555;
},
{
layerId = "7F8FBB26-3B45-4F09-894A-43C94E46FA86";
shapes = (
{
closed = 1;
nodes = (
(813,0,l),
(1095,247,l),
(1208,829,l),
(742,829,l),
(694,582,l),
(962,582,l),
(907,669,l),
(852,384,l),
(744,301,l),
(541,301,l),
(413,622,l),
(453,828,l),
(727,1159,l),
(1202,1159,l),
(1231,1460,l),
(596,1460,l),
(148,932,l),
(70,528,l),
(332,0,l)
);
},
{
closed = 1;
nodes = (
(568,-494,l),
(583,-418,l),
(283,-721,l),
(395,-786,l),
(668,-504,l),
(737,-151,l),
(394,-151,l),
(327,-494,l)
);
}
);
width = 1240;
},
{
layerId = "AD62C6D0-0611-42BF-ABA7-5ADD2541426F";
shapes = (
{
closed = 1;
nodes = (
(1006,0,l),
(1391,341,l),
(1486,829,l),
(850,829,l),
(802,582,l),
(1240,582,l),
(1185,669,l),
(1147,471,l),
(945,301,l),
(642,301,l),
(446,632,l),
(480,808,l),
(832,1159,l),
(1480,1159,l),
(1509,1460,l),
(721,1460,l),
(179,932,l),
(101,528,l),
(423,0,l)
);
},
{
closed = 1;
nodes = (
(656,-494,l),
(671,-418,l),
(371,-721,l),
(483,-786,l),
(756,-504,l),
(825,-151,l),
(482,-151,l),
(415,-494,l)
);
}
);
width = 1555;
},
{
layerId = "D91E39D8-7CC3-444E-9A45-AC8D9F6D33DB";
shapes = (
{
closed = 1;
nodes = (
(903,0,l),
(1027,114,l),
(1153,763,l),
(707,763,l),
(687,659,l),
(1078,659,l),
(1030,704,l),
(927,176,l),
(854,110,l),
(495,110,l),
(269,565,l),
(331,885,l),
(755,1350,l),
(1215,1350,l),
(1217,1460,l),
(697,1460,l),
(214,930,l),
(138,540,l),
(413,0,l)
);
},
{
closed = 1;
nodes = (
(571,-527,l),
(581,-471,l),
(354,-707,l),
(421,-747,l),
(633,-527,l),
(674,-312,l),
(459,-312,l),
(418,-527,l)
);
}
);
width = 1240;
}
);
unicode = 290;
},
{
glyphname = Gdotaccent;
lastChange = "2024-05-08 17:39:43 +0000";
layers = (
{
layerId = "B4DB2FCE-8F13-48AA-B57C-2BFA4BDFBB5B";
shapes = (
{
closed = 1;
nodes = (
(918,0,l),
(1152,247,l),
(1152,829,l),
(686,829,l),
(686,582,l),
(954,582,l),
(882,669,l),
(882,384,l),
(790,301,l),
(607,301,l),
(397,642,l),
(397,818,l),
(587,1159,l),
(1082,1159,l),
(1052,1460,l),
(417,1460,l),
(72,932,l),
(72,528,l),
(437,0,l)
);
},
{
closed = 1;
nodes = (
(870.4,1786.8,l),
(696,1954,l),
(520.8,1786.8,l),
(696,1618.8,l)
);
}
);
width = 1240;
},
{
layerId = "44BD81D2-59FE-4749-9CEB-CE9A9BBF7E1D";
shapes = (
{
closed = 1;
nodes = (
(1195,0,l),
(1382,208,l),
(1382,763,l),
(766,763,l),
(766,659,l),
(1327,659,l),
(1270,704,l),
(1270,263,l),
(1133,110,l),
(669,110,l),
(289,570,l),
(289,900,l),
(703,1350,l),
(1330,1350,l),
(1310,1460,l),
(637,1460,l),
(163,930,l),
(163,540,l),
(603,0,l)
);
},
{
closed = 1;
nodes = (
(1007,1756,l),
(870,1886,l),
(733,1756,l),
(870,1626,l)
);
}
);
width = 1555;
},
{
layerId = "C51B4FD0-B2BF-40BC-847B-12841EA1BD5E";
shapes = (
{
closed = 1;
nodes = (
(1111,0,l),
(1430,341,l),
(1430,829,l),
(794,829,l),
(794,582,l),
(1232,582,l),
(1160,669,l),
(1160,471,l),
(991,301,l),
(698,301,l),
(428,642,l),
(428,818,l),
(712,1159,l),
(1360,1159,l),
(1330,1460,l),
(542,1460,l),
(103,932,l),
(103,528,l),
(528,0,l)
);
},
{
closed = 1;
nodes = (
(1042,1797,l),
(867,1964,l),
(692,1797,l),
(867,1629,l)
);
}
);
width = 1555;
},
{
layerId = "70AA2382-B93B-4577-8C7E-04CBB56D22D0";
shapes = (
{
closed = 1;
nodes = (
(1000,0,l),
(1102,114,l),
(1102,763,l),
(656,763,l),
(656,659,l),
(1047,659,l),
(990,704,l),
(990,176,l),
(930,110,l),
(576,110,l),
(256,570,l),
(256,900,l),
(576,1350,l),
(1050,1350,l),
(1030,1460,l),
(510,1460,l),
(130,930,l),
(130,540,l),
(510,0,l)
);
},
{
closed = 1;
nodes = (
(827,1756,l),
(690,1886,l),
(553,1756,l),
(690,1626,l)
);
}
);
width = 1240;
},
{
layerId = "32C81056-0B67-48FF-9423-60F4119D1D79";
shapes = (
{
closed = 1;
nodes = (
(1098,0,l),
(1325,208,l),
(1433,763,l),
(817,763,l),
(797,659,l),
(1358,659,l),
(1310,704,l),
(1224,263,l),
(1057,110,l),
(589,110,l),
(302,566,l),
(365,890,l),
(878,1350,l),
(1495,1350,l),
(1497,1460,l),
(824,1460,l),
(247,930,l),
(171,540,l),
(506,0,l)
);
},
{
closed = 1;
nodes = (
(1251,1756,l),
(1140,1886,l),
(977,1756,l),
(1089,1626,l)
);
}
);
width = 1555;
},
{
layerId = "7F8FBB26-3B45-4F09-894A-43C94E46FA86";
shapes = (
{
closed = 1;
nodes = (
(813,0,l),
(1095,247,l),
(1208,829,l),
(742,829,l),
(694,582,l),
(962,582,l),
(907,669,l),
(852,384,l),
(744,301,l),
(541,301,l),
(413,622,l),
(453,828,l),
(727,1159,l),
(1202,1159,l),
(1231,1460,l),
(596,1460,l),
(148,932,l),
(70,528,l),
(332,0,l)
);
},
{
closed = 1;
nodes = (
(1113,1787,l),
(971,1954,l),
(763,1787,l),
(906,1619,l)
);
}
);
width = 1240;
},
{
layerId = "AD62C6D0-0611-42BF-ABA7-5ADD2541426F";
shapes = (
{
closed = 1;
nodes = (
(1006,0,l),
(1391,341,l),
(1486,829,l),
(850,829,l),
(802,582,l),
(1240,582,l),
(1185,669,l),
(1147,471,l),
(945,301,l),
(642,301,l),
(446,632,l),
(480,808,l),
(832,1159,l),
(1480,1159,l),
(1509,1460,l),
(721,1460,l),
(179,932,l),
(101,528,l),
(423,0,l)
);
},
{
closed = 1;
nodes = (
(1286,1797,l),
(1144,1964,l),
(936,1797,l),
(1079,1629,l)
);
}
);
width = 1555;
},
{
layerId = "D91E39D8-7CC3-444E-9A45-AC8D9F6D33DB";
shapes = (
{
closed = 1;
nodes = (
(903,0,l),
(1027,114,l),
(1153,763,l),
(707,763,l),
(687,659,l),
(1078,659,l),
(1030,704,l),
(927,176,l),
(854,110,l),
(495,110,l),
(269,565,l),
(331,885,l),
(755,1350,l),
(1215,1350,l),
(1217,1460,l),
(697,1460,l),
(214,930,l),
(138,540,l),
(413,0,l)
);
},
{
closed = 1;
nodes = (
(1071,1756,l),
(960,1886,l),
(797,1756,l),
(909,1626,l)
);
}
);
width = 1240;
}
);
unicode = 288;
},
{
glyphname = H;
lastChange = "2024-05-08 17:39:42 +0000";
layers = (
{
layerId = "70AA2382-B93B-4577-8C7E-04CBB56D22D0";
shapes = (
{
closed = 1;
nodes = (
(1033,0,l),
(1033,1460,l),
(907,1460,l),
(907,0,l)
);
},
{
closed = 1;
nodes = (
(333,0,l),
(333,1460,l),
(207,1460,l),
(207,0,l)
);
},
{
closed = 1;
nodes = (
(968,709,l),
(968,810,l),
(276,810,l),
(276,709,l)
);
}
);
width = 1240;
},
{
layerId = "32C81056-0B67-48FF-9423-60F4119D1D79";
shapes = (
{
closed = 1;
nodes = (
(1225,0,l),
(1509,1460,l),
(1383,1460,l),
(1099,0,l)
);
},
{
closed = 1;
nodes = (
(263,0,l),
(547,1460,l),
(421,1460,l),
(137,0,l)
);
},
{
closed = 1;
nodes = (
(1298,709,l),
(1317,810,l),
(363,810,l),
(344,709,l)
);
}
);
width = 1555;
},
{
layerId = "7F8FBB26-3B45-4F09-894A-43C94E46FA86";
shapes = (
{
closed = 1;
nodes = (
(1003,0,l),
(1287,1460,l),
(950,1460,l),
(666,0,l)
);
},
{
closed = 1;
nodes = (
(364,0,l),
(648,1460,l),
(311,1460,l),
(27,0,l)
);
},
{
closed = 1;
nodes = (
(979,602,l),
(1032,873,l),
(334,873,l),
(281,602,l)
);
}
);
width = 1240;
},
{
layerId = "B4DB2FCE-8F13-48AA-B57C-2BFA4BDFBB5B";
shapes = (
{
closed = 1;
nodes = (
(1108,0,l),
(1108,1460,l),
(771,1460,l),
(771,0,l)
);
},
{
closed = 1;
nodes = (
(469,0,l),
(469,1460,l),
(132,1460,l),
(132,0,l)
);
},
{
closed = 1;
nodes = (
(967,602,l),
(967,873,l),
(269,873,l),
(269,602,l)
);
}
);
width = 1240;
},
{
layerId = "44BD81D2-59FE-4749-9CEB-CE9A9BBF7E1D";
shapes = (
{
closed = 1;
nodes = (
(1322,0,l),
(1322,1460,l),
(1196,1460,l),
(1196,0,l)
);
},
{
closed = 1;
nodes = (
(360,0,l),
(360,1460,l),
(234,1460,l),
(234,0,l)
);
},
{
closed = 1;
nodes = (
(1257,709,l),
(1257,810,l),
(303,810,l),
(303,709,l)
);
}
);
width = 1555;
},
{
layerId = "C51B4FD0-B2BF-40BC-847B-12841EA1BD5E";
shapes = (
{
closed = 1;
nodes = (
(1396,0,l),
(1396,1460,l),
(1059,1460,l),
(1059,0,l)
);
},
{
closed = 1;
nodes = (
(495,0,l),
(495,1460,l),
(158,1460,l),
(158,0,l)
);
},
{
closed = 1;
nodes = (
(1255,602,l),
(1255,873,l),
(295,873,l),
(295,602,l)
);
}
);
width = 1555;
},
{
layerId = "AD62C6D0-0611-42BF-ABA7-5ADD2541426F";
shapes = (
{
closed = 1;
nodes = (
(1291,0,l),
(1575,1460,l),
(1238,1460,l),
(954,0,l)
);
},
{
closed = 1;
nodes = (
(390,0,l),
(674,1460,l),
(337,1460,l),
(53,0,l)
);
},
{
closed = 1;
nodes = (
(1267,602,l),
(1320,873,l),
(360,873,l),
(307,602,l)
);
}
);
width = 1555;
},
{
layerId = "D91E39D8-7CC3-444E-9A45-AC8D9F6D33DB";
shapes = (
{
closed = 1;
nodes = (
(936,0,l),
(1220,1460,l),
(1094,1460,l),
(810,0,l)
);
},
{
closed = 1;
nodes = (
(236,0,l),
(520,1460,l),
(394,1460,l),
(110,0,l)
);
},
{
closed = 1;
nodes = (
(1009,709,l),
(1028,810,l),
(336,810,l),
(317,709,l)
);
}
);
width = 1240;
}
);
unicode = 72;
},
{
glyphname = Hbar;
lastChange = "2024-05-08 17:39:43 +0000";
layers = (
{
layerId = "B4DB2FCE-8F13-48AA-B57C-2BFA4BDFBB5B";
shapes = (
{
closed = 1;
nodes = (
(1200,1082,l),
(1200,1293,l),
(40,1293,l),
(40,1082,l)
);
},
{
closed = 1;
nodes = (
(1108,0,l),
(1108,1460,l),
(771,1460,l),
(771,0,l)
);
},
{
closed = 1;
nodes = (
(469,0,l),
(469,1460,l),
(132,1460,l),
(132,0,l)
);
},
{
closed = 1;
nodes = (
(967,602,l),
(967,873,l),
(269,873,l),
(269,602,l)
);
}
);
width = 1240;
},
{
layerId = "44BD81D2-59FE-4749-9CEB-CE9A9BBF7E1D";
shapes = (
{
closed = 1;
nodes = (
(1515,1102,l),
(1515,1212,l),
(40,1212,l),
(40,1102,l)
);
},
{
closed = 1;
nodes = (
(1322,0,l),
(1322,1460,l),
(1196,1460,l),
(1196,0,l)
);
},
{
closed = 1;
nodes = (
(360,0,l),
(360,1460,l),
(234,1460,l),
(234,0,l)
);
},
{
closed = 1;
nodes = (
(1257,709,l),
(1257,810,l),
(303,810,l),
(303,709,l)
);
}
);
width = 1555;
},
{
layerId = "C51B4FD0-B2BF-40BC-847B-12841EA1BD5E";
shapes = (
{
closed = 1;
nodes = (
(1515,1082,l),
(1515,1283,l),
(40,1283,l),
(40,1082,l)
);
},
{
closed = 1;
nodes = (
(1397,0,l),
(1397,1460,l),
(1060,1460,l),
(1060,0,l)
);
},
{
closed = 1;
nodes = (
(496,0,l),
(496,1460,l),
(159,1460,l),
(159,0,l)
);
},
{
closed = 1;
nodes = (
(1256,602,l),
(1256,873,l),
(296,873,l),
(296,602,l)
);
}
);
width = 1555;
},
{
layerId = "70AA2382-B93B-4577-8C7E-04CBB56D22D0";
shapes = (
{
closed = 1;
nodes = (
(1200,1102,l),
(1200,1212,l),
(40,1212,l),
(40,1102,l)
);
},
{
closed = 1;
nodes = (
(1033,0,l),
(1033,1460,l),
(907,1460,l),
(907,0,l)
);
},
{
closed = 1;
nodes = (
(333,0,l),
(333,1460,l),
(207,1460,l),
(207,0,l)
);
},
{
closed = 1;
nodes = (
(968,709,l),
(968,810,l),
(276,810,l),
(276,709,l)
);
}
);
width = 1240;
},
{
layerId = "32C81056-0B67-48FF-9423-60F4119D1D79";
shapes = (
{
closed = 1;
nodes = (
(1632,1102,l),
(1654,1212,l),
(179,1212,l),
(157,1102,l)
);
},
{
closed = 1;
nodes = (
(1225,0,l),
(1509,1460,l),
(1383,1460,l),
(1099,0,l)
);
},
{
closed = 1;
nodes = (
(263,0,l),
(547,1460,l),
(421,1460,l),
(137,0,l)
);
},
{
closed = 1;
nodes = (
(1298,709,l),
(1317,810,l),
(363,810,l),
(344,709,l)
);
}
);
width = 1555;
},
{
layerId = "7F8FBB26-3B45-4F09-894A-43C94E46FA86";
shapes = (
{
closed = 1;
nodes = (
(1305,1082,l),
(1346,1293,l),
(186,1293,l),
(145,1082,l)
);
},
{
closed = 1;
nodes = (
(1003,0,l),
(1287,1460,l),
(950,1460,l),
(666,0,l)
);
},
{
closed = 1;
nodes = (
(364,0,l),
(648,1460,l),
(311,1460,l),
(27,0,l)
);
},
{
closed = 1;
nodes = (
(979,602,l),
(1032,873,l),
(334,873,l),
(281,602,l)
);
}
);
width = 1240;
},
{
layerId = "AD62C6D0-0611-42BF-ABA7-5ADD2541426F";
shapes = (
{
closed = 1;
nodes = (
(1620,1082,l),
(1659,1283,l),
(184,1283,l),
(145,1082,l)
);
},
{
closed = 1;
nodes = (
(1292,0,l),
(1576,1460,l),
(1239,1460,l),
(955,0,l)
);
},
{
closed = 1;
nodes = (
(391,0,l),
(675,1460,l),
(338,1460,l),
(54,0,l)
);
},
{
closed = 1;
nodes = (
(1268,602,l),
(1321,873,l),
(361,873,l),
(308,602,l)
);
}
);
width = 1555;
},
{
layerId = "D91E39D8-7CC3-444E-9A45-AC8D9F6D33DB";
shapes = (
{
closed = 1;
nodes = (
(1317,1102,l),
(1339,1212,l),
(179,1212,l),
(157,1102,l)
);
},
{
closed = 1;
nodes = (
(936,0,l),
(1220,1460,l),
(1094,1460,l),
(810,0,l)
);
},
{
closed = 1;
nodes = (
(236,0,l),
(520,1460,l),
(394,1460,l),
(110,0,l)
);
},
{
closed = 1;
nodes = (
(1009,709,l),
(1028,810,l),
(336,810,l),
(317,709,l)
);
}
);
width = 1240;
}
);
unicode = 294;
},
{
glyphname = Hcircumflex;
lastChange = "2024-05-08 17:39:43 +0000";
layers = (
{
layerId = "B4DB2FCE-8F13-48AA-B57C-2BFA4BDFBB5B";
shapes = (
{
closed = 1;
nodes = (
(1108,0,l),
(1108,1460,l),
(771,1460,l),
(771,0,l)
);
},
{
closed = 1;
nodes = (
(469,0,l),
(469,1460,l),
(132,1460,l),
(132,0,l)
);
},
{
closed = 1;
nodes = (
(967,602,l),
(967,873,l),
(269,873,l),
(269,602,l)
);
},
{
closed = 1;
nodes = (
(483,1620,l),
(644,1824,l),
(596,1824,l),
(757,1620,l),
(1041,1620,l),
(813,1878,l),
(427,1878,l),
(199,1620,l)
);
}
);
width = 1240;
},
{
layerId = "44BD81D2-59FE-4749-9CEB-CE9A9BBF7E1D";
shapes = (
{
closed = 1;
nodes = (
(1322,0,l),
(1322,1460,l),
(1196,1460,l),
(1196,0,l)
);
},
{
closed = 1;
nodes = (
(360,0,l),
(360,1460,l),
(234,1460,l),
(234,0,l)
);
},
{
closed = 1;
nodes = (
(1257,709,l),
(1257,810,l),
(303,810,l),
(303,709,l)
);
},
{
closed = 1;
nodes = (
(533,1650,l),
(808,1859,l),
(746,1859,l),
(1022,1650,l),
(1169,1650,l),
(855,1883,l),
(699,1883,l),
(386,1650,l)
);
}
);
width = 1555;
},
{
layerId = "C51B4FD0-B2BF-40BC-847B-12841EA1BD5E";
shapes = (
{
closed = 1;
nodes = (
(1396,0,l),
(1396,1460,l),
(1059,1460,l),
(1059,0,l)
);
},
{
closed = 1;
nodes = (
(495,0,l),
(495,1460,l),
(158,1460,l),
(158,0,l)
);
},
{
closed = 1;
nodes = (
(1255,602,l),
(1255,873,l),
(295,873,l),
(295,602,l)
);
},
{
closed = 1;
nodes = (
(610,1620,l),
(810,1866,l),
(742,1866,l),
(943,1620,l),
(1257,1620,l),
(969,1908,l),
(583,1908,l),
(296,1620,l)
);
}
);
width = 1555;
},
{
layerId = "70AA2382-B93B-4577-8C7E-04CBB56D22D0";
shapes = (
{
closed = 1;
nodes = (
(1033,0,l),
(1033,1460,l),
(907,1460,l),
(907,0,l)
);
},
{
closed = 1;
nodes = (
(333,0,l),
(333,1460,l),
(207,1460,l),
(207,0,l)
);
},
{
closed = 1;
nodes = (
(968,709,l),
(968,810,l),
(276,810,l),
(276,709,l)
);
},
{
closed = 1;
nodes = (
(429,1650,l),
(648,1854,l),
(592,1854,l),
(811,1650,l),
(942,1650,l),
(678,1883,l),
(562,1883,l),
(298,1650,l)
);
}
);
width = 1240;
},
{
layerId = "32C81056-0B67-48FF-9423-60F4119D1D79";
shapes = (
{
closed = 1;
nodes = (
(1225,0,l),
(1509,1460,l),
(1383,1460,l),
(1099,0,l)
);
},
{
closed = 1;
nodes = (
(263,0,l),
(547,1460,l),
(421,1460,l),
(137,0,l)
);
},
{
closed = 1;
nodes = (
(1298,709,l),
(1317,810,l),
(363,810,l),
(344,709,l)
);
},
{
closed = 1;
nodes = (
(757,1650,l),
(1072,1859,l),
(1010,1859,l),
(1246,1650,l),
(1393,1650,l),
(1124,1883,l),
(968,1883,l),
(610,1650,l)
);
}
);
width = 1555;
},
{
layerId = "7F8FBB26-3B45-4F09-894A-43C94E46FA86";
shapes = (
{
closed = 1;
nodes = (
(1003,0,l),
(1287,1460,l),
(950,1460,l),
(666,0,l)
);
},
{
closed = 1;
nodes = (
(364,0,l),
(648,1460,l),
(311,1460,l),
(27,0,l)
);
},
{
closed = 1;
nodes = (
(979,602,l),
(1032,873,l),
(334,873,l),
(281,602,l)
);
},
{
closed = 1;
nodes = (
(693,1620,l),
(894,1824,l),
(846,1824,l),
(967,1620,l),
(1251,1620,l),
(1073,1878,l),
(687,1878,l),
(409,1620,l)
);
}
);
width = 1240;
},
{
layerId = "AD62C6D0-0611-42BF-ABA7-5ADD2541426F";
shapes = (
{
closed = 1;
nodes = (
(1291,0,l),
(1575,1460,l),
(1238,1460,l),
(954,0,l)
);
},
{
closed = 1;
nodes = (
(390,0,l),
(674,1460,l),
(337,1460,l),
(53,0,l)
);
},
{
closed = 1;
nodes = (
(1267,602,l),
(1320,873,l),
(360,873,l),
(307,602,l)
);
},
{
closed = 1;
nodes = (
(820,1620,l),
(1068,1866,l),
(1000,1866,l),
(1153,1620,l),
(1467,1620,l),
(1235,1908,l),
(849,1908,l),
(506,1620,l)
);
}
);
width = 1555;
},
{
layerId = "D91E39D8-7CC3-444E-9A45-AC8D9F6D33DB";
shapes = (
{
closed = 1;
nodes = (
(936,0,l),
(1220,1460,l),
(1094,1460,l),
(810,0,l)
);
},
{
closed = 1;
nodes = (
(236,0,l),
(520,1460,l),
(394,1460,l),
(110,0,l)
);
},
{
closed = 1;
nodes = (
(1009,709,l),
(1028,810,l),
(336,810,l),
(317,709,l)
);
},
{
closed = 1;
nodes = (
(653,1650,l),
(911,1854,l),
(855,1854,l),
(1035,1650,l),
(1166,1650,l),
(947,1883,l),
(831,1883,l),
(522,1650,l)
);
}
);
width = 1240;
}
);
unicode = 292;
},
{
glyphname = I;
lastChange = "2024-05-08 17:39:42 +0000";
layers = (
{
layerId = "70AA2382-B93B-4577-8C7E-04CBB56D22D0";
shapes = (
{
closed = 1;
nodes = (
(673,0,l),
(673,1460,l),
(547,1460,l),
(547,0,l)
);
},
{
closed = 1;
nodes = (
(1068,0,l),
(1088,110,l),
(152,110,l),
(172,0,l)
);
},
{
closed = 1;
nodes = (
(1088,1350,l),
(1068,1460,l),
(172,1460,l),
(152,1350,l)
);
}
);
width = 1240;
},
{
layerId = "32C81056-0B67-48FF-9423-60F4119D1D79";
shapes = (
{
closed = 1;
nodes = (
(734,0,l),
(1018,1460,l),
(892,1460,l),
(608,0,l)
);
},
{
closed = 1;
nodes = (
(1231,0,l),
(1272,110,l),
(132,110,l),
(131,0,l)
);
},
{
closed = 1;
nodes = (
(1513,1350,l),
(1515,1460,l),
(415,1460,l),
(373,1350,l)
);
}
);
width = 1555;
},
{
layerId = "7F8FBB26-3B45-4F09-894A-43C94E46FA86";
shapes = (
{
closed = 1;
nodes = (
(680,0,l),
(964,1460,l),
(634,1460,l),
(350,0,l)
);
},
{
closed = 1;
nodes = (
(970,0,l),
(1043,271,l),
(93,271,l),
(60,0,l)
);
},
{
closed = 1;
nodes = (
(1221,1189,l),
(1254,1460,l),
(344,1460,l),
(271,1189,l)
);
}
);
width = 1240;
},
{
layerId = "B4DB2FCE-8F13-48AA-B57C-2BFA4BDFBB5B";
shapes = (
{
closed = 1;
nodes = (
(785,0,l),
(785,1460,l),
(455,1460,l),
(455,0,l)
);
},
{
closed = 1;
nodes = (
(1075,0,l),
(1095,271,l),
(145,271,l),
(165,0,l)
);
},
{
closed = 1;
nodes = (
(1095,1189,l),
(1075,1460,l),
(165,1460,l),
(145,1189,l)
);
}
);
width = 1240;
},
{
layerId = "44BD81D2-59FE-4749-9CEB-CE9A9BBF7E1D";
shapes = (
{
closed = 1;
nodes = (
(831,0,l),
(831,1460,l),
(705,1460,l),
(705,0,l)
);
},
{
closed = 1;
nodes = (
(1328,0,l),
(1348,110,l),
(208,110,l),
(228,0,l)
);
},
{
closed = 1;
nodes = (
(1348,1350,l),
(1328,1460,l),
(228,1460,l),
(208,1350,l)
);
}
);
width = 1555;
},
{
layerId = "C51B4FD0-B2BF-40BC-847B-12841EA1BD5E";
shapes = (
{
closed = 1;
nodes = (
(942,0,l),
(942,1460,l),
(612,1460,l),
(612,0,l)
);
},
{
closed = 1;
nodes = (
(1334,0,l),
(1354,271,l),
(200,271,l),
(220,0,l)
);
},
{
closed = 1;
nodes = (
(1354,1189,l),
(1334,1460,l),
(220,1460,l),
(200,1189,l)
);
}
);
width = 1555;
},
{
layerId = "AD62C6D0-0611-42BF-ABA7-5ADD2541426F";
shapes = (
{
closed = 1;
nodes = (
(837,0,l),
(1121,1460,l),
(791,1460,l),
(507,0,l)
);
},
{
closed = 1;
nodes = (
(1229,0,l),
(1302,271,l),
(148,271,l),
(115,0,l)
);
},
{
closed = 1;
nodes = (
(1480,1189,l),
(1513,1460,l),
(399,1460,l),
(326,1189,l)
);
}
);
width = 1555;
},
{
layerId = "D91E39D8-7CC3-444E-9A45-AC8D9F6D33DB";
shapes = (
{
closed = 1;
nodes = (
(576,0,l),
(860,1460,l),
(734,1460,l),
(450,0,l)
);
},
{
closed = 1;
nodes = (
(971,0,l),
(1012,110,l),
(76,110,l),
(75,0,l)
);
},
{
closed = 1;
nodes = (
(1253,1350,l),
(1255,1460,l),
(359,1460,l),
(317,1350,l)
);
}
);
width = 1240;
}
);
unicode = 73;
},
{
glyphname = IJ;
lastChange = "2024-05-08 17:39:43 +0000";
layers = (
{
layerId = "B4DB2FCE-8F13-48AA-B57C-2BFA4BDFBB5B";
shapes = (
{
closed = 1;
nodes = (
(467,678,l),
(467,1460,l),
(132,1460,l),
(132,678,l)
);
},
{
closed = 1;
nodes = (
(793,0,l),
(1108,229,l),
(1108,1460,l),
(773,1460,l),
(773,353,l),
(655,271,l),
(585,271,l),
(467,353,l),
(467,467,l),
(132,467,l),
(132,229,l),
(447,0,l)
);
},
{
closed = 1;
nodes = (
(961,1184,l),
(961,1460,l),
(620,1460,l),
(590,1184,l)
);
}
);
width = 1240;
},
{
layerId = "44BD81D2-59FE-4749-9CEB-CE9A9BBF7E1D";
shapes = (
{
closed = 1;
nodes = (
(360,724,l),
(360,1460,l),
(234,1460,l),
(234,724,l)
);
},
{
closed = 1;
nodes = (
(1000,0,l),
(1322,244,l),
(1322,1460,l),
(1196,1460,l),
(1196,295,l),
(927,110,l),
(639,110,l),
(360,295,l),
(360,468,l),
(234,468,l),
(234,244,l),
(566,0,l)
);
},
{
closed = 1;
nodes = (
(1282,1350,l),
(1282,1460,l),
(667,1460,l),
(647,1350,l)
);
}
);
width = 1555;
},
{
layerId = "C51B4FD0-B2BF-40BC-847B-12841EA1BD5E";
shapes = (
{
closed = 1;
nodes = (
(489,718,l),
(489,1460,l),
(160,1460,l),
(160,718,l)
);
},
{
closed = 1;
nodes = (
(960,0,l),
(1397,275,l),
(1397,1460,l),
(1062,1460,l),
(1062,396,l),
(832,271,l),
(723,271,l),
(493,396,l),
(493,500,l),
(158,500,l),
(158,275,l),
(595,0,l)
);
},
{
closed = 1;
nodes = (
(1254,1184,l),
(1254,1460,l),
(759,1460,l),
(729,1184,l)
);
}
);
width = 1555;
},
{
layerId = "70AA2382-B93B-4577-8C7E-04CBB56D22D0";
shapes = (
{
closed = 1;
nodes = (
(335,650,l),
(335,1460,l),
(209,1460,l),
(209,650,l)
);
},
{
closed = 1;
nodes = (
(763,0,l),
(1033,198,l),
(1033,1460,l),
(907,1460,l),
(907,252,l),
(690,110,l),
(540,110,l),
(333,252,l),
(333,401,l),
(207,401,l),
(207,198,l),
(467,0,l)
);
},
{
closed = 1;
nodes = (
(989,1350,l),
(989,1460,l),
(563,1460,l),
(543,1350,l)
);
}
);
width = 1240;
},
{
layerId = "32C81056-0B67-48FF-9423-60F4119D1D79";
shapes = (
{
closed = 1;
nodes = (
(404,724,l),
(547,1460,l),
(421,1460,l),
(278,724,l)
);
},
{
closed = 1;
nodes = (
(903,0,l),
(1272,244,l),
(1509,1460,l),
(1383,1460,l),
(1156,295,l),
(851,110,l),
(563,110,l),
(320,295,l),
(354,468,l),
(228,468,l),
(184,244,l),
(469,0,l)
);
},
{
closed = 1;
nodes = (
(1447,1350,l),
(1469,1460,l),
(854,1460,l),
(812,1350,l)
);
}
);
width = 1555;
},
{
layerId = "7F8FBB26-3B45-4F09-894A-43C94E46FA86";
shapes = (
{
closed = 1;
nodes = (
(494,678,l),
(646,1460,l),
(311,1460,l),
(159,678,l)
);
},
{
closed = 1;
nodes = (
(688,0,l),
(1048,229,l),
(1287,1460,l),
(952,1460,l),
(737,353,l),
(603,271,l),
(533,271,l),
(431,353,l),
(453,467,l),
(118,467,l),
(72,229,l),
(342,0,l)
);
},
{
closed = 1;
nodes = (
(1086,1184,l),
(1140,1460,l),
(799,1460,l),
(715,1184,l)
);
}
);
width = 1240;
},
{
layerId = "AD62C6D0-0611-42BF-ABA7-5ADD2541426F";
shapes = (
{
closed = 1;
nodes = (
(524,718,l),
(668,1460,l),
(339,1460,l),
(195,718,l)
);
},
{
closed = 1;
nodes = (
(855,0,l),
(1345,275,l),
(1576,1460,l),
(1241,1460,l),
(1034,396,l),
(780,271,l),
(671,271,l),
(465,396,l),
(485,500,l),
(150,500,l),
(106,275,l),
(490,0,l)
);
},
{
closed = 1;
nodes = (
(1379,1184,l),
(1433,1460,l),
(938,1460,l),
(854,1184,l)
);
}
);
width = 1555;
},
{
layerId = "D91E39D8-7CC3-444E-9A45-AC8D9F6D33DB";
shapes = (
{
closed = 1;
nodes = (
(364,650,l),
(522,1460,l),
(396,1460,l),
(238,650,l)
);
},
{
closed = 1;
nodes = (
(666,0,l),
(974,198,l),
(1220,1460,l),
(1094,1460,l),
(859,252,l),
(614,110,l),
(464,110,l),
(285,252,l),
(314,401,l),
(188,401,l),
(148,198,l),
(370,0,l)
);
},
{
closed = 1;
nodes = (
(1154,1350,l),
(1176,1460,l),
(750,1460,l),
(708,1350,l)
);
}
);
width = 1240;
}
);
unicode = 306;
},
{
glyphname = Iacute;
lastChange = "2024-05-08 17:39:43 +0000";
layers = (
{
layerId = "B4DB2FCE-8F13-48AA-B57C-2BFA4BDFBB5B";
shapes = (
{
closed = 1;
nodes = (
(785,0,l),
(785,1460,l),
(455,1460,l),
(455,0,l)
);
},
{
closed = 1;
nodes = (
(1075,0,l),
(1095,271,l),
(145,271,l),
(165,0,l)
);
},
{
closed = 1;
nodes = (
(1095,1189,l),
(1075,1460,l),
(165,1460,l),
(145,1189,l)
);
},
{
closed = 1;
nodes = (
(495,1619.05,l),
(678,1877.386,l),
(1003,1877.386,l),
(754,1619.05,l)
);
}
);
width = 1240;
},
{
layerId = "44BD81D2-59FE-4749-9CEB-CE9A9BBF7E1D";
shapes = (
{
closed = 1;
nodes = (
(831,0,l),
(831,1460,l),
(705,1460,l),
(705,0,l)
);
},
{
closed = 1;
nodes = (
(1328,0,l),
(1348,110,l),
(208,110,l),
(228,0,l)
);
},
{
closed = 1;
nodes = (
(1348,1350,l),
(1328,1460,l),
(228,1460,l),
(208,1350,l)
);
},
{
closed = 1;
nodes = (
(709,1652,l),
(981,1884,l),
(1134,1884,l),
(828,1652,l)
);
}
);
width = 1555;
},
{
layerId = "C51B4FD0-B2BF-40BC-847B-12841EA1BD5E";
shapes = (
{
closed = 1;
nodes = (
(942,0,l),
(942,1460,l),
(612,1460,l),
(612,0,l)
);
},
{
closed = 1;
nodes = (
(1334,0,l),
(1354,271,l),
(200,271,l),
(220,0,l)
);
},
{
closed = 1;
nodes = (
(1354,1189,l),
(1334,1460,l),
(220,1460,l),
(200,1189,l)
);
},
{
closed = 1;
nodes = (
(642,1619.408,l),
(859,1917.966,l),
(1212,1917.966,l),
(921,1619.408,l)
);
}
);
width = 1555;
},
{
layerId = "70AA2382-B93B-4577-8C7E-04CBB56D22D0";
shapes = (
{
closed = 1;
nodes = (
(673,0,l),
(673,1460,l),
(547,1460,l),
(547,0,l)
);
},
{
closed = 1;
nodes = (
(1068,0,l),
(1088,110,l),
(152,110,l),
(172,0,l)
);
},
{
closed = 1;
nodes = (
(1088,1350,l),
(1068,1460,l),
(172,1460,l),
(152,1350,l)
);
},
{
closed = 1;
nodes = (
(556,1650.191,l),
(778,1883.236,l),
(918,1883.236,l),
(665,1650.191,l)
);
}
);
width = 1240;
},
{
layerId = "32C81056-0B67-48FF-9423-60F4119D1D79";
shapes = (
{
closed = 1;
nodes = (
(734,0,l),
(1018,1460,l),
(892,1460,l),
(608,0,l)
);
},
{
closed = 1;
nodes = (
(1231,0,l),
(1272,110,l),
(132,110,l),
(131,0,l)
);
},
{
closed = 1;
nodes = (
(1513,1350,l),
(1515,1460,l),
(415,1460,l),
(373,1350,l)
);
},
{
closed = 1;
nodes = (
(933,1652,l),
(1250,1884,l),
(1403,1884,l),
(1052,1652,l)
);
}
);
width = 1555;
},
{
layerId = "7F8FBB26-3B45-4F09-894A-43C94E46FA86";
shapes = (
{
closed = 1;
nodes = (
(680,0,l),
(964,1460,l),
(634,1460,l),
(350,0,l)
);
},
{
closed = 1;
nodes = (
(970,0,l),
(1043,271,l),
(93,271,l),
(60,0,l)
);
},
{
closed = 1;
nodes = (
(1221,1189,l),
(1254,1460,l),
(344,1460,l),
(271,1189,l)
);
},
{
closed = 1;
nodes = (
(705,1619,l),
(938,1877,l),
(1263,1877,l),
(964,1619,l)
);
}
);
width = 1240;
},
{
layerId = "AD62C6D0-0611-42BF-ABA7-5ADD2541426F";
shapes = (
{
closed = 1;
nodes = (
(837,0,l),
(1121,1460,l),
(791,1460,l),
(507,0,l)
);
},
{
closed = 1;
nodes = (
(1229,0,l),
(1302,271,l),
(148,271,l),
(115,0,l)
);
},
{
closed = 1;
nodes = (
(1480,1189,l),
(1513,1460,l),
(399,1460,l),
(326,1189,l)
);
},
{
closed = 1;
nodes = (
(852,1619,l),
(1127,1918,l),
(1480,1918,l),
(1131,1619,l)
);
}
);
width = 1555;
},
{
layerId = "D91E39D8-7CC3-444E-9A45-AC8D9F6D33DB";
shapes = (
{
closed = 1;
nodes = (
(576,0,l),
(860,1460,l),
(734,1460,l),
(450,0,l)
);
},
{
closed = 1;
nodes = (
(971,0,l),
(1012,110,l),
(76,110,l),
(75,0,l)
);
},
{
closed = 1;
nodes = (
(1253,1350,l),
(1255,1460,l),
(359,1460,l),
(317,1350,l)
);
},
{
closed = 1;
nodes = (
(780,1650,l),
(1047,1883,l),
(1187,1883,l),
(889,1650,l)
);
}
);
width = 1240;
}
);
unicode = 205;
},
{
glyphname = Ibreve;
lastChange = "2024-05-08 17:39:43 +0000";
layers = (
{
layerId = "B4DB2FCE-8F13-48AA-B57C-2BFA4BDFBB5B";
shapes = (
{
closed = 1;
nodes = (
(785,0,l),
(785,1460,l),
(455,1460,l),
(455,0,l)
);
},
{
closed = 1;
nodes = (
(1075,0,l),
(1095,271,l),
(145,271,l),
(165,0,l)
);
},
{
closed = 1;
nodes = (
(1095,1189,l),
(1075,1460,l),
(165,1460,l),
(145,1189,l)
);
},
{
closed = 1;
nodes = (
(787,1600,l),
(980,1753,l),
(980,1878,l),
(782,1878,l),
(782,1820,l),
(707,1763,l),
(533,1763,l),
(458,1820,l),
(458,1878,l),
(260,1878,l),
(260,1752,l),
(453,1600,l)
);
}
);
width = 1240;
},
{
layerId = "44BD81D2-59FE-4749-9CEB-CE9A9BBF7E1D";
shapes = (
{
closed = 1;
nodes = (
(831,0,l),
(831,1460,l),
(705,1460,l),
(705,0,l)
);
},
{
closed = 1;
nodes = (
(1328,0,l),
(1348,110,l),
(208,110,l),
(228,0,l)
);
},
{
closed = 1;
nodes = (
(1348,1350,l),
(1328,1460,l),
(228,1460,l),
(208,1350,l)
);
},
{
closed = 1;
nodes = (
(942,1643,l),
(1092,1760,l),
(1092,1883,l),
(1002,1883,l),
(1002,1797,l),
(902,1731,l),
(648,1731,l),
(548,1797,l),
(548,1883,l),
(458,1883,l),
(458,1759,l),
(608,1643,l)
);
}
);
width = 1555;
},
{
layerId = "C51B4FD0-B2BF-40BC-847B-12841EA1BD5E";
shapes = (
{
closed = 1;
nodes = (
(942,0,l),
(942,1460,l),
(612,1460,l),
(612,0,l)
);
},
{
closed = 1;
nodes = (
(1334,0,l),
(1354,271,l),
(200,271,l),
(220,0,l)
);
},
{
closed = 1;
nodes = (
(1354,1189,l),
(1334,1460,l),
(220,1460,l),
(200,1189,l)
);
},
{
closed = 1;
nodes = (
(975,1610,l),
(1178,1773,l),
(1178,1908,l),
(980,1908,l),
(980,1840,l),
(895,1773,l),
(661,1773,l),
(576,1840,l),
(576,1908,l),
(378,1908,l),
(378,1772,l),
(581,1610,l)
);
}
);
width = 1555;
},
{
layerId = "70AA2382-B93B-4577-8C7E-04CBB56D22D0";
shapes = (
{
closed = 1;
nodes = (
(673,0,l),
(673,1460,l),
(547,1460,l),
(547,0,l)
);
},
{
closed = 1;
nodes = (
(1068,0,l),
(1088,110,l),
(152,110,l),
(172,0,l)
);
},
{
closed = 1;
nodes = (
(1088,1350,l),
(1068,1460,l),
(172,1460,l),
(152,1350,l)
);
},
{
closed = 1;
nodes = (
(767,1643,l),
(887,1760,l),
(887,1883,l),
(797,1883,l),
(797,1797,l),
(727,1731,l),
(513,1731,l),
(443,1797,l),
(443,1883,l),
(353,1883,l),
(353,1759,l),
(473,1643,l)
);
}
);
width = 1240;
},
{
layerId = "32C81056-0B67-48FF-9423-60F4119D1D79";
shapes = (
{
closed = 1;
nodes = (
(734,0,l),
(1018,1460,l),
(892,1460,l),
(608,0,l)
);
},
{
closed = 1;
nodes = (
(1231,0,l),
(1272,110,l),
(132,110,l),
(131,0,l)
);
},
{
closed = 1;
nodes = (
(1513,1350,l),
(1515,1460,l),
(415,1460,l),
(373,1350,l)
);
},
{
closed = 1;
nodes = (
(1164,1643,l),
(1337,1760,l),
(1361,1883,l),
(1271,1883,l),
(1254,1797,l),
(1141,1731,l),
(887,1731,l),
(800,1797,l),
(817,1883,l),
(727,1883,l),
(703,1759,l),
(830,1643,l)
);
}
);
width = 1555;
},
{
layerId = "7F8FBB26-3B45-4F09-894A-43C94E46FA86";
shapes = (
{
closed = 1;
nodes = (
(680,0,l),
(964,1460,l),
(634,1460,l),
(350,0,l)
);
},
{
closed = 1;
nodes = (
(970,0,l),
(1043,271,l),
(93,271,l),
(60,0,l)
);
},
{
closed = 1;
nodes = (
(1221,1189,l),
(1254,1460,l),
(344,1460,l),
(271,1189,l)
);
},
{
closed = 1;
nodes = (
(993,1600,l),
(1216,1753,l),
(1240,1878,l),
(1042,1878,l),
(1031,1820,l),
(945,1763,l),
(771,1763,l),
(707,1820,l),
(718,1878,l),
(520,1878,l),
(496,1752,l),
(659,1600,l)
);
}
);
width = 1240;
},
{
layerId = "AD62C6D0-0611-42BF-ABA7-5ADD2541426F";
shapes = (
{
closed = 1;
nodes = (
(837,0,l),
(1121,1460,l),
(791,1460,l),
(507,0,l)
);
},
{
closed = 1;
nodes = (
(1229,0,l),
(1302,271,l),
(148,271,l),
(115,0,l)
);
},
{
closed = 1;
nodes = (
(1480,1189,l),
(1513,1460,l),
(399,1460,l),
(326,1189,l)
);
},
{
closed = 1;
nodes = (
(1183,1610,l),
(1418,1773,l),
(1444,1908,l),
(1246,1908,l),
(1233,1840,l),
(1135,1773,l),
(901,1773,l),
(829,1840,l),
(842,1908,l),
(644,1908,l),
(617,1772,l),
(789,1610,l)
);
}
);
width = 1555;
},
{
layerId = "D91E39D8-7CC3-444E-9A45-AC8D9F6D33DB";
shapes = (
{
closed = 1;
nodes = (
(576,0,l),
(860,1460,l),
(734,1460,l),
(450,0,l)
);
},
{
closed = 1;
nodes = (
(971,0,l),
(1012,110,l),
(76,110,l),
(75,0,l)
);
},
{
closed = 1;
nodes = (
(1253,1350,l),
(1255,1460,l),
(359,1460,l),
(317,1350,l)
);
},
{
closed = 1;
nodes = (
(989,1643,l),
(1132,1760,l),
(1156,1883,l),
(1066,1883,l),
(1049,1797,l),
(966,1731,l),
(752,1731,l),
(695,1797,l),
(712,1883,l),
(622,1883,l),
(598,1759,l),
(695,1643,l)
);
}
);
width = 1240;
}
);
unicode = 300;
},
